<svg xmlns="http://www.w3.org/2000/svg" width="79.117" height="79.094" viewBox="868 3498 79.117 79.094"><g data-name="CompositeLayer"><path d="M868 3498h79.117v79.094H868V3498Z" fill="#008379" fill-rule="evenodd" data-name="Path 44818"/><path d="M927.88 3566h-16.486c-3.054-8.659-10.364-15.288-19.396-17.339v11.385h1.346a32.78 32.78 0 0 1 1.491-4.073c.004-.008.007-.017.012-.024a32.894 32.894 0 0 1 1.953-3.74c1.663.81 3.648 2.018 5.078 3.256a26.791 26.791 0 0 0-1.918 3.863l-.017.042a21.053 21.053 0 0 0-.259.676 26.94 26.94 0 0 0-1.45 5.954H886v-17.112l.013-.888H886v-6.074h.064a32.719 32.719 0 0 1 5.935.55c3.459.64 6.728 1.828 9.716 3.467l.024-.023a33.076 33.076 0 0 1 3.08-2.716 36.234 36.234 0 0 1 5.15 3.731s-2.137 1.557-3.11 2.446c-.012.008-.02.018-.031.027a33.213 33.213 0 0 1 8.47 10.552h6.7a34.019 34.019 0 0 0-.762-1.724l-.169-.35a32.317 32.317 0 0 0-.516-1.027c-.061-.12-.125-.237-.187-.357-.121-.226-.245-.452-.371-.675a34.844 34.844 0 0 0-.781-1.332 37.58 37.58 0 0 0-.402-.644l-.244-.374-.133-.202a33.772 33.772 0 0 0-.486-.712c-.072-.105-.146-.21-.221-.314a19.614 19.614 0 0 0-.224-.312 20.022 20.022 0 0 0-.205-.279l-.05-.067c-.066-.091-.134-.182-.204-.272-.074-.1-.15-.199-.226-.298-.007-.006-.011-.013-.017-.021-.074-.097-.15-.192-.225-.288a35.441 35.441 0 0 0-.973-1.187 35.555 35.555 0 0 0-.753-.856l-.269-.295a30.148 30.148 0 0 0-.788-.828 25.624 25.624 0 0 0-.541-.542c-.183-.18-.366-.357-.552-.531a35.04 35.04 0 0 0-1.423-1.281c-.29-.251-.586-.496-.884-.735-.198-.161-.4-.32-.6-.476-.303-.236-.61-.467-.92-.69a38.544 38.544 0 0 0-22.15-7.425l-.289-.004c-.081-.002-.165-.002-.248-.002l-.121-.001H886v-6.013h.064a41.85 41.85 0 0 1 1.451.026 27.777 27.777 0 0 1 .434.016 44.397 44.397 0 0 1 8.25 1.13 44.235 44.235 0 0 1 7.533 2.492h.001a44.461 44.461 0 0 1 8.387 4.77h.001c.185.133.368.267.55.403l.042-.015c.232-.078.998-.268 1.89-.51 1.144-.31 2.5-.703 3.206-1.052l.06-.03h.002a10.489 10.489 0 0 0 .567-.317c.358-.212.702-.444 1.033-.696a10.223 10.223 0 0 0 .842-.708l.136-.127c.044-.043.09-.087.133-.131l.149-.15.112-.118a10.83 10.83 0 0 0 1.058-1.31 9.757 9.757 0 0 0 .105-.155c.217-.323.417-.66.598-1.006l.067-.13.096-.195a9.689 9.689 0 0 0 .341-.78c.124-.318.235-.643.33-.974l.04-.141.023-.086a4.32 4.32 0 0 0 .037-.146c.014-.055.029-.111.041-.167a10.71 10.71 0 0 0 .23-1.36 9.709 9.709 0 0 0 .051-.635c.004-.057.005-.114.008-.17v-.001a11.889 11.889 0 0 0-.002-.855c-.003-.084-.008-.168-.012-.251l-.002-.018a9.628 9.628 0 0 0-.02-.275v-.004c-.505-5.679-5.242-10.13-11.011-10.13H886V3510h26.82l.221.002a9.01 9.01 0 0 1 .404.01c.054 0 .107.003.16.006a11.318 11.318 0 0 1 .392.023l.076.005c.054.004.11.007.163.013.12.01.24.02.36.033l.183.02c.146.017.292.036.436.056.078.01.156.023.234.035.06.01.12.018.18.03.044.006.088.014.132.022l.148.026a17.027 17.027 0 0 1 .221.042l.029.006.184.038a7.417 7.417 0 0 1 .329.073 9.672 9.672 0 0 1 .41.101 14.162 14.162 0 0 1 .81.231l.163.052.06.02.175.059.163.056c.082.03.163.058.245.089l.181.068c.065.024.13.05.195.076.064.025.129.05.192.077a18.064 18.064 0 0 1 .407.175l.21.093.189.089.141.068.164.08a15.192 15.192 0 0 1 .726.385l.104.058.28.163.06.036.146.089c.073.045.146.09.218.137l.166.106a17.199 17.199 0 0 1 4.737 4.608l.098.142.01.017c.067.1.135.2.2.302l.099.154c.271.43.524.872.757 1.326l.065.128c.05.1.1.2.148.302.029.058.056.116.084.175a22.963 22.963 0 0 1 .176.394 20.099 20.099 0 0 1 .387.971l.047.13a16.802 16.802 0 0 1 .674 2.477l.035.188c.009.051.019.102.027.154l.022.128c.01.057.018.115.027.172.009.053.018.107.024.16.008.05.014.098.02.147.009.054.015.108.022.161.007.054.014.107.019.161l.013.11.017.16c.01.088.017.176.025.265l.013.157a1942.248 1942.248 0 0 0 .02.288l.007.148a15.226 15.226 0 0 1 .021 1.127l-.003.215c-.002.073-.004.147-.008.22-.003.101-.009.203-.013.306l-.018.274-.002.03c-.008.1-.015.2-.025.3a10.956 10.956 0 0 1-.032.319c-.01.099-.022.196-.034.293v.007c-.013.102-.028.205-.043.306a8.054 8.054 0 0 1-.05.329 15.714 15.714 0 0 1-.16.841l-.012.055a18.241 18.241 0 0 1-.214.87l-.002.004a22.832 22.832 0 0 1-.171.578 12.052 12.052 0 0 1-.19.573c-.03.088-.063.174-.096.26l-.012.036c-.03.083-.063.168-.097.252-.03.079-.062.158-.094.236l-.047.115-.043.102a17.346 17.346 0 0 1-.248.556c-.043.09-.085.18-.13.269a2.73 2.73 0 0 1-.056.115c-.032.066-.065.131-.1.196a15.003 15.003 0 0 1-.492.892c-.035.06-.071.12-.109.18a11.952 11.952 0 0 1-.346.545c-.054.084-.11.167-.166.25l-.135.192-.115.161c-.056.079-.114.155-.172.233-.038.05-.075.101-.114.15-.041.055-.083.108-.126.162l-.175.22a15.181 15.181 0 0 1-.56.654l-.156.172-.11.118-.049.05-.114.12c-.113.116-.227.23-.342.343l-.096.093c-.079.076-.158.151-.238.225l-.134.122a13.34 13.34 0 0 1-.493.431l-.062.05a26.106 26.106 0 0 1-.454.365 14.54 14.54 0 0 1-.501.374c-.085.061-.17.122-.257.18-.085.06-.173.119-.26.177a8.68 8.68 0 0 1-1.627.955l-.237.12c-.12.06-.238.116-.359.172-.077.037-.156.072-.234.107l-.025.012h-.002l-.192.084-.185.079c-.093.038-.185.076-.28.113l-.175.068c-.112.044-.225.085-.337.125l-.176.062-.177.059-.047.017a45.25 45.25 0 0 1 10.195 16.471A45.137 45.137 0 0 1 930 3566h-2.12Z" fill="#fff" fill-rule="evenodd" data-name="Color Overlay"/></g></svg>