<svg xmlns="http://www.w3.org/2000/svg" width="49" height="49" viewBox="1178 51.95 49 49"><g data-name="Group 7"><path d="M1178 76.4a24.5 24.5 0 1 1 0 .1z" fill="#3aa5a9" fill-rule="evenodd" data-name="Ellipse 3"/><path d="M1215.441 81.61V71.547c0-.77-.3-1.493-.847-2.04a2.867 2.867 0 0 0-2.04-.847h-17.2a2.89 2.89 0 0 0-2.886 2.887v.884h-4.221a.785.785 0 1 0 0 1.57h4.22v1.793h-7.584a.785.785 0 1 0 0 1.57h7.585v1.794h-4.222a.785.785 0 1 0 0 1.57h4.222v.884c0 .769.3 1.493.847 2.04.547.546 1.27.847 2.04.847h17.2a2.89 2.89 0 0 0 2.886-2.887Zm-3.378-11.381-8.109 5.406-8.109-5.406h16.218Zm.491 12.699h-17.2c-.349 0-.679-.138-.929-.388s-.387-.58-.387-.93V71.546c0-.197.044-.384.122-.553l9.359 6.24a.785.785 0 0 0 .87 0l9.36-6.24c.08.172.122.36.122.554V81.61c0 .726-.59 1.317-1.317 1.317Zm0 0" fill="#fff" fill-rule="evenodd" data-name="sent"/></g></svg>