<svg xmlns="http://www.w3.org/2000/svg" width="457.929" height="325.498" viewBox="780.433 921.623 457.929 325.498"><g data-name="Group 5649"><path d="M942.626 1204.115c3.2 13.517 7.905 28.693 12.786 43.006h80.987a399.036 399.036 0 0 0 5.363-18.916c9.95-38.754-.523-72.269-9.949-87.455-9.426-15.187-17.543-33.252-3.166-55.403 14.379-22.148 15.735-39.381 15.735-39.381-2.095-8.38-8.642-11.26-25.642-19.373 0 0-1.015-.34-2.591-.872-3.601 14.623-11.2 26.253-24.66 28.623-17.538 3.088-33.369-7.61-41.376-26.39-7.721 2.28-16.32 4.71-20.417 7.014 0 0 21.47 46.606 25.565 72.96 4.093 26.355-22.424 54.816-12.635 96.187Z" fill="#fad964" fill-rule="evenodd" data-name="Path 761"/><path d="M1071.322 346.28c13.46-2.37 21.059-14 24.66-28.623-5.634-1.908-18.881-6.455-22.564-8.296-4.714-2.357-3.405-21.472-3.405-21.472l-24.887 7.103v18.557c0 1.74-7.11 3.958-15.18 6.342 8.008 18.78 23.838 29.477 41.376 26.389Z" fill-rule="evenodd" fill="url(&quot;#a&quot;)" transform="translate(-79.833 708.064)" data-name="Path 762"/><path d="m990.18 996.262-24.886 7.102v15.772c10.517 5.682 22.314 16.226 26.323 35.488 13.376-2.423 20.941-14.018 24.53-28.594-5.633-1.908-18.88-6.455-22.564-8.297-4.713-2.356-3.404-21.471-3.404-21.471Z" fill="#cb9eae" fill-rule="evenodd" data-name="Path 763"/><path d="M1091.83 348.261c-11.105 3.398-21.586 7.132-27.132 7.132-10.999 0-27.233-15.45-34.91-6.005-7.679 9.446-8.818 15.692-2.808 19.882 6.013 4.188 25.15-1.572 34.313.262 4.09.817 18.041 1.529 32.86 1.299 1.263-5.89 1.08-16.66-2.323-22.57Z" fill-rule="evenodd" fill="url(&quot;#b&quot;)" transform="translate(-86.3 763.626)" data-name="Path 764"/><path d="M1044.81 1045.966c-2.58-10.325-23.828 8.64-18.59 25.921 4.49 14.818 2.858 34.731 2.858 34.731l20.8 21.04c7.069-8.64-2.973-73.313-5.069-81.692Z" fill="#fff" fill-rule="evenodd" data-name="Path 765"/><path d="M1036.001 1106.711c-8.043-1.174-19.56 1.838-30.47 5.175 3.402 5.911 3.585 16.681 2.323 22.57 18.385-.283 38.112-2.015 42.025-6.798 0 0 9.426-17.543-13.878-20.947Z" fill="#fff" fill-rule="evenodd" data-name="Path 766"/><path d="M1036.009 275.221c-4.368 8.494-3.882 37.374 8.251 40.045 10.6 2.33 16.505-8.01 16.505-8.01V288.1s-5.979-3.111-6.796-10.452c-.654-5.87-4.126-6.494-4.126-6.494s-7.282 4.31-13.834 4.067Z" fill-rule="evenodd" fill="url(&quot;#c&quot;)" transform="translate(-76.459 692.153)" data-name="Path 767"/><path d="M940.68 1107.928c-5.477-11.031-9.117-24.938-12.326-32.786-6.053-14.812-7.038-35.462 1.342-40.175 15.448-7.91 21.995 19.295 23.04 27.19 1.047 7.896 3.143 26.35 8.903 32.965l-20.958 12.806Z" fill="#fff" fill-rule="evenodd" data-name="Path 768"/><path d="M1009.141 1012.412c-10.472-6.544 1.2-42.642-16.361-56.533-14.459-11.436-37.52-2.835-37.52 18.76v51.76c5.717-1.787 10.034-3.431 10.034-4.787v-15.204c-9.638-6.135-9.837-31.077-5.745-39.034 6.553.242 13.835-4.067 13.835-4.067s3.472.622 4.126 6.494c.817 7.339 6.796 10.452 6.796 10.452v19.156c0 17.986 4.329 37.653 14.582 38.743 10.253 1.09 11.997-12.434 19.85-11.56 0 0 .872-7.635-9.597-14.18Z" fill-rule="evenodd" data-name="Path 769"/><path d="M955.657 1081.83c-5.72 7.817-14.677 14.65-14.976 26.106 4.865 9.783 11.174 17.303 19.912 16.318 12.881-1.451 17.337-16.606 18.86-30.482-8.602.664-19.563-6.146-23.796-11.942Z" fill="#fff" fill-rule="evenodd" data-name="Path 770"/><path d="M1052.237 295.778c-2.456 1.116-11.164 8.708-11.164 10.607 0 1.898 3.907 16.189 3.907 20.543 0 4.354-3.991 23.324-9.23 34.55-.79 1.692-1.817 3.294-2.962 4.86 4.233 5.796 15.194 12.606 23.797 11.942.675-6.148.776-12.045.776-16.386 0 0 .88-31.736 2.32-33.993 1.312-2.06 1.303-5.452 1.303-8.345v-5.882s2-.128 2.115-3.564c.003-.103.003-.208.003-.316 0-3.745-8.409-15.133-10.865-14.016Z" fill-rule="evenodd" fill="url(&quot;#d&quot;)" transform="translate(-77.132 715.492)" data-name="Path 771"/><path d="M1046.368 1107.266c-32.539 33.885-60.568 137.238-60.568 137.238h46.715l29.196-68.619-15.343-68.619Z" fill="#fce181" fill-rule="evenodd" data-name="Path 772"/><path d="M1215.838 1112.864c-6.808-7.737-43.068-33.19-89.303-30.422-40.765 2.439-73.739 15.032-80.166 24.825-4.701 7.165 5.596 55.52 12.761 74.773 7.163 19.252 10.298 39.85 10.298 57.31 0 0 115.292-.67 115.963 0 .673.672 14.328-42.535 16.119-64.026 1.79-21.491-2.238-45.222 14.328-62.46Z" fill="#fff" fill-rule="evenodd" data-name="Path 773"/><path d="M1156.227 311.658s.576 35.833 0 46.529c-.575 10.695-17.154 20.322-23.303 20.59-6.15.267-19.788-8.826-21.928-24.067v-32.354l45.231-10.698Z" fill-rule="evenodd" fill="url(&quot;#e&quot;)" transform="translate(-2.777 730.662)" data-name="Path 780"/><path d="M1153.667 1061.788c-.07-10.383-.217-19.468-.217-19.468l-45.231 10.696v26.532c3.768 16.585 28.782 12.051 34.738-3.666 3.412-9.008 6.33-11.683 10.71-14.094Z" fill="#cb9eae" fill-rule="evenodd" data-name="Path 781"/><path d="M1104.89 320.055c1.7 26.253 12.4 51.667 29.353 48.986 21.028-3.324 27.413-35.214 26.582-52.595-.83-17.383-10.735-28.247-25.812-28.262-14.341-.014-31.56 9.644-30.123 31.87Z" fill-rule="evenodd" fill="url(&quot;#f&quot;)" transform="translate(-8.662 708.345)" data-name="Path 782"/><path d="M1139.873 313.93c-1.124 5.235-3.671 9.206-5.689 8.869-2.017-.336-2.739-4.852-1.615-10.087 1.126-5.234 3.672-9.206 5.688-8.868 2.018.335 2.74 4.851 1.616 10.087Z" fill-rule="evenodd" fill="url(&quot;#g&quot;)" transform="translate(17.23 723.214)" data-name="Path 783"/><path d="M1096.569 1032.507c-3.204-4.902-3.426-6.83-3.19-14.972.236-8.142 7.105-8.425 6.96-11.905-.144-3.48 4.294-12.828 22.42-13.579 18.126-.751 17.036 7.555 22.65 8.097 5.612.543 14.316 6.297 10.078 26.909 0 0-4.928.47-6.869 10.43-.137.706-1.174.911-1.58.299-.558-.839-1.188-2.078-1.662-3.818-1.352-4.978-6.777 2.505-7.76-7.422-.702-7.072-17.96 5.906-30.763-5.568 0 0-1.902 2.532-7.356 2.37-3.168-.093-2.928 9.159-2.928 9.159Z" fill-rule="evenodd" data-name="Path 784"/><g data-name="Group 1165"><path d="M1108.208 1127.495s1.493 1.908 4.28-2.347c2.788-4.256 12.32-17.182 15.628-15.904l-.016-.023c-6.706-1.393-17.964-10.109-19.892-23.85v-1.114a221.81 221.81 0 0 0-15.303 2.679c-1.344 7.592 4.35 32.169 15.303 40.56Z" fill="#fce181" fill-rule="evenodd" data-name="Path 131"/><path d="M1153.437 1088.847c-.5 9.301-13.1 17.791-20.422 20.023v.002c3.456-1.346 16.162 15.367 18.364 19.05 2.2 3.683 6.246-1.3 10.268-11.577 2.923-7.46 7.439-20.315 5.545-29.392a130.114 130.114 0 0 0-13.593-3.025c-.039 1.933-.091 3.62-.162 4.92Z" fill="#fce181" fill-rule="evenodd" data-name="Path 132"/></g><path d="M1108.218 1085.373v-7.791c-6.759 2.969-13.02 5.477-13.709 9.345-1.352 7.581 4.732 29.612 13.71 37.39 0 0 1.492 1.908 4.281-2.349 2.787-4.254 12.32-14 15.627-12.722l-.015-.024c-6.709-1.392-17.964-10.108-19.894-23.85Z" fill="#fff" fill-rule="evenodd" data-name="Path 785"/><path d="M1164.747 1084.048c-1.87-4.231-7.94-7.67-11.045-9.141-.016 5.753-.086 10.88-.252 13.942-.499 9.3-13.1 17.79-20.422 20.022l-.002.002c3.46-1.346 16.164 12.188 18.366 15.871 2.2 3.683 4.924-.61 9.393-10.7 4.55-10.274 7.014-23.092 3.962-29.996Z" fill="#fff" fill-rule="evenodd" data-name="Path 786"/><path d="M1238.224 1217.871c0-29.711-8.655-89.26-22.386-105.007 0 0-21.494 11.495-28.292 47.931-2.03 10.887 1.428 41.991 2.324 55.124l48.354 1.952Z" fill="#fce181" fill-rule="evenodd" data-name="Path 790"/><path d="M1154.418 1247.12h65.216c9.66 0 20.05-7.887 18.59-29.249-1.457-21.364-36.416-18.37-48.354-1.953l-35.932 5.49.48 25.712Z" fill="#fce181" fill-rule="evenodd" data-name="Path 787"/><path d="m1137.298 429.595 3.084-2.89 9.382 3.323a15.18 15.18 0 0 0 5.071.872h18.617s8.809-1.886 9.097-12.283c.29-10.398-8.665-13.43-12.562-13.43h-20.413c-1.022 0-2.042-.105-3.043-.315l-14.515-3.032a8.93 8.93 0 0 0-6.28 1l-8.226 4.724a20.785 20.785 0 0 0-4.351 3.335l-14.928 14.96c-1.859 1.862-.538 5.041 2.091 5.041h33.676a4.821 4.821 0 0 0 3.3-1.305Z" fill-rule="evenodd" fill="url(&quot;#h&quot;)" transform="translate(-15.74 816.22)" data-name="Path 788"/><path d="M905.649 1119.365s10.953 8.668 22.156 0c11.205-8.667 3.486-23.47 3.486-23.47l-25.642 13.66v9.81Z" fill="#f7c0c2" fill-rule="evenodd" data-name="Path 774"/><path d="M921.453 1038.147v64.812h-21.076v-61.265l21.076-3.547Z" fill="#fdd9a3" fill-rule="evenodd" data-name="Path 775"/><path d="M885.094 1199.183c-2.029 10.815-13.554 26.007-20.885 47.937h41.885c4.016-26.346 7.644-61.71 1.919-93.147H883.86c2.23 10.597 3.14 35.035 1.233 45.21Z" fill="#fad964" fill-rule="evenodd" data-name="Path 776"/><path d="M890.86 1153.974c-.286-1.36-.592-2.505-.92-3.348h-72.805c1.002 35.043 3.765 69.916 5.423 96.495h48.65c7.332-21.93 18.857-37.123 20.885-47.937 1.908-10.175.997-34.614-1.232-45.21Z" fill="#fce181" fill-rule="evenodd" data-name="Path 778"/><path d="M861.762 980.467c-43.066-11.556-72.154 7.672-76.93 35.283-4.36 25.217 27.303 103.298 27.303 134.875 0 0 51.045 26.311 97.878 3.347 0 0-7.025-33.488 0-63.15 7.024-29.661 16.363-46.656 8.429-67.934-6.93-18.59-36.539-37.017-56.68-42.42Z" fill="#fff" fill-rule="evenodd" data-name="Path 753"/><path d="M1005.121 265.412s-16.253 20.444-23.112 26.957c-6.857 6.516 5.797 19.845 15.399 25.502 6.342 3.738 19.714 7.887 15.772-3.77 0 0-2.23-6.516 8.571-15.772 0 0-12-35.831-16.63-32.917Z" fill-rule="evenodd" fill="url(&quot;#i&quot;)" transform="translate(-127.266 686.534)" data-name="Path 756"/><path d="M894.485 984.864s-5.563-16.609-10.577-26.288l-5.294 2.497c-6.17 12.654-7.276 36.497 7.3 39.562 0 0-2.23-6.515 8.571-15.771Z" fill="#cb9eae" fill-rule="evenodd" data-name="Path 757"/><path d="M1000.454 270.601c1.377-7.793-5.589-8.378-7.774-1.872-2.495 7.432.254 12.584 3.116 10.867 0 0-5.552 16.786 1.435 26.897 6.988 10.108 15.908 6.222 27.059-4.758 9.587-9.444 15.83-20.98 16.8-25.424 2.528-11.595-9.514-20.974-20.815-20.367-13.827.743-19.821 14.657-19.821 14.657Z" fill-rule="evenodd" fill="url(&quot;#j&quot;)" transform="translate(-116.19 677.666)" data-name="Path 758"/><path d="M884.263 948.268c-.435 4.59.317 8.144 3.016 6.581 2.698-1.562 9.092-10.795 14.915-4.12 5.825 6.678 10.548 12.893 20.885 11.793 13.353-1.42 16.45-19.494 4.687-22.73 0 0 5.115-6.21-3.977-9.093-8.324-2.639-8.658-1.002-14.482-7.537-3.353-3.761-23.45-1.756-28.93 18.89 0 0 4.565-.934 3.886 6.216Z" fill-rule="evenodd" data-name="Path 759"/><path d="M818.23 1081.542c.429-8.98 5.982-32.277 13.817-47.163 7.834-14.884 3.988-34.027-6.66-41.52-10.575-7.441-25.405-6.12-32.427 4.243-18.887 27.876-13.401 90.55-3.219 111.701 2.023 4.2 6.898 6.929 13.513 8.57-14.338-6.551.039-39.245 14.976-35.831Z" fill="#fce181" fill-rule="evenodd" data-name="Path 754"/><path d="m873.77 1107.073 28.292-34.233a4.862 4.862 0 0 1 5.04-1.59l47.998 13.226c1.184.326 1.54 1.83.63 2.653l-27.62 24.932-8.685 7.84a3.151 3.151 0 0 1-2.836.728l-41.568-9.83c-1.67-.394-2.343-2.403-1.25-3.726Z" fill="#83dfc5" fill-rule="evenodd" data-name="Path 760"/><path d="M1062.012 343.87c-1.642-4.7-6.343-8.226-9.086-9.008-1.992-.57-16.796-.312-24.749-.129a17.134 17.134 0 0 0-8.723 2.603c-2.505 1.574-5.628 3.316-7.18 3.316h-25s-6.919-5.24-14.753-8.767c-14.937-3.413-29.314 29.28-14.976 35.831 24.11 5.977 71.691-2.75 91.692-9.584 4.428-1.514 8.363-4.282 11.024-8.132 1.424-2.058 2.392-4.302 1.751-6.13Z" fill-rule="evenodd" fill="url(&quot;#k&quot;)" transform="translate(-154.291 749.656)" data-name="Path 755"/><path d="M1052.5 1246.665h54.258a5.633 5.633 0 0 0 5.633-5.634 2.57 2.57 0 0 0-2.57-2.568H1052.5a2.569 2.569 0 0 0-2.57 2.568v3.066a2.57 2.57 0 0 0 2.57 2.568Z" fill="#83dfc5" fill-rule="evenodd" data-name="Path 789"/><path d="M956.465 1246.664h113.333c4.372 0 7.545-4.16 6.386-8.376l-20.004-72.818a10.857 10.857 0 0 0-10.47-7.983H932.376c-4.371 0-7.544 4.162-6.386 8.377l20.003 72.818a10.86 10.86 0 0 0 10.472 7.982Z" fill="#83dfc5" fill-rule="evenodd" data-name="Path 779"/></g><defs><linearGradient x1=".82" y1=".205" x2=".293" y2=".736" id="a"><stop stop-color="#f6b3b5" offset="0"/><stop stop-color="#fad1d3" offset="1"/></linearGradient><linearGradient x1=".366" y1="-.117" x2=".567" y2=".831" id="b"><stop stop-color="#f6b3b5" offset="0"/><stop stop-color="#fad1d3" offset="1"/></linearGradient><linearGradient x1=".78" y1="-.114" x2=".167" y2="1.33" id="c"><stop stop-color="#f6b3b5" offset="0"/><stop stop-color="#fad1d3" offset="1"/></linearGradient><linearGradient x1="-.374" y1=".5" x2="1.105" y2=".5" id="d"><stop stop-color="#f6b3b5" offset="0"/><stop stop-color="#fad1d3" offset="1"/></linearGradient><linearGradient x1="1.154" y1=".34" x2="-.141" y2=".687" id="e"><stop stop-color="#f6b3b5" offset="0"/><stop stop-color="#fad1d3" offset=".991"/></linearGradient><linearGradient x1=".567" y1="-.104" x2=".42" y2=".968" id="f"><stop stop-color="#f6b3b5" offset="0"/><stop stop-color="#fad1d3" offset=".991"/></linearGradient><linearGradient x1="-3.555" y1="6.749" x2=".835" y2="-.016" id="g"><stop stop-color="#8cc6ff" offset="0"/><stop stop-color="#f6b3b5" offset="1"/></linearGradient><linearGradient x1=".5" y1="1.073" x2=".5" y2="-.165" id="h"><stop stop-color="#f6b3b5" offset="0"/><stop stop-color="#fad1d3" offset=".991"/></linearGradient><linearGradient x1=".414" y1=".064" x2=".577" y2="1.038" id="i"><stop stop-color="#f6b3b5" offset="0"/><stop stop-color="#fad1d3" offset="1"/></linearGradient><linearGradient x1="1.006" y1="-.155" x2="-.018" y2=".867" id="j"><stop stop-color="#f6b3b5" offset="0"/><stop stop-color="#fad1d3" offset="1"/></linearGradient><linearGradient x1=".5" y1=".963" x2=".5" y2=".053" id="k"><stop stop-color="#f6b3b5" offset="0"/><stop stop-color="#fad1d3" offset="1"/></linearGradient></defs></svg>