<svg xmlns="http://www.w3.org/2000/svg" width="689.76" height="384.146" viewBox="583 7272.848 689.76 384.146"><g data-name="Group 5651"><path d="M1219.143 7558.932c-.003.041-.003-3.917-.003-3.878l-.017 1.083c-.01.539-.024 1.075-.041 1.616-.015.534-.035 1.07-.06 1.605-.016.477-.04.95-.063 1.425-.017.32-.034.642-.054.96-.03.514-.06 1.029-.095 1.54-.027.444-.062.887-.093 1.328a156.725 156.725 0 0 1-1.222 10.968 158.29 158.29 0 0 1-.757 4.69l-.28 1.546c-.056.293-.11.587-.166.876-.056.294-.113.586-.17.875v.007c-.173.872-.352 1.739-.533 2.601a246.75 246.75 0 0 1-.57 2.577 173.78 173.78 0 0 1-1.827 7.252c-.03.098-.055.19-.082.286-.073.275-.152.546-.227.818-.076.275-.155.549-.23.819-.079.271-.16.54-.236.812-.157.54-.316 1.076-.477 1.615a210.399 210.399 0 0 1-1.227 3.911l-.275.838c-.174.516-.347 1.036-.521 1.55a152.039 152.039 0 0 1-.571 1.65c-.037.109-.074.219-.115.326-.04.108-.076.214-.113.321-.152.422-.299.838-.45 1.254a193.21 193.21 0 0 1-.963 2.597c-.032.088-.066.173-.1.262-.106.281-.211.558-.319.835-.154.404-.313.806-.47 1.207-.16.402-.316.799-.475 1.195-.16.397-.319.792-.48 1.186-.005.017-.015.034-.02.054l-.345.84c-.353.85-.706 1.69-1.068 2.52-.005.022-.015.042-.025.064l-.487 1.124c-.012.024-.022.049-.032.071l-.002.003c-.133.306-.267.607-.4.91-.352.794-.707 1.58-1.065 2.354-.083.186-.167.368-.252.551-.103.226-.208.451-.314.674-.078.171-.161.343-.242.514-.233.497-.465.99-.7 1.475-.224.465-.446.923-.667 1.376-.115.235-.23.468-.345.698-.336.683-.671 1.357-1.007 2.02a322.676 322.676 0 0 1-1.497 2.89l-.024.043c-.277.521-.55 1.04-.825 1.552-.282.522-.564 1.036-.843 1.546-.002.002-.002.007-.005.01-.09.169-.183.335-.276.5-.182.332-.365.663-.549.989-.005.007-.007.017-.012.024l-.48.85c-.025.047-.052.09-.076.135l-.414.725c-.164.286-.326.568-.488.847-.25.429-6.857 11.639-7.102 12.058l-570.14 2.091c-.375-.548-7.096-13.982-7.456-14.548a64.607 64.607 0 0 1-1.263-2.065c-.128-.22-.258-.44-.385-.664-.015-.017-.024-.039-.034-.058a68.223 68.223 0 0 1-2.094-3.936 17.275 17.275 0 0 1-.275-.566 80.721 80.721 0 0 1-2.152-4.844c-.06-.15-.12-.294-.18-.441-.09-.233-.183-.466-.274-.698-.083-.206-.161-.414-.242-.622-.181-.48-.363-.96-.536-1.443a78.58 78.58 0 0 1-.292-.816l-.284-.815c-.186-.546-.37-1.095-.549-1.646-1.405-4.365-2.537-8.89-3.411-13.49-1.536-8.053-2.295-16.332-2.428-24.348-.186-11.245.865-21.982 2.741-30.882.052-.24.103-.483.157-.725.122-.554.25-1.105.387-1.654.034-.149.07-.298.11-.45.083-.336.167-.671.257-1.004.052-.204.106-.404.16-.605.107-.402.217-.806.333-1.208a111.908 111.908 0 0 1 .965-3.199l.007-.02c.117-.379.24-.758.365-1.133a69.032 69.032 0 0 1 .438-1.308l.34-.987c.133-.382.27-.764.405-1.146.137-.38.272-.762.414-1.14a255.69 255.69 0 0 1 2.535-6.615c.294-.747.59-1.494.889-2.24.188-.468.372-.936.558-1.401.52-1.299 1.036-2.594 1.548-3.892.37-.943.737-1.889 1.102-2.834a204.467 204.467 0 0 0 2.009-5.467c.529-1.52 1.03-3.049 1.498-4.59.172-.56.336-1.119.498-1.685.083-.281.159-.563.237-.845.076-.264.145-.529.216-.793a77.4 77.4 0 0 0 1.114-4.752c.03-.122.052-.245.076-.37.172-.86.326-1.726.46-2.598.052-.323.1-.647.15-.972.076-.54.142-1.076.198-1.612 0-.007 0-.017.003-.027.027-.272.051-.544.076-.816.022-.271.044-.54.06-.813.018-.271.035-.541.047-.813.01-.24.023-.48.027-.715.069-1.942.02-3.875-.115-5.805a29.985 29.985 0 0 0-.06-.818 45.801 45.801 0 0 0-.147-1.631c-.028-.272-.055-.544-.084-.813a136.185 136.185 0 0 0-.774-5.721 727.54 727.54 0 0 1-1.78-12.085c-.015-.108-.033-.213-.045-.32-1.1-8.01-1.998-16.07-2.43-24.14-.418-7.901-.386-15.807.356-23.67.046-.5.098-.996.152-1.496.046-.44.095-.88.149-1.32.044-.375.09-.75.14-1.124.02-.167.041-.331.063-.495.04-.296.081-.59.123-.887l.09-.636a53.082 53.082 0 0 1 .182-1.181c.06-.394.127-.791.193-1.185.181-1.061.377-2.121.588-3.177.059-.294.12-.585.181-.877a105.064 105.064 0 0 1 .585-2.623c.285-1.198.59-2.39.919-3.576l.162-.575c.12-.424.245-.848.37-1.27.063-.207.124-.418.19-.626.052-.17.103-.336.157-.505.061-.198.125-.396.189-.595.007-.027.014-.054.024-.08a89.706 89.706 0 0 1 1.389-4.003c.071-.186.14-.374.213-.56.125-.334.255-.662.385-.993a80.15 80.15 0 0 1 3.896-8.398 73.707 73.707 0 0 1 4.245-6.95 67.167 67.167 0 0 1 4.053-5.276 71.606 71.606 0 0 1 2.146-2.41 75.484 75.484 0 0 1 3.72-3.743c3.87-3.634 8.073-6.84 12.54-9.667.076-.051.157-.1.235-.15.218-.137.436-.274.654-.406a96.76 96.76 0 0 1 6.236-3.537 100.72 100.72 0 0 1 3.534-1.75 77.907 77.907 0 0 1 2.158-.994c.49-.222.982-.44 1.477-.65.26-.113.52-.223.776-.333l.321-.133a118.013 118.013 0 0 1 3.64-1.457 142.844 142.844 0 0 1 9.05-3.103 171.475 171.475 0 0 1 12.503-3.294 217.976 217.976 0 0 1 11.57-2.28h.005c13.549-2.308 27.358-3.522 40.451-4.485.003-.002.005-.002.005 0h.005c6.816-.502 13.434-.936 19.724-1.418 15.373-1.183 41.913-.311 135.334-44.066a174.317 174.317 0 0 1 22.205-8.605c35.217-10.957 73.266-10.605 108.297 1.228a172.31 172.31 0 0 1 15.396 6.032c21.298 9.55 42.011 23.013 55.602 42.12 5.359 7.538 10.284 15.35 15.021 23.282v.002c.007.015.012.027.022.037.044.078.09.154.137.227.306.52.617 1.039.924 1.558.298.505.597 1.01.893 1.516.091.152.182.304.27.456.076.13.152.257.228.384 2.045 3.486 4.063 6.988 6.074 10.493 1.536 2.677 3.069 5.359 4.607 8.036a1100.238 1100.238 0 0 0 6.818 11.722 767.93 767.93 0 0 0 2.318 3.872 208.725 208.725 0 0 0 2.997 4.808 176.633 176.633 0 0 0 1.769 2.718 253.127 253.127 0 0 0 .475.715c.031.045.058.089.09.135a257.566 257.566 0 0 0 3.079 4.497c.032.042.059.086.09.127.29.414.583.83.88 1.242a103.687 103.687 0 0 0 .593.83c.257.363.519.723.779 1.083.115.157.227.313.345.47.367.51.737 1.019 1.11 1.524.313.423.626.847.942 1.27a368.266 368.266 0 0 0 8.617 11.081c.12.152.242.304.365.453.262.328.526.652.793.977l.061.079c.074.093.152.188.228.281.243.297.485.596.727.894.383.468.767.938 1.154 1.406a455.498 455.498 0 0 0 2.606 3.155c1.764 2.128 3.542 4.244 5.325 6.363l.105.125c1.996 2.368 3.997 4.737 5.996 7.112 1.11 1.318 2.219 2.638 3.326 3.963a818.096 818.096 0 0 1 7.387 8.962c.703.87 1.393 1.744 2.077 2.613l.406.52c.607.783 1.205 1.567 1.793 2.35.59.787 1.168 1.568 1.739 2.35.188.262.377.524.566.783.374.524.744 1.046 1.112 1.568a159.718 159.718 0 0 1 2.152 3.132c.174.262.35.522.525.782.08.122.161.247.242.367a178.558 178.558 0 0 1 2.28 3.544c.326.522.65 1.041.968 1.565.477.781.948 1.563 1.406 2.344.203.34.401.68.6 1.024.075.135.154.264.227.399l.36.627c.392.68.774 1.364 1.15 2.045.188.34.372.683.558 1.024a193.074 193.074 0 0 1 1.619 3.066c.198.387.396.774.592 1.164 1.23 2.44 2.376 4.871 3.444 7.298 5.895 13.395 9.397 26.584 11.092 39.327.556 4.162.919 8.274 1.107 12.33.137 2.924.184 9.822.15 12.685Z" fill="#fbe080" fill-rule="evenodd" data-name="Path 1472"/><path d="M594.573 7652.19h642.795c-20.346-4.556-38.478-3.536-58.534-4.294-49.396-1.863-100.431-1.602-149.846-2.916-62.645-1.666-125.305-2.89-187.972-3.33-81.784-.572-165.683-4.786-246.443 10.54Z" fill="#fffef6" fill-rule="evenodd" data-name="Path 1473"/><g data-name="Group 1365"><path d="M1216.994 7541.247H597.42c.118-.38.24-.76.365-1.134.11-.338.223-.676.338-1.012.032-.1.066-.198.1-.296.113-.33.226-.659.341-.987.132-.382.27-.764.404-1.146.137-.38.272-.762.414-1.14a254.64 254.64 0 0 1 2.535-6.615c.294-.747.59-1.494.89-2.24.188-.468.371-.936.558-1.401.519-1.299 1.036-2.594 1.547-3.892.37-.943.738-1.889 1.103-2.834a204.384 204.384 0 0 0 2.008-5.467c.529-1.52 1.031-3.049 1.499-4.59.171-.56.336-1.119.497-1.685.083-.281.16-.563.238-.845.076-.264.144-.529.215-.793a77.37 77.37 0 0 0 1.115-4.752c.029-.122.051-.245.076-.37.171-.86.325-1.726.46-2.598.051-.323.1-.647.15-.972a45.87 45.87 0 0 0 .198-1.612c0-.007 0-.017.002-.027.027-.272.052-.544.076-.816.022-.271.044-.54.061-.813.018-.272.035-.541.047-.813.01-.24.022-.48.027-.715a55.25 55.25 0 0 0-.115-5.805 30.154 30.154 0 0 0-.061-.818 46.142 46.142 0 0 0-.147-1.631 80.815 80.815 0 0 0-.084-.813 136.281 136.281 0 0 0-.774-5.721 728.12 728.12 0 0 1-1.78-12.085c-.015-.108-.032-.213-.044-.32-1.1-8.01-1.999-16.07-2.43-24.14-.419-7.901-.387-15.808.355-23.67.047-.5.098-.996.152-1.496.047-.44.096-.88.15-1.32.044-.375.09-.75.14-1.124.019-.167.04-.331.063-.495.039-.296.08-.59.122-.887l.09-.637a53.51 53.51 0 0 1 .182-1.18 116.812 116.812 0 0 1 .781-4.362 106.404 106.404 0 0 1 .767-3.5c.284-1.198.59-2.39.918-3.576l.162-.576c.12-.423.245-.847.37-1.268.064-.208.125-.42.19-.627a40.1 40.1 0 0 1 .158-.505c.06-.198.125-.396.188-.595.008-.027.015-.054.025-.08a89.758 89.758 0 0 1 1.388-4.003c.071-.186.14-.375.214-.56.124-.334.254-.662.384-.993a80.119 80.119 0 0 1 3.897-8.398h509.472a478.044 478.044 0 0 0 3.72 6.258 208.941 208.941 0 0 0 2.999 4.808 174.987 174.987 0 0 0 1.768 2.718c.037.057.073.113.113.17l.362.545c.032.045.059.089.09.135a256.147 256.147 0 0 0 3.079 4.497c.032.042.06.086.091.127.289.414.583.83.88 1.242.154.218.308.436.465.654.039.056.083.118.127.176.257.363.52.723.779 1.083.115.157.228.313.345.47.368.51.737 1.019 1.11 1.524a368.254 368.254 0 0 0 9.56 12.351c.119.152.241.304.364.453a98.968 98.968 0 0 0 .855 1.056c.073.093.152.188.227.281l.728.894c.382.468.766.938 1.154 1.406a1075.344 1075.344 0 0 0 7.93 9.518l.105.125c1.996 2.368 3.998 4.737 5.996 7.112 1.11 1.318 2.22 2.638 3.326 3.963a829.155 829.155 0 0 1 3.48 4.188 635.207 635.207 0 0 1 3.907 4.774c.703.87 1.394 1.744 2.077 2.613l.406.52c.608.783 1.205 1.567 1.793 2.35.59.787 1.169 1.568 1.74 2.35.188.262.376.524.565.783.375.524.745 1.046 1.112 1.568a160.044 160.044 0 0 1 2.153 3.132c.174.262.35.522.524.782a125.84 125.84 0 0 1 1.026 1.568 149.402 149.402 0 0 1 2.464 3.909c.478.78.948 1.562 1.406 2.343.203.34.402.68.6 1.024.076.135.154.264.228.399l.36.627c.392.68.774 1.364 1.149 2.045.188.34.372.683.558 1.024.37.683.735 1.362 1.087 2.045a174.477 174.477 0 0 1 1.124 2.185 154.15 154.15 0 0 1 3.444 7.298c5.895 13.395 9.398 26.584 11.093 39.327.556 4.162.918 8.274 1.107 12.33Z" fill="#fef9c7" fill-rule="evenodd" data-name="Path 1474"/><path d="M844.872 7394.45h231.287c6.627 0 12 5.373 12 12v110.467c0 6.627-5.373 12-12 12H844.872c-6.628 0-12-5.373-12-12V7406.45c0-6.628 5.372-12 12-12Z" fill="#fff" fill-rule="evenodd" data-name="Path 4293"/><path d="M1215.887 7528.917h-103.468a2.948 2.948 0 0 1-2.939-2.938v-128.59a2.948 2.948 0 0 1 2.94-2.939h23.597l.363.547c.032.044.059.088.09.134a245.889 245.889 0 0 0 3.08 4.497c.031.042.058.086.09.127.289.414.583.83.879 1.242l.465.654c.04.056.084.118.128.177.257.362.52.722.778 1.082.116.157.228.314.346.47.368.51.737 1.02 1.11 1.524.313.423.626.847.943 1.27a368.16 368.16 0 0 0 8.616 11.081c.12.152.242.304.365.453.262.328.526.652.794.978l.06.078.228.282a307.655 307.655 0 0 0 1.882 2.3 436.05 436.05 0 0 0 2.605 3.154c1.764 2.128 3.542 4.244 5.325 6.363l.105.125c1.996 2.368 3.997 4.737 5.996 7.113 1.11 1.317 2.219 2.637 3.326 3.962a848.587 848.587 0 0 1 3.48 4.188 623.43 623.43 0 0 1 3.907 4.774c.703.87 1.393 1.744 2.077 2.613l.406.52a191.97 191.97 0 0 1 1.793 2.35c.59.787 1.168 1.568 1.739 2.35.189.262.377.524.566.783.375.525.744 1.046 1.112 1.568a168.55 168.55 0 0 1 2.152 3.132c.175.263.351.522.525.782l.242.367a174.786 174.786 0 0 1 3.248 5.109c.477.781.948 1.563 1.405 2.344.204.34.403.68.6 1.024.077.135.155.264.229.4a120.379 120.379 0 0 1 1.509 2.672c.188.34.372.682.558 1.023.37.683.735 1.362 1.088 2.045.178.34.355.681.53 1.021a154.307 154.307 0 0 1 4.037 8.462c5.895 13.395 9.398 26.584 11.093 39.327Z" fill="#fdf0de" fill-rule="evenodd" data-name="Path 1476"/><path d="M952.808 7394.45h5.946v134.636h-5.946V7394.45z" fill="#fff" fill-rule="evenodd" data-name="Rectangle 158"/></g><g data-name="Group 1373"><g data-name="Group 1366"><path d="m1234.975 7436.276-1.029-.793c.442-.573.88-1.15 1.31-1.731l1.043.774c-.435.589-.878 1.17-1.324 1.75Z" fill="#3d3c3b" fill-rule="evenodd" data-name="Path 1477"/><path d="m1232.513 7439.352-1-.831c.462-.557.92-1.117 1.37-1.683l1.017.811c-.457.57-.92 1.138-1.387 1.703Z" fill="#3d3c3b" fill-rule="evenodd" data-name="Path 1478"/><path d="m1229.934 7442.318-.958-.876c.484-.532.962-1.072 1.434-1.62l.984.85a77.307 77.307 0 0 1-1.46 1.646Z" fill="#3d3c3b" fill-rule="evenodd" data-name="Path 1479"/><path d="m1241.696 7426.548-1.107-.678.565-.927.55-.935 1.121.656-.557.947-.572.937Z" fill="#3d3c3b" fill-rule="evenodd" data-name="Path 1480"/><path d="m1239.574 7429.866-1.081-.719c.202-.3.4-.603.595-.906.196-.305.398-.605.59-.912l1.095.699c-.194.308-.397.613-.595.92-.199.309-.399.616-.604.918Z" fill="#3d3c3b" fill-rule="evenodd" data-name="Path 1481"/><path d="m1237.344 7433.096-1.057-.757c.42-.591.84-1.179 1.247-1.777l1.071.737c-.413.605-.838 1.2-1.261 1.797Z" fill="#3d3c3b" fill-rule="evenodd" data-name="Path 1482"/><path d="m1247.26 7416.107-1.183-.534.443-.988.42-.997 1.198.503-.427 1.013-.45 1.003Z" fill="#3d3c3b" fill-rule="evenodd" data-name="Path 1483"/><path d="m1245.558 7419.663-1.158-.588c.318-.648.651-1.289.954-1.944l1.172.559c-.306.665-.644 1.316-.968 1.973Z" fill="#3d3c3b" fill-rule="evenodd" data-name="Path 1484"/><path d="m1243.706 7423.128-1.133-.636c.18-.313.352-.631.524-.949l.517-.953 1.147.61-.523.966c-.175.321-.35.643-.532.962Z" fill="#3d3c3b" fill-rule="evenodd" data-name="Path 1485"/><path d="m1251.28 7404.966-1.256-.333.262-1.046c.084-.35.18-.696.251-1.048l1.267.287c-.072.36-.17.714-.256 1.072l-.268 1.068Z" fill="#3d3c3b" fill-rule="evenodd" data-name="Path 1486"/><path d="m1250.147 7408.75-1.234-.409c.12-.34.223-.685.33-1.029l.32-1.03 1.246.367-.326 1.052c-.11.35-.214.703-.336 1.049Z" fill="#3d3c3b" fill-rule="evenodd" data-name="Path 1487"/><path d="m1248.806 7412.448-1.21-.475c.273-.668.512-1.347.763-2.023l1.223.439c-.255.687-.499 1.38-.776 2.059Z" fill="#3d3c3b" fill-rule="evenodd" data-name="Path 1488"/><path d="m1253.098 7393.248-1.299-.05.038-1.074-.004-1.073 1.299-.011.004 1.104-.038 1.104Z" fill="#3d3c3b" fill-rule="evenodd" data-name="Path 1489"/><path d="m1252.784 7397.193-1.29-.154.119-1.069c.044-.356.058-.714.089-1.07l1.295.097c-.032.366-.046.735-.09 1.1l-.123 1.096Z" fill="#3d3c3b" fill-rule="evenodd" data-name="Path 1490"/><path d="m1252.171 7401.087-1.275-.248.193-1.06c.032-.177.067-.352.096-.53l.078-.532 1.284.198-.08.545c-.028.182-.065.362-.097.543l-.199 1.084Z" fill="#3d3c3b" fill-rule="evenodd" data-name="Path 1491"/><path d="m1251.97 7381.433-1.263.304-.12-.52-.145-.516-.29-1.03 1.245-.374.3 1.065.148.532.125.539Z" fill="#3d3c3b" fill-rule="evenodd" data-name="Path 1492"/><path d="m1252.712 7385.328-1.286.181c-.081-.71-.232-1.409-.354-2.112l1.275-.25c.127.726.282 1.447.365 2.18Z" fill="#3d3c3b" fill-rule="evenodd" data-name="Path 1493"/><path d="m1253.082 7389.26-1.298.062-.025-.535-.012-.268-.023-.267-.096-1.067 1.293-.129.099 1.101.024.275.012.276.026.552Z" fill="#3d3c3b" fill-rule="evenodd" data-name="Path 1494"/><path d="m1247.53 7370.424-1.124.653-.268-.464c-.088-.155-.176-.31-.276-.46l-.58-.901 1.088-.71.599.93c.102.154.193.314.284.474l.276.478Z" fill="#3d3c3b" fill-rule="evenodd" data-name="Path 1495"/><path d="m1249.361 7373.939-1.18.545-.22-.489c-.075-.162-.16-.318-.24-.478l-.488-.954 1.15-.606.503.984c.082.165.171.326.248.494l.227.504Z" fill="#3d3c3b" fill-rule="evenodd" data-name="Path 1496"/><path d="m1250.843 7377.602-1.226.428-.173-.507-.194-.498-.391-.998 1.202-.494.403 1.03.202.515.177.524Z" fill="#3d3c3b" fill-rule="evenodd" data-name="Path 1497"/><path d="m1240.306 7361.014-.93.907-.372-.389-.389-.374-.776-.747.895-.942.793.764.398.382.381.399Z" fill="#3d3c3b" fill-rule="evenodd" data-name="Path 1498"/><path d="m1242.963 7363.944-.996.835c-.472-.54-.934-1.088-1.415-1.62l.96-.876c.493.545.967 1.108 1.451 1.66Z" fill="#3d3c3b" fill-rule="evenodd" data-name="Path 1499"/><path d="m1245.37 7367.07-1.061.75-.624-.872c-.101-.148-.213-.287-.324-.428l-.333-.422 1.025-.799.342.434c.113.144.228.287.333.439l.642.899Z" fill="#3d3c3b" fill-rule="evenodd" data-name="Path 1500"/><path d="m1231.248 7353.37-.74 1.068c-.292-.203-.583-.408-.886-.595-.302-.189-.598-.388-.903-.57l.672-1.11c.318.187.625.393.937.59.314.194.616.406.92.616Z" fill="#3d3c3b" fill-rule="evenodd" data-name="Path 1501"/><path d="m1234.416 7355.73-.806 1.019c-.275-.232-.566-.444-.854-.66l-.865-.649.774-1.043.88.66c.294.22.59.437.871.673Z" fill="#3d3c3b" fill-rule="evenodd" data-name="Path 1502"/><path d="m1237.427 7358.266-.866.968-.808-.714-.405-.357-.418-.341.832-.998.427.348.412.364.826.73Z" fill="#3d3c3b" fill-rule="evenodd" data-name="Path 1503"/><path d="m1220.47 7348.373-.328 1.257-.514-.136-.521-.115c-.346-.076-.692-.16-1.043-.218l.245-1.277c.364.061.724.147 1.085.227l.54.121.537.14Z" fill="#3d3c3b" fill-rule="evenodd" data-name="Path 1504"/><path d="m1224.248 7349.607-.477 1.209c-.331-.129-.659-.264-.996-.375-.337-.114-.668-.241-1.008-.343l.394-1.238c.354.106.7.238 1.05.357.35.115.693.257 1.037.39Z" fill="#3d3c3b" fill-rule="evenodd" data-name="Path 1505"/><path d="m1227.84 7351.279-.617 1.144a33.434 33.434 0 0 0-1.906-.953l.54-1.182c.668.316 1.335.634 1.983.99Z" fill="#3d3c3b" fill-rule="evenodd" data-name="Path 1506"/><path d="m1208.639 7347.34.085 1.297-1.07.086c-.357.026-.713.074-1.068.11l-.147-1.292c.366-.036.731-.084 1.098-.113l1.102-.087Z" fill="#3d3c3b" fill-rule="evenodd" data-name="Path 1507"/><path d="m1212.602 7347.266-.037 1.299a39.685 39.685 0 0 0-2.142-.001l-.032-1.299a40.73 40.73 0 0 1 2.211.001Z" fill="#3d3c3b" fill-rule="evenodd" data-name="Path 1508"/><path d="m1216.546 7347.594-.179 1.287c-.351-.057-.705-.087-1.059-.129-.177-.018-.353-.04-.53-.056l-.534-.04.1-1.296.551.042c.184.016.367.04.55.058.368.043.736.075 1.1.134Z" fill="#3d3c3b" fill-rule="evenodd" data-name="Path 1509"/><path d="m1196.972 7349.44.347 1.253c-.693.197-1.388.393-2.077.61l-.381-1.243c.7-.22 1.405-.418 2.11-.62Z" fill="#3d3c3b" fill-rule="evenodd" data-name="Path 1510"/><path d="m1200.8 7348.484.278 1.27c-.701.16-1.403.319-2.1.5l-.32-1.26c.71-.185 1.427-.346 2.142-.51Z" fill="#3d3c3b" fill-rule="evenodd" data-name="Path 1511"/><path d="m1204.676 7347.77.191 1.285-1.064.17c-.353.058-.705.128-1.06.192l-.24-1.277c.361-.064.721-.137 1.084-.195l1.089-.175Z" fill="#3d3c3b" fill-rule="evenodd" data-name="Path 1512"/><path d="m1185.795 7353.308.484 1.206c-.671.272-1.343.545-2.012.827l-.5-1.2c.673-.282 1.35-.558 2.028-.833Z" fill="#3d3c3b" fill-rule="evenodd" data-name="Path 1513"/><path d="m1189.466 7351.89.45 1.22c-.68.248-1.356.51-2.032.768l-.47-1.21c.682-.262 1.365-.527 2.052-.777Z" fill="#3d3c3b" fill-rule="evenodd" data-name="Path 1514"/><path d="m1193.172 7350.596.405 1.235c-.344.11-.685.228-1.027.344-.343.117-.686.23-1.026.354l-.431-1.225c.344-.125.692-.24 1.037-.36.347-.117.693-.236 1.042-.348Z" fill="#3d3c3b" fill-rule="evenodd" data-name="Path 1515"/><path d="m1174.98 7358.037.545 1.18-1.979.921-.55-1.176 1.984-.925Z" fill="#3d3c3b" fill-rule="evenodd" data-name="Path 1516"/><path d="m1178.554 7356.406.53 1.185-1.985.901-.542-1.181 1.997-.905Z" fill="#3d3c3b" fill-rule="evenodd" data-name="Path 1517"/><path d="m1182.138 7354.83.513 1.195c-.667.285-1.333.576-1.999.868l-.522-1.188c.667-.295 1.337-.588 2.008-.874Z" fill="#3d3c3b" fill-rule="evenodd" data-name="Path 1518"/><path d="m1164.325 7363.077.558 1.173-1.977.938-.556-1.174 1.975-.937Z" fill="#3d3c3b" fill-rule="evenodd" data-name="Path 1519"/><path d="m1167.866 7361.39.558 1.173-1.974.94-.559-1.172 1.975-.94Z" fill="#3d3c3b" fill-rule="evenodd" data-name="Path 1520"/><path d="m1171.4 7359.713.555 1.175-1.976.936-.557-1.174 1.978-.937Z" fill="#3d3c3b" fill-rule="evenodd" data-name="Path 1521"/><path d="m1153.651 7368.039.532 1.185-2.005.89-.523-1.19 1.996-.885Z" fill="#3d3c3b" fill-rule="evenodd" data-name="Path 1522"/><path d="m1157.217 7366.417.545 1.18-1.993.911-.539-1.183 1.987-.908Z" fill="#3d3c3b" fill-rule="evenodd" data-name="Path 1523"/><path d="m1160.756 7364.766.552 1.176-1.981.929-.55-1.178 1.98-.927Z" fill="#3d3c3b" fill-rule="evenodd" data-name="Path 1524"/><path d="m1142.807 7372.578.467 1.213c-.682.266-1.372.517-2.058.775l-.449-1.219c.682-.256 1.364-.505 2.04-.77Z" fill="#3d3c3b" fill-rule="evenodd" data-name="Path 1525"/><path d="m1146.445 7371.135.492 1.203c-.678.278-1.358.551-2.039.82l-.478-1.209a141.49 141.49 0 0 0 2.025-.814Z" fill="#3d3c3b" fill-rule="evenodd" data-name="Path 1526"/><path d="m1150.042 7369.626.513 1.193c-.674.287-1.345.576-2.02.857l-.503-1.198c.67-.28 1.34-.567 2.01-.852Z" fill="#3d3c3b" fill-rule="evenodd" data-name="Path 1527"/><path d="m1131.687 7376.327.356 1.25c-.71.196-1.415.398-2.127.58l-.33-1.256c.703-.18 1.4-.38 2.1-.574Z" fill="#3d3c3b" fill-rule="evenodd" data-name="Path 1528"/><path d="m1135.424 7375.19.398 1.238c-.697.228-1.4.441-2.103.657l-.374-1.245c.694-.213 1.39-.423 2.079-.65Z" fill="#3d3c3b" fill-rule="evenodd" data-name="Path 1529"/><path d="m1139.115 7373.943.433 1.225c-.692.241-1.383.488-2.078.718l-.415-1.232c.689-.227 1.374-.472 2.06-.71Z" fill="#3d3c3b" fill-rule="evenodd" data-name="Path 1530"/><path d="m1120.247 7378.852.194 1.285-1.093.16c-.365.05-.732.093-1.097.14l-.157-1.29c.358-.046.718-.087 1.077-.137l1.076-.158Z" fill="#3d3c3b" fill-rule="evenodd" data-name="Path 1531"/><path d="m1124.087 7378.177.255 1.273c-.36.078-.723.14-1.085.209-.36.066-.722.14-1.086.197l-.221-1.28c.357-.057.713-.13 1.07-.194.356-.068.713-.13 1.067-.205Z" fill="#3d3c3b" fill-rule="evenodd" data-name="Path 1532"/><path d="m1127.885 7377.332.308 1.262-1.072.258-1.078.241-.278-1.269 1.062-.237 1.058-.255Z" fill="#3d3c3b" fill-rule="evenodd" data-name="Path 1533"/><path d="m1108.585 7379.679-.019 1.3c-.739-.002-1.478-.041-2.215-.067l.063-1.298c.724.025 1.446.064 2.17.065Z" fill="#3d3c3b" fill-rule="evenodd" data-name="Path 1534"/><path d="m1112.478 7379.622.056 1.299c-.737.025-1.474.058-2.212.06l-.016-1.3c.724 0 1.448-.033 2.172-.059Z" fill="#3d3c3b" fill-rule="evenodd" data-name="Path 1535"/><path d="m1116.35 7379.342.13 1.293c-.367.04-.734.072-1.101.1l-1.103.088-.09-1.297 1.083-.085c.36-.028.724-.06 1.081-.1Z" fill="#3d3c3b" fill-rule="evenodd" data-name="Path 1536"/><path d="m1096.976 7378.417-.264 1.271c-.362-.069-.722-.153-1.083-.236l-1.08-.25.311-1.262 1.056.245c.352.082.705.164 1.06.232Z" fill="#3d3c3b" fill-rule="evenodd" data-name="Path 1537"/><path d="m1100.81 7379.083-.181 1.286-1.097-.16-1.092-.188.229-1.28 1.068.185 1.073.157Z" fill="#3d3c3b" fill-rule="evenodd" data-name="Path 1538"/><path d="m1104.666 7379.507-.098 1.295-1.104-.099-.553-.05-.549-.063.144-1.292.54.063.54.048 1.08.098Z" fill="#3d3c3b" fill-rule="evenodd" data-name="Path 1539"/><path d="m1085.829 7374.947-.501 1.2c-.685-.277-1.356-.585-2.03-.888l.541-1.18c.66.296 1.32.598 1.99.868Z" fill="#3d3c3b" fill-rule="evenodd" data-name="Path 1540"/><path d="m1089.465 7376.339-.426 1.227-1.046-.368-1.035-.395.47-1.212 1.013.387 1.024.36Z" fill="#3d3c3b" fill-rule="evenodd" data-name="Path 1541"/><path d="m1093.167 7377.496-.346 1.253-1.066-.31-.53-.155-.53-.17.392-1.238.517.166.52.152 1.043.302Z" fill="#3d3c3b" fill-rule="evenodd" data-name="Path 1542"/><path d="m1075.477 7369.52-.697 1.098c-.315-.193-.62-.396-.927-.6l-.923-.61.726-1.077.906.6c.302.2.605.4.915.589Z" fill="#3d3c3b" fill-rule="evenodd" data-name="Path 1543"/><path d="m1078.82 7371.52-.635 1.132c-.325-.175-.643-.363-.961-.55l-.953-.56.671-1.113.936.55c.313.184.624.37.943.54Z" fill="#3d3c3b" fill-rule="evenodd" data-name="Path 1544"/><path d="m1082.257 7373.327-.573 1.166-.496-.24-.492-.254-.983-.51.608-1.147.965.499.482.25.49.236Z" fill="#3d3c3b" fill-rule="evenodd" data-name="Path 1545"/><path d="m1066.062 7362.56-.84.99c-.56-.476-1.122-.95-1.667-1.443l.861-.973c.537.488 1.093.954 1.646 1.425Z" fill="#3d3c3b" fill-rule="evenodd" data-name="Path 1546"/><path d="m1069.09 7365.018-.795 1.026c-.29-.227-.586-.446-.872-.68l-.855-.695.822-1.006.843.685c.281.23.572.447.858.67Z" fill="#3d3c3b" fill-rule="evenodd" data-name="Path 1547"/><path d="m1072.214 7367.334-.75 1.062-.453-.316-.445-.327-.89-.654.778-1.042.875.644.44.322.445.311Z" fill="#3d3c3b" fill-rule="evenodd" data-name="Path 1548"/><path d="m1057.554 7354.489-.941.895c-.503-.534-1.015-1.062-1.503-1.609l.957-.878c.484.541.99 1.063 1.487 1.592Z" fill="#3d3c3b" fill-rule="evenodd" data-name="Path 1549"/><path d="m1060.29 7357.278-.912.925a35.073 35.073 0 0 1-.78-.776l-.773-.785.929-.908.765.776c.254.259.509.517.771.768Z" fill="#3d3c3b" fill-rule="evenodd" data-name="Path 1550"/><path d="m1063.11 7359.961-.878.958c-.535-.502-1.077-1-1.609-1.505l.897-.94c.527.5 1.06.991 1.59 1.487Z" fill="#3d3c3b" fill-rule="evenodd" data-name="Path 1551"/><path d="m1049.85 7345.632-1.016.813c-.458-.572-.905-1.152-1.359-1.728l1.026-.798c.449.57.895 1.147 1.348 1.713Z" fill="#3d3c3b" fill-rule="evenodd" data-name="Path 1552"/><path d="m1052.334 7348.65-.992.84c-.471-.562-.949-1.118-1.406-1.69l1.005-.825c.454.569.926 1.12 1.393 1.676Z" fill="#3d3c3b" fill-rule="evenodd" data-name="Path 1553"/><path d="m1054.885 7351.597-.97.866-1.45-1.655.984-.85 1.436 1.639Z" fill="#3d3c3b" fill-rule="evenodd" data-name="Path 1554"/><path d="m1042.831 7336.21-1.068.743-1.24-1.813 1.076-.73 1.232 1.8Z" fill="#3d3c3b" fill-rule="evenodd" data-name="Path 1555"/><path d="m1045.102 7339.397-1.05.764c-.217-.296-.436-.59-.647-.888l-.634-.897 1.06-.751.629.89c.21.297.429.588.642.882Z" fill="#3d3c3b" fill-rule="evenodd" data-name="Path 1556"/><path d="m1047.43 7342.526-1.035.787c-.44-.585-.888-1.166-1.323-1.756l1.045-.773c.432.585.874 1.16 1.312 1.742Z" fill="#3d3c3b" fill-rule="evenodd" data-name="Path 1557"/><path d="m1039.48 7342.804-3.705-5.54 1.34-2.344s2.807.848 2.85 1.103c.043.255-.214 3.527-.26 4.1l-.225 2.68Z" fill-rule="evenodd" data-name="Path 1558"/><path d="M1021.423 7314.972a.493.493 0 0 1 .536-.039l28.35 15.808a.492.492 0 0 1-.103.9l-5.797 1.661c-.452.13-.817.47-.978.91l-3.097 8.464a.49.49 0 0 1-.924-.005l-1.967-5.547a.487.487 0 0 0-.764-.223l-7.96 6.208a.493.493 0 0 1-.379.098l-.085-.021a.494.494 0 0 1-.316-.347l-6.696-27.36a.49.49 0 0 1 .18-.507Z" fill="#3aa5a9" fill-rule="evenodd" data-name="Path 1559"/><path d="m1021.659 7314.878 22.252 18.689a1.474 1.474 0 0 0-.48.645l-3.097 8.464a.49.49 0 0 1-.924-.005l-1.966-5.547-.065-.1v-.022l-15.952-22.033a.483.483 0 0 1 .232-.09Z" fill="#177772" fill-rule="evenodd" data-name="Path 1560"/></g><g data-name="Group 1371"><g data-name="Group 1370"><g data-name="Group 1367"><path d="M972.143 7437.002a1.066 1.066 0 0 1-1.064-1.066v-7.517a1.065 1.065 0 0 1 2.13 0v7.517c0 .588-.479 1.066-1.066 1.066Z" fill="#fdd9a3" fill-rule="evenodd" data-name="Path 1561"/><path d="M975.904 7433.243h-7.52a1.065 1.065 0 1 1 0-2.13h7.52a1.066 1.066 0 0 1 0 2.13Z" fill="#fdd9a3" fill-rule="evenodd" data-name="Path 1562"/></g><g data-name="Group 1368"><path d="M1267.935 7482.066a1.066 1.066 0 0 1-1.064-1.065v-7.517a1.065 1.065 0 0 1 2.13 0V7481c0 .587-.48 1.065-1.066 1.065Z" fill="#fcfcfc" fill-rule="evenodd" data-name="Path 1563"/><path d="M1271.696 7478.307h-7.519a1.065 1.065 0 1 1 0-2.13h7.519a1.066 1.066 0 0 1 0 2.13Z" fill="#fcfcfc" fill-rule="evenodd" data-name="Path 1564"/></g><g data-name="Group 1369"><path d="M757.655 7362.409a1.488 1.488 0 0 1-2.101-.029l-7.32-7.51a1.486 1.486 0 0 1 2.128-2.074l7.32 7.51a1.49 1.49 0 0 1-.027 2.103Z" fill="#25837e" fill-rule="evenodd" data-name="Path 1565"/><path d="m757.752 7354.99-7.512 7.321a1.486 1.486 0 1 1-2.074-2.128l7.512-7.321a1.484 1.484 0 0 1 2.1.027c.572.587.56 1.53-.026 2.101Z" fill="#25837e" fill-rule="evenodd" data-name="Path 1566"/></g></g><path d="m593.805 7615.292-.655-1.122.464-.268c.155-.09.31-.177.459-.277l.9-.583.711 1.088-.929.6c-.152.102-.313.194-.472.285l-.478.277Z" fill="#3d3c3b" fill-rule="evenodd" data-name="Path 1567"/><path d="m603.202 7608.052-.909-.929.389-.372.373-.389.746-.778.943.894-.763.795-.381.397-.398.382Z" fill="#3d3c3b" fill-rule="evenodd" data-name="Path 1568"/><path d="m600.277 7610.715-.837-.994c.539-.474 1.086-.936 1.617-1.418l.879.957c-.545.495-1.107.97-1.659 1.455Z" fill="#3d3c3b" fill-rule="evenodd" data-name="Path 1569"/><path d="m597.155 7613.127-.753-1.06.872-.625c.148-.101.287-.214.428-.325l.42-.333.802 1.023-.433.342c-.144.114-.287.23-.439.335l-.897.643Z" fill="#3d3c3b" fill-rule="evenodd" data-name="Path 1570"/><path d="m610.83 7598.98-1.07-.736c.203-.293.407-.585.593-.888.189-.302.387-.598.568-.905l1.113.671c-.188.318-.393.625-.59.938-.193.315-.404.616-.614.92Z" fill="#3d3c3b" fill-rule="evenodd" data-name="Path 1571"/><path d="m608.475 7602.153-1.02-.805c.231-.274.443-.566.659-.855l.646-.866 1.045.772-.658.882c-.219.294-.436.59-.672.872Z" fill="#3d3c3b" fill-rule="evenodd" data-name="Path 1572"/><path d="m605.945 7605.168-.97-.864.712-.81.357-.405.34-.419 1 .83-.347.428-.364.413-.728.827Z" fill="#3d3c3b" fill-rule="evenodd" data-name="Path 1573"/><path d="m615.807 7588.194-1.258-.326.135-.516.115-.52c.075-.346.159-.692.216-1.043l1.277.242c-.06.365-.146.725-.225 1.086l-.12.54-.14.537Z" fill="#3d3c3b" fill-rule="evenodd" data-name="Path 1574"/><path d="m614.58 7591.974-1.21-.475c.128-.331.264-.66.373-.997.114-.336.24-.668.342-1.009l1.238.393c-.105.355-.237.7-.354 1.05-.115.352-.256.694-.39 1.038Z" fill="#3d3c3b" fill-rule="evenodd" data-name="Path 1575"/><path d="m612.915 7595.569-1.146-.615c.344-.622.647-1.265.95-1.908l1.183.538a35.13 35.13 0 0 1-.987 1.985Z" fill="#3d3c3b" fill-rule="evenodd" data-name="Path 1576"/><path d="m616.818 7576.36-1.296.088-.088-1.07c-.027-.357-.075-.712-.112-1.068l1.291-.149c.038.367.086.731.115 1.098l.09 1.101Z" fill="#3d3c3b" fill-rule="evenodd" data-name="Path 1577"/><path d="m616.9 7580.324-1.3-.036c.015-.713.023-1.426-.002-2.14l1.299-.035c.025.736.018 1.474.003 2.21Z" fill="#3d3c3b" fill-rule="evenodd" data-name="Path 1578"/><path d="m616.58 7584.268-1.288-.176c.056-.351.086-.706.127-1.06.017-.176.04-.352.055-.53l.04-.533 1.295.096-.04.552c-.017.184-.04.367-.058.552-.042.366-.073.734-.132 1.099Z" fill="#3d3c3b" fill-rule="evenodd" data-name="Path 1579"/><path d="m614.697 7564.697-1.251.35c-.2-.694-.396-1.387-.614-2.076l1.242-.383c.22.699.42 1.404.623 2.109Z" fill="#3d3c3b" fill-rule="evenodd" data-name="Path 1580"/><path d="m615.66 7568.524-1.269.28c-.162-.701-.32-1.403-.503-2.1l1.259-.32c.186.708.348 1.425.513 2.14Z" fill="#3d3c3b" fill-rule="evenodd" data-name="Path 1581"/><path d="m616.382 7572.398-1.285.193-.173-1.063c-.057-.353-.128-.706-.193-1.06l1.277-.243c.065.362.138.722.197 1.084l.177 1.089Z" fill="#3d3c3b" fill-rule="evenodd" data-name="Path 1582"/><path d="m610.81 7553.527-1.205.487c-.274-.671-.547-1.342-.83-2.01l1.198-.504c.284.673.56 1.35.837 2.027Z" fill="#3d3c3b" fill-rule="evenodd" data-name="Path 1583"/><path d="m612.234 7557.196-1.22.452c-.248-.68-.51-1.355-.771-2.03l1.21-.473c.263.682.529 1.364.78 2.051Z" fill="#3d3c3b" fill-rule="evenodd" data-name="Path 1584"/><path d="m613.535 7560.9-1.234.408c-.11-.345-.229-.686-.346-1.028-.118-.342-.232-.685-.356-1.025l1.224-.434c.126.344.241.692.361 1.037.119.347.239.692.35 1.041Z" fill="#3d3c3b" fill-rule="evenodd" data-name="Path 1585"/><path d="m606.061 7542.72-1.178.549-.926-1.978 1.176-.552.928 1.981Z" fill="#3d3c3b" fill-rule="evenodd" data-name="Path 1586"/><path d="m607.698 7546.291-1.184.533-.904-1.983 1.18-.544.908 1.994Z" fill="#3d3c3b" fill-rule="evenodd" data-name="Path 1587"/><path d="m609.28 7549.874-1.193.514c-.286-.666-.579-1.332-.872-1.997l1.188-.525c.295.668.59 1.336.877 2.008Z" fill="#3d3c3b" fill-rule="evenodd" data-name="Path 1588"/><path d="m601.002 7532.074-1.172.561-.942-1.976 1.173-.557.94 1.972Z" fill="#3d3c3b" fill-rule="evenodd" data-name="Path 1589"/><path d="m602.695 7535.613-1.172.56-.944-1.972 1.172-.56.944 1.972Z" fill="#3d3c3b" fill-rule="evenodd" data-name="Path 1590"/><path d="m604.379 7539.144-1.175.557-.939-1.974 1.173-.56.94 1.977Z" fill="#3d3c3b" fill-rule="evenodd" data-name="Path 1591"/><path d="m596.021 7521.41-1.184.534-.893-2.003 1.189-.526.888 1.995Z" fill="#3d3c3b" fill-rule="evenodd" data-name="Path 1592"/><path d="m597.65 7524.973-1.18.547-.915-1.992 1.182-.54.912 1.985Z" fill="#3d3c3b" fill-rule="evenodd" data-name="Path 1593"/><path d="m599.306 7528.51-1.174.554-.933-1.98 1.177-.551.93 1.977Z" fill="#3d3c3b" fill-rule="evenodd" data-name="Path 1594"/><path d="m591.463 7510.575-1.213.468c-.267-.681-.52-1.37-.78-2.056l1.22-.451c.257.681.507 1.362.773 2.04Z" fill="#3d3c3b" fill-rule="evenodd" data-name="Path 1595"/><path d="m592.912 7514.21-1.202.494a152.42 152.42 0 0 1-.824-2.038l1.208-.48c.267.678.54 1.351.818 2.024Z" fill="#3d3c3b" fill-rule="evenodd" data-name="Path 1596"/><path d="m594.428 7517.804-1.193.515c-.288-.673-.578-1.344-.86-2.019l1.197-.505c.28.67.57 1.34.856 2.009Z" fill="#3d3c3b" fill-rule="evenodd" data-name="Path 1597"/><path d="m587.693 7499.461-1.249.358c-.197-.709-.4-1.413-.585-2.125l1.257-.333c.181.703.382 1.4.577 2.1Z" fill="#3d3c3b" fill-rule="evenodd" data-name="Path 1598"/><path d="m588.836 7503.196-1.236.4c-.23-.697-.444-1.4-.66-2.1l1.243-.378c.214.694.425 1.389.653 2.078Z" fill="#3d3c3b" fill-rule="evenodd" data-name="Path 1599"/><path d="m590.09 7506.885-1.224.435c-.242-.692-.49-1.382-.72-2.077l1.23-.418c.229.69.474 1.374.714 2.06Z" fill="#3d3c3b" fill-rule="evenodd" data-name="Path 1600"/><path d="m585.147 7488.025-1.284.197-.162-1.093c-.051-.364-.094-.731-.142-1.097l1.29-.16c.047.358.088.72.14 1.078l.158 1.075Z" fill="#3d3c3b" fill-rule="evenodd" data-name="Path 1601"/><path d="m585.83 7491.865-1.273.257c-.078-.36-.141-.722-.21-1.085-.067-.36-.142-.721-.2-1.085l1.28-.225c.057.358.13.715.196 1.07.068.357.13.715.207 1.068Z" fill="#3d3c3b" fill-rule="evenodd" data-name="Path 1602"/><path d="m586.681 7495.66-1.261.312-.26-1.072-.243-1.078 1.269-.28.239 1.061.256 1.058Z" fill="#3d3c3b" fill-rule="evenodd" data-name="Path 1603"/><path d="m584.3 7476.364-1.3-.015c0-.74.038-1.478.063-2.215l1.298.06c-.024.724-.061 1.446-.061 2.17Z" fill="#3d3c3b" fill-rule="evenodd" data-name="Path 1604"/><path d="m584.363 7480.258-1.298.06c-.026-.738-.06-1.475-.063-2.213l1.299-.02c.002.726.036 1.45.062 2.173Z" fill="#3d3c3b" fill-rule="evenodd" data-name="Path 1605"/><path d="m584.651 7484.13-1.293.132a34.542 34.542 0 0 1-.103-1.101l-.089-1.103 1.296-.091.088 1.082c.028.36.06.723.101 1.081Z" fill="#3d3c3b" fill-rule="evenodd" data-name="Path 1606"/><path d="m585.541 7464.754-1.272-.262c.068-.362.152-.722.234-1.083l.249-1.081 1.262.309-.243 1.057c-.081.351-.163.705-.23 1.06Z" fill="#3d3c3b" fill-rule="evenodd" data-name="Path 1607"/><path d="m584.882 7468.59-1.287-.18.158-1.097.186-1.092 1.28.226-.182 1.069-.155 1.074Z" fill="#3d3c3b" fill-rule="evenodd" data-name="Path 1608"/><path d="m584.465 7472.447-1.296-.097.097-1.104.05-.553.062-.549 1.292.14-.062.541-.048.54-.095 1.082Z" fill="#3d3c3b" fill-rule="evenodd" data-name="Path 1609"/><path d="m588.99 7453.6-1.2-.498c.275-.686.582-1.357.885-2.032l1.181.54c-.296.66-.597 1.32-.866 1.99Z" fill="#3d3c3b" fill-rule="evenodd" data-name="Path 1610"/><path d="m587.606 7457.239-1.229-.424.367-1.046.393-1.036 1.213.467-.385 1.014-.36 1.025Z" fill="#3d3c3b" fill-rule="evenodd" data-name="Path 1611"/><path d="m586.454 7460.943-1.252-.344.306-1.066.155-.53.169-.53 1.239.39-.165.517-.151.52-.3 1.043Z" fill="#3d3c3b" fill-rule="evenodd" data-name="Path 1612"/><path d="m594.4 7443.238-1.1-.695c.192-.315.395-.62.598-.928l.608-.924 1.079.725-.598.907c-.2.302-.4.605-.588.915Z" fill="#3d3c3b" fill-rule="evenodd" data-name="Path 1613"/><path d="m592.405 7446.586-1.134-.633c.175-.326.363-.644.55-.962l.557-.955 1.115.67-.55.936c-.182.314-.367.624-.538.944Z" fill="#3d3c3b" fill-rule="evenodd" data-name="Path 1614"/><path d="m590.604 7450.026-1.167-.57.24-.497.253-.493.507-.983 1.15.605-.498.967-.25.482-.235.489Z" fill="#3d3c3b" fill-rule="evenodd" data-name="Path 1615"/><path d="m601.343 7433.81-.993-.837c.475-.56.948-1.124 1.44-1.67l.975.86c-.487.537-.952 1.095-1.422 1.648Z" fill="#3d3c3b" fill-rule="evenodd" data-name="Path 1616"/><path d="m598.89 7436.845-1.028-.794c.226-.29.445-.587.678-.873l.693-.857 1.009.82-.684.845c-.23.281-.446.573-.669.859Z" fill="#3d3c3b" fill-rule="evenodd" data-name="Path 1617"/><path d="m596.579 7439.972-1.063-.747.315-.455.327-.446.652-.89 1.043.776-.642.876-.322.44-.31.446Z" fill="#3d3c3b" fill-rule="evenodd" data-name="Path 1618"/><path d="m609.398 7425.288-.897-.939c.534-.503 1.06-1.017 1.606-1.505l.88.955c-.54.485-1.061.992-1.59 1.49Z" fill="#3d3c3b" fill-rule="evenodd" data-name="Path 1619"/><path d="m606.614 7428.03-.928-.91c.254-.266.514-.524.776-.782l.783-.774.91.927-.775.766c-.258.255-.515.51-.766.772Z" fill="#3d3c3b" fill-rule="evenodd" data-name="Path 1620"/><path d="m603.936 7430.854-.96-.876c.501-.536.997-1.078 1.502-1.611l.942.894c-.499.528-.99 1.063-1.484 1.593Z" fill="#3d3c3b" fill-rule="evenodd" data-name="Path 1621"/><path d="m618.24 7417.568-.814-1.013c.571-.46 1.15-.908 1.725-1.362l.8 1.024c-.57.45-1.145.897-1.71 1.351Z" fill="#3d3c3b" fill-rule="evenodd" data-name="Path 1622"/><path d="m615.226 7420.058-.84-.99c.56-.473 1.116-.95 1.688-1.41l.825 1.004c-.567.455-1.117.928-1.673 1.396Z" fill="#3d3c3b" fill-rule="evenodd" data-name="Path 1623"/><path d="m612.285 7422.615-.868-.969 1.652-1.453.852.983-1.636 1.439Z" fill="#3d3c3b" fill-rule="evenodd" data-name="Path 1624"/><path d="m627.65 7410.533-.744-1.066 1.81-1.243.731 1.073-1.798 1.236Z" fill="#3d3c3b" fill-rule="evenodd" data-name="Path 1625"/><path d="m624.467 7412.81-.766-1.05c.296-.216.59-.436.887-.647l.896-.636.753 1.058-.889.631c-.297.21-.587.43-.88.643Z" fill="#3d3c3b" fill-rule="evenodd" data-name="Path 1626"/><path d="m621.343 7415.142-.79-1.033c.585-.44 1.165-.889 1.754-1.325l.775 1.043c-.584.432-1.16.876-1.74 1.315Z" fill="#3d3c3b" fill-rule="evenodd" data-name="Path 1627"/><path d="m630.94 7411.833 5.506-3.756-.368-2.674s-2.921-.262-3.056-.042c-.136.221-1.119 3.352-1.29 3.9l-.792 2.572Z" fill="#25124c" fill-rule="evenodd" data-name="Path 1628"/><path d="M658.086 7392.76a.495.495 0 0 0-.484-.237L625.4 7396.6a.491.491 0 0 0-.24.874l4.756 3.705c.37.289.583.74.567 1.209l-.288 9.008a.491.491 0 0 0 .858.34l3.897-4.41a.488.488 0 0 1 .792.078l5.066 8.733a.495.495 0 0 0 .314.232l.087.012a.493.493 0 0 0 .422-.204l16.431-22.879a.491.491 0 0 0 .024-.537Z" fill="#fdd9a3" fill-rule="evenodd" data-name="Path 1629"/><path d="m657.902 7392.585-27.623 9.024c.135.236.213.501.204.778l-.288 9.008a.49.49 0 0 0 .858.34l3.897-4.41.097-.07.009-.02 23.026-14.48a.482.482 0 0 0-.18-.17Z" fill="#ffc672" fill-rule="evenodd" data-name="Path 1630"/></g><g data-name="Group 1372"><path d="M909.383 7343.717a1.066 1.066 0 0 1-1.064-1.066v-7.518a1.065 1.065 0 0 1 2.13 0v7.518c0 .587-.479 1.066-1.066 1.066Z" fill="#31185e" fill-rule="evenodd" data-name="Path 1631"/><path d="M913.144 7339.957h-7.519a1.065 1.065 0 1 1 0-2.13h7.519a1.066 1.066 0 0 1 0 2.13Z" fill="#31185e" fill-rule="evenodd" data-name="Path 1632"/></g></g><g data-name="Group 1377"><path d="m1235.308 7612.432-12.437-10.223 5.878-6.4 12.65 11.33-5.933 5.905-.158-.612Z" fill="#f8bd8c" fill-rule="evenodd" data-name="Path 1633"/><path d="m1245.285 7605.886-5.133-1.635a1.508 1.508 0 0 0-1.85.911c-.71 1.916-2.394 5.234-5.69 5.85-.614.113-1.074.626-1.16 1.244l-2.268 16.498c-.077.56.167 1.114.631 1.435l.007.004c.679.47 1.61.301 2.082-.378l14.733-21.252c.47-.68.302-1.613-.38-2.084l-.575-.398a1.497 1.497 0 0 0-.397-.195Z" fill="#1d2433" fill-rule="evenodd" data-name="Path 1634"/><path d="M1215.994 7507.967s-8.634 54.908-7.625 57.2l26.81 31.806-9.233 12.39-31.322-29.658c-12.802-10.494-1.313-72.3-1.313-72.3l22.683.562Z" fill="#1d2433" fill-rule="evenodd" data-name="Path 1635"/><path d="m1204.9 7641.361 1.222-16.054 8.615 1.135-2.004 16.862-8.242-1.462.409-.481Z" fill="#f8bd8c" fill-rule="evenodd" data-name="Path 1636"/><path d="m1215.991 7645.765-1.606-5.126a1.497 1.497 0 0 0-1.805-1.006c-1.97.52-5.653 1.05-8.054-1.285a1.482 1.482 0 0 0-1.71-.237l-14.79 7.615a1.502 1.502 0 0 0 .696 2.836l25.85-.152a1.501 1.501 0 0 0 1.493-1.511l-.004-.695a1.52 1.52 0 0 0-.07-.44Z" fill="#1d2433" fill-rule="evenodd" data-name="Path 1637"/><path d="M1218.725 7508.904s9.228 14.125 7.873 32.844l-10.221 91.512-13.398-1.274.153-126.72 15.593 3.638Z" fill="#1d2433" fill-rule="evenodd" data-name="Path 1638"/><g data-name="Group 1374"><path d="M1202.979 7533.55a.144.144 0 0 1-.113-.056c-1.067-1.373-2.432-2.536-3.752-3.66-.794-.676-1.615-1.375-2.365-2.114a.142.142 0 0 1 0-.202.142.142 0 0 1 .2-.001c.743.732 1.56 1.428 2.35 2.1 1.33 1.134 2.707 2.306 3.792 3.702a.142.142 0 0 1-.025.2.14.14 0 0 1-.087.03Z" fill="#232729" fill-rule="evenodd" data-name="Path 1639"/></g><path d="M1217.962 7441.145s.618 4.183 1.825 8.806c1.203 4.606 4.109 20.02 3.469 24.064l-32.376-1.251s-.668-16.74.179-20.903c1.036-5.1 1.036-10.566 1.036-10.566l25.867-.15Z" fill="#090329" fill-rule="evenodd" data-name="Path 1640"/><path d="m1200.368 7457.828.537 9.79c.182 2.968 2.108 4.442 5.027 4.239 2.492-.174 4.744-1.622 4.88-4.116l-1.484-14.597-8.96 4.684Z" fill="#f8bd8c" fill-rule="evenodd" data-name="Path 1641"/><path d="m1200.737 7464.87 9.223-8.034-9.665.126.442 7.908Z" fill="#eab186" fill-rule="evenodd" data-name="Path 1642"/><path d="M1203.043 7460.58c-4.608.015-8.414-3.614-8.552-7.377l-.271-8.882c-.174-4.716 2.835-8.72 7.543-9.047 4.82-.335 10.437 3.242 10.772 8.062l.141 7.146c.11 5.525-4.745 9.06-9.633 10.099Z" fill="#f8bd8c" fill-rule="evenodd" data-name="Path 1643"/><g data-name="Group 1375"><path d="M1200.585 7451.396h-.005l-.889-.054a.474.474 0 0 1-.35-.199.736.736 0 0 1-.122-.601l.358-1.62a.075.075 0 1 1 .146.032l-.358 1.62a.598.598 0 0 0 .094.48.33.33 0 0 0 .24.14l.89.052a.074.074 0 0 1 .07.08.074.074 0 0 1-.074.07Z" fill="#090329" fill-rule="evenodd" data-name="Path 1644"/></g><path d="M1205.195 7444.566s-2.1-.193-2.13.66c0 0-.005.582 1.829.715 1.833.132 2.311.004 2.484-.539.173-.542-1.196-.821-2.183-.836Z" fill="#090329" fill-rule="evenodd" data-name="Path 1645"/><path d="M1196.222 7444.705s1.737-.161 1.87.643c0 0 .078.546-1.443.654-1.521.107-2.013-.09-2.152-.531-.158-.5.899-.76 1.725-.766Z" fill="#090329" fill-rule="evenodd" data-name="Path 1646"/><g data-name="Group 1376"><path d="M1200.621 7455.536c-.67 0-1.305-.262-1.893-.781a.142.142 0 1 1 .188-.214c.618.545 1.287.779 1.992.693.396-.049 1.349-.253 1.634-1.098a.143.143 0 0 1 .18-.09.141.141 0 0 1 .09.181c-.235.692-.933 1.174-1.87 1.29-.107.012-.215.019-.32.019Z" fill="#090329" fill-rule="evenodd" data-name="Path 1647"/></g><path d="M1213.167 7451.069s-4.283-5.48-3.672-12.224c0 0 8.263.967 7.143 2.185-1.122 1.217-3.157 7.702-3.157 7.702l-.314 2.337Z" fill="#090329" fill-rule="evenodd" data-name="Path 1648"/><path d="M1210.812 7444.957s-5.459-2.624-18.716-3.662c0 0 .276-9.171 10.846-10.132 11.42-1.039 17.14 6.826 14.433 15.572l-4.964 1.304-1.236-8.484-.363 5.402Z" fill="#090329" fill-rule="evenodd" data-name="Path 1649"/><path d="M1215.082 7449.346a2.418 2.418 0 1 1-4.825.337 2.418 2.418 0 0 1 4.825-.337Z" fill="#f8bd8c" fill-rule="evenodd" data-name="Path 1650"/><path d="M1197.708 7449.346a2.42 2.42 0 1 1-4.826.334 2.42 2.42 0 0 1 4.826-.334Z" fill="#f8bd8c" fill-rule="evenodd" data-name="Path 1651"/><path d="M1197.182 7448.184a.898.898 0 1 1-1.79.126.898.898 0 0 1 1.79-.126Z" fill="#090329" fill-rule="evenodd" data-name="Path 1652"/><path d="M1204.47 7447.976a.898.898 0 1 1-1.79.125.898.898 0 0 1 1.79-.125Z" fill="#090329" fill-rule="evenodd" data-name="Path 1653"/><path d="m1166.388 7495.914-2.085 2.77c-.038.052-.483-.061-.92-.182-.388-.107-.767-.223-.853-.244-.571-.14-1.14-.282-1.71-.427-.577-.145-1.148-.292-1.723-.44a281.86 281.86 0 0 1-5.264-1.423c-1.14-.319-2.28-.652-3.469-.776a2.398 2.398 0 0 1-.498-.096c-.078-.028-.153-.067-.231-.092-.067-.019-.135-.032-.19-.083-.076-.067-.082-.166-.079-.26.006-.21.086-.341.285-.408.708-.242 1.5-.24 2.238-.217.395.01.787.034 1.182.04.145.002.338.008.532.002h.002c.29-.01.577-.048.68-.156.27-.155-.86-.424-2.03-.657-.607-.124-1.227-.236-1.662-.32-.638-.12-1.621-.155-2.26-.27-.437-.081-.687-.081-.814-.535-.196-.695.21-.9.932-.915l.413-.006 5.702-.07-5.94-2.858c-.468-.247-.747-.454-.573-.95.21-.594.71-.446 1.278-.186 1.756.806 5.294 1.88 5.73 1.817.442-.064-2.463-2.045-3.914-3.014a.895.895 0 0 1-.218-1.283c.281-.376 1.202.096 1.597.354l9.11 4.988-.856-2.827 2.631 1.586c1.823 2.889 2.593 4.634 2.894 5.675.349 1.195.083 1.463.083 1.463Z" fill="#f8bd8c" fill-rule="evenodd" data-name="Path 1654"/><path d="M1202.448 7475.132s-2.628 16.921-7.58 30.458c-1.272 3.48-5.05 5.348-8.57 4.19-3.209-1.055-3.319-5.055-2.756-8.385l5.169-25.779 13.737-.484Z" fill="#f5d871" fill-rule="evenodd" data-name="Path 1655"/><path d="m1192.685 7497.415-29.555-6.209-.73 7.484 24.091 11.1 6.194-12.375Z" fill="#f5d871" fill-rule="evenodd" data-name="Path 1656"/><path d="M1213.297 7467.934s2.62-.127 10.852 5.008l-5.424 35.962-25.86-.432-4.01-30.33a4.933 4.933 0 0 1 2.025-5.378l6.174-3.403 4.37-2.295h2.948l3.863-.376 5.062 1.244Z" fill="#fbe080" fill-rule="evenodd" data-name="Path 1657"/><path d="M1225.963 7486.08c0 12.94-1.645 23.71-5.302 23.71-6.622 0-6.622-10.49-6.622-23.432 0-12.94 2.964-14.483 6.622-14.483 3.657 0 5.302 1.263 5.302 14.204Z" fill="#f5d871" fill-rule="evenodd" data-name="Path 1658"/><path d="M1196.784 7495.691s.776-1.029-4.36-6.803c-.331-.374-.778-1.649-1.116-1.28-.289.314-.366.77-.198 1.163l1.226 2.695-7.852-3.027c-.345-.163-1.133-.444-1.32-.111a.725.725 0 0 0 .312 1.006c1.27.622 3.816 1.902 3.466 2-.341.096-3.297-.387-4.794-.844-.485-.149-.903-.213-1.007.285-.088.42.16.555.56.703l5.08 1.658-4.903.717c-.578.09-.883.297-.651.835.15.35.35.324.712.34.526.026 1.318-.051 1.844-.023 1.05.058 3.374.153 3.069.388-.118.165-.668.219-.959.253-.317.038-.635.061-.952.094-.595.062-1.232.146-1.774.415-.153.076-.203.19-.186.358.007.077.022.156.092.202.05.035.104.037.162.047.065.01.128.035.193.047.136.025.276.03.413.025.968-.03 1.917.116 2.868.25a220.964 220.964 0 0 0 7.23.904c.152.017 1.422.237 1.47.153l1.375-2.45Z" fill="#f8bd8c" fill-rule="evenodd" data-name="Path 1659"/><path d="m1225.103 7497.415-29.554-6.209-.732 7.484 24.868 11.014 5.418-12.29Z" fill="#f5d871" fill-rule="evenodd" data-name="Path 1660"/><path d="m1209.906 7466.56 6.348 2.188s-4.357 6.453-12.42 5.78c-7.27-.608-7.64-4.692-7.64-4.692l5.229-2.77 8.483-.507Z" fill="#f8bd8c" fill-rule="evenodd" data-name="Path 1661"/><path d="m1167.808 7492.368-1.503 2.084-2.923 4.05-.266.371c-.263.362-.806.456-1.213.21l-2.806-1.692-5.492-3.312h-.002l-1.349-.814-3.39-2.045-4.528-2.73c-.409-.247-.53-.741-.269-1.101l4.695-6.508c.26-.359.803-.453 1.214-.206l10.804 6.515 2.631 1.587 4.129 2.491c.41.247.529.74.268 1.1Z" fill="#090329" fill-rule="evenodd" data-name="Path 1662"/><path d="m1161.998 7487.917-2.632-1.585-.689.134a1.346 1.346 0 0 0-1.027 1.034c-.13.603 1.472.136 2.085.204.821.089 1.572.16 2.263.213Z" fill="#f8bd8c" fill-rule="evenodd" data-name="Path 1663"/></g><g data-name="Group 1380"><path d="m1080.323 7634.734-1.222-16.064-8.622 1.135 2.007 16.873 8.247-1.463-.41-.48Z" fill="#f8bd8c" fill-rule="evenodd" data-name="Path 1664"/><path d="m1109.147 7636.086-1.222-16.064-8.622 1.135 2.007 16.873 8.246-1.463-.409-.481Z" fill="#f8bd8c" fill-rule="evenodd" data-name="Path 1665"/><path d="m1097.997 7643.465 1.714-6.444c.256-.957 1.06-1.508 1.827-1.239 1.96.688 5.635 1.42 8.086-1.488.463-.55 1.159-.646 1.716-.27l14.639 9.856c.498.335.802.996.786 1.711-.023 1.046-.714 1.877-1.542 1.857l-25.862-.62c-.83-.02-1.485-.886-1.461-1.934l.019-.877c.004-.188.03-.374.078-.552Z" fill="#1d2433" fill-rule="evenodd" data-name="Path 1666"/><path d="m1098.156 7464.656 7.528 29.814c.84 3.331 3.968 5.652 7.441 5.525 4.234-.157 7.347-3.84 6.735-7.97l-5.719-30.203-15.985 2.834Z" fill="#f8bd8c" fill-rule="evenodd" data-name="Path 1667"/><path d="m1096.54 7459.6 4.834 14.053 20.651-7.494-7.77-13.989c-1.962-3.749-5.933-5.556-10.998-5.414l.699.404c-5.72 1.061-9.205 6.906-7.416 12.44Z" fill="#3aa5a9" fill-rule="evenodd" data-name="Path 1668"/><path d="M1109.093 7485.682c12.324-7.55 29.556-16.159 29.556-16.159l6.447 6.083-26.8 22.746c-3.789 3.231-9.591 2.165-11.984-2.202a7.85 7.85 0 0 1 2.781-10.468Z" fill="#f8bd8c" fill-rule="evenodd" data-name="Path 1669"/><path d="M1100.298 7423.934c-.042 1.784 1.325 3.27 3.053 3.32 1.731.048 3.166-1.36 3.209-3.145.042-1.784-1.326-3.271-3.056-3.32-1.728-.048-3.164 1.36-3.206 3.145Z" fill="#f8bd8c" fill-rule="evenodd" data-name="Path 1670"/><path d="m1098.596 7434.131.536 10.715c.188 3.62-2.24 5.234-6.24 5.346-3.413.096-7.233-1.193-7.242-4.39l.072-16.248 12.874 4.577Z" fill="#f8bd8c" fill-rule="evenodd" data-name="Path 1671"/><path d="m1086.01 7446.111 12.81-9.098c.185-3.086-13.04-2.187-13.04-2.187l-.048 10.706.278.579Z" fill="#eab186" fill-rule="evenodd" data-name="Path 1672"/><path d="m1104.591 7416.777.142 10.47.005.331c.042 5.162-2.705 10.072-8.82 10.32-7.337-.208-15.28-5.418-15.466-12.994l-.137-5.338-.08-3.078c.15-6.276 5.95-11.267 12.016-11.62.333-.019.67-.023 1.005-.014 6.266.176 11.28 5.454 11.335 11.923Z" fill="#f8bd8c" fill-rule="evenodd" data-name="Path 1673"/><path d="M1091.074 7418.11s3.304-.635 3.427.327c0 0 .065.652-1.922.988-1.987.337-3.553.443-3.8-.151-.247-.594 1.22-1.047 2.295-1.164Z" fill="#090329" fill-rule="evenodd" data-name="Path 1674"/><path d="M1101.284 7417.868s2.69.11 2.596 1.074c0 0 .122.652-1.646.547-2.013-.118-2.78-.322-2.888-.956-.109-.634.863-.79 1.938-.665Z" fill="#090329" fill-rule="evenodd" data-name="Path 1675"/><path d="M1100.775 7422.423a1.009 1.009 0 1 0 2.017-.033 1.009 1.009 0 0 0-2.017.033Z" fill="#090329" fill-rule="evenodd" data-name="Path 1676"/><path d="M1091.354 7422.873a1.01 1.01 0 1 0 2.014.14 1.01 1.01 0 0 0-2.014-.14Z" fill="#090329" fill-rule="evenodd" data-name="Path 1677"/><g data-name="Group 1378"><path d="M1098.664 7427.437c-.05 0-.1-.027-.126-.075a.143.143 0 0 1 .059-.193l.852-.458a.267.267 0 0 0 .042-.337l-1.006-1.81a.143.143 0 0 1 .248-.138l1.003 1.803a.55.55 0 0 1-.137.725l-.868.466a.14.14 0 0 1-.067.017Zm.868-.609h.002-.002Z" fill="#090329" fill-rule="evenodd" data-name="Path 1678"/></g><path d="M1068.83 7646.866v-2.813c0-3.242 3.259-9.124 3.259-11.285 0-1.76 5.974.512 8.19 1.415.476.194.816.597.9 1.074.202 1.134.86 3.404 3.011 5.554 1.464 1.464 2 3.19 2.165 4.457.111.852-.615 1.598-1.54 1.598h-15.984Z" fill="#1d2433" fill-rule="evenodd" data-name="Path 1679"/><path d="M1103.771 7412.147c-.522-.593-4.701-2.079-5.165-2.19a18.403 18.403 0 0 0-6.254-.411c-4.001.426-8.2 2.01-8.973 6.426-.447 2.546-.877 5.219-1.084 7.103a.792.792 0 0 1-.278.513c-.655.561-1.465 2.461 1.34 8.546.325.706-1.221 1.635-1.888 1.235-2.135-1.281-5.41-4.864-6.78-14.876-1.57-11.453 4.467-12.988 6.247-13.193a.793.793 0 0 0 .646-.478c.62-1.473 3.173-6.12 10.925-6.79 3.938-.34 8.125.844 10.872 3.794 1.092 1.173 1.935 2.62 2.237 4.206.418 2.182-.706 4.325-1.545 6.29.045-.067-.217-.08-.3-.175Z" fill="#090329" fill-rule="evenodd" data-name="Path 1680"/><path d="M1110.652 7511.16s5.31 9.516 6.492 51.545c1.184 42.173-.545 67.91-.545 67.91l-18.803.018-8.177-116.972 5.08-4.086 15.953 1.586Z" fill="#1d2433" fill-rule="evenodd" data-name="Path 1681"/><path d="M1068.381 7512.656s-3.106 3.46-2.718 23.539c.48 24.771 1.71 91.984 1.71 91.984l18.466 1.132 14.508-116.655-14.958-3.24-17.008 3.24Z" fill="#1d2433" fill-rule="evenodd" data-name="Path 1682"/><path d="M1078.569 7424.701c-.031 1.316.976 2.412 2.25 2.447 1.275.036 2.334-1.001 2.365-2.317.032-1.316-.977-2.412-2.252-2.448-1.274-.035-2.333 1.002-2.363 2.318Z" fill="#f8bd8c" fill-rule="evenodd" data-name="Path 1683"/><g data-name="Group 1379"><path d="M1096.02 7433.117c-.615 0-1.072-.19-1.363-.565-.676-.873-.176-2.42-.154-2.485a.142.142 0 0 1 .18-.09l.007.002a.144.144 0 0 1 .19.095c.208.279 2.492 1.67 4.718.58a.143.143 0 0 1 .193.184c-.009.02-.914 2.097-3.558 2.272a3.287 3.287 0 0 1-.213.007Zm-1.294-2.793c-.104.406-.309 1.453.157 2.054.262.339.712.489 1.331.448 1.81-.12 2.744-1.18 3.116-1.747-1.796.669-3.582-.035-4.396-.595a1.913 1.913 0 0 1-.208-.16Z" fill="#090329" fill-rule="evenodd" data-name="Path 1684"/></g><path d="m1100.922 7446.756-27.087-.007c-3.995 0-.68 3.022-1.1 6.994l-7.724 64.005 49.029.318-5.342-64.187a7.807 7.807 0 0 0-7.776-7.123Z" fill="#3aa5a9" fill-rule="evenodd" data-name="Path 1685"/><path d="M1081.8 7463.46s.089-3.082.462-4.333c.447-1.499 2.768-4.33 2.768-4.33s.31-.202.538.363c.356.875-1.349 2.076-.677 3.259.668 1.186-3.09 5.04-3.09 5.04Z" fill="#f8bd8c" fill-rule="evenodd" data-name="Path 1686"/><path d="M1086.51 7472.029s-6.089-2.657-6.246-4.993c0 0 2.404-5.51 2.9-7.271.545-1.933 4.622-7.156 6.11-7.522 3.948-.972 3.962-.744 4.097.195.132.937-2.685 1.018-3.372 1.71-.34.34-1.08 2.548-1.08 2.548.543-.814 1.821-1.819 3.023-1.73 1.49.11 2.833.068 3.143.783.558 1.293-2.914.978-3.21 1.794-.106.295-.996 2.036-.996 2.036.581-.273 1.167-1.064 1.757-1.21.758-.189 3.628-.172 3.65.55.04 1.124-2.555 1.018-3.072 1.733-.204.284-.82 1.709-.82 1.709s1.182-.668 1.701-.713c.601-.051 2.912.336 2.743.806-.444 1.23-2.467.456-3.677 1.816-1.002 1.128-2.42 4.38-4.016 5.098-1.597.718-2.635 2.66-2.635 2.66Z" fill="#f8bd8c" fill-rule="evenodd" data-name="Path 1687"/><path d="M1142.84 7461.714s-1.696 3.642-2.874 5.227c-1.18 1.587-3.3 6.385.755 8.53 4.055 2.145 12.362-3.572 12.362-3.572 2.698-2.653 1.784-5.71 1.784-5.71 1.297-1.16.492-3.974.492-3.974l1.4-2.66c-3.002-1.482-2.738 1.668-6.157 4.48-.826.68-3.105 1.178-4.2 1.615l-.004-.003c-1.484.594-2.815.909-2.815.909s.004-.004.004-.011c.023-.197.31-2.81.185-4.138-.135-1.376-.932-.693-.932-.693Z" fill="#f8bd8c" fill-rule="evenodd" data-name="Path 1688"/><path d="M1104.095 7412.186c.119.384-1.689 1.678-9.594 1.678-7.904 0-11.564 4.538-13.101 5.343-1.537.805-2.27-4.025 0-6.44 2.268-2.416 8.644-6.003 11.971-5.564 3.327.44 9.119-.209 10.724 4.983Z" fill="#090329" fill-rule="evenodd" data-name="Path 1689"/><path d="m1085.572 7443.335 6.882 3.521v3.6l-12.243-3.56 5.361-3.56Z" fill="#3aa5a9" fill-rule="evenodd" data-name="Path 1690"/><path d="m1099.226 7443.335-7.278 3.873v3.96l12.948-3.916-5.67-3.917Z" fill="#3aa5a9" fill-rule="evenodd" data-name="Path 1691"/><path d="m1061.129 7464.607-2.766 22.34c0 3.224-.468 10.29 2.119 12.144l2.283 1.558c3.766-4.754 4.952-3.216 6.259-7.064l4.007-27.762-11.5-4.206-.402 2.99Z" fill="#f8bd8c" fill-rule="evenodd" data-name="Path 1692"/><path d="m1065.082 7451.49-6.293 13.65 19.858 6.806 3.549-11.728a9.637 9.637 0 0 0-2.828-11.098c-4.5-3.682-11.214-2.567-14.286 2.37Z" fill="#3aa5a9" fill-rule="evenodd" data-name="Path 1693"/><path d="M1060.003 7492.065c6.79-9.285 20.26-25.029 20.26-25.029l7.01 3.974-16.768 27.676c-1.817 3.529-6.385 4.48-9.434 1.963-2.565-2.117-3.035-5.892-1.068-8.584Z" fill="#f8bd8c" fill-rule="evenodd" data-name="Path 1694"/></g><g data-name="Group 1383"><path d="M810.641 7434.38s-14.318-6.036-20.508 2.48c-4.492 6.179-4.753 17.672 3.37 22.027 7.738 4.15 8.49-22.54 8.49-22.54l8.648-1.966Z" fill="#010103" fill-rule="evenodd" data-name="Path 1695"/><path d="m803.95 7461.484-1.67 8.535c-.58 2.998-2.74 4.244-5.685 3.65-2.516-.508-4.617-2.284-4.426-4.843l3.274-13.305 8.507 5.963Z" fill="#f8bd8c" fill-rule="evenodd" data-name="Path 1696"/><path d="m802.522 7468.352-7.08-10.618 8.507 3.82-1.274 6.045-.153.753Z" fill="#eab186" fill-rule="evenodd" data-name="Path 1697"/><path d="M801.117 7462.216c5.084.672 9.772-2.497 10.43-6.33l1.496-9.047c.826-4.801-2.61-9.412-7.76-10.42-5.274-1.03-11.3 1.912-12.317 6.796l-1.118 7.291c-.864 5.64 3.237 10.531 9.269 11.71Z" fill="#f8bd8c" fill-rule="evenodd" data-name="Path 1698"/><path d="m799.291 7442.855-5.047 6.23-5.803-8.88 10.85 2.65Z" fill="#010103" fill-rule="evenodd" data-name="Path 1699"/><path d="M790.297 7448.087a2.39 2.39 0 1 0 4.685.947 2.39 2.39 0 0 0-4.685-.947Z" fill="#f8bd8c" fill-rule="evenodd" data-name="Path 1700"/><g data-name="Group 1381"><path d="M806.182 7454.21c-.015 0-.03 0-.047-.002l-.765-.057a.072.072 0 0 1-.066-.077c.002-.04.038-.066.076-.066l.766.057a.451.451 0 0 0 .35-.121.46.46 0 0 0 .15-.338l.028-1.964a.074.074 0 0 1 .073-.07c.04 0 .071.033.07.073l-.026 1.963a.603.603 0 0 1-.199.442.601.601 0 0 1-.41.16Z" fill="#090516" fill-rule="evenodd" data-name="Path 1701"/></g><path d="M802.17 7446.015s2.22-.102 2.206.83c0 0-.026.63-1.962.678-1.938.05-2.434-.116-2.587-.715-.153-.6 1.303-.829 2.342-.793Z" fill="#090516" fill-rule="evenodd" data-name="Path 1702"/><path d="M810.74 7446.729s-1.796-.4-2.042.453c0 0-.155.578 1.422.893 1.576.312 2.117.162 2.322-.296.23-.52-.841-.938-1.703-1.05Z" fill="#090516" fill-rule="evenodd" data-name="Path 1703"/><path d="M809.743 7450.116c-.028.53.365.981.88 1.01.512.027.95-.38.976-.91.028-.53-.365-.982-.878-1.01-.513-.026-.95.38-.978.91Z" fill="#090516" fill-rule="evenodd" data-name="Path 1704"/><path d="M801.437 7449.349c-.028.53.365.98.879 1.008.513.028.95-.38.977-.909.029-.53-.365-.981-.879-1.01-.512-.026-.95.381-.977.91Z" fill="#090516" fill-rule="evenodd" data-name="Path 1705"/><g data-name="Group 1382"><path d="M804.372 7458.842c-1.726 0-2.776-2.577-2.82-2.687a.073.073 0 0 1 .015-.076.072.072 0 0 1 .076-.018l4.611 1.605a.072.072 0 0 1 .03.116c-.635.704-1.278 1.06-1.912 1.06Zm-2.621-2.591c.252.551 1.222 2.447 2.62 2.447.569 0 1.151-.313 1.733-.932l-4.353-1.515Z" fill="#090516" fill-rule="evenodd" data-name="Path 1706"/></g><path d="M810.641 7434.381s7.068 2.194 4.329 11.59a.324.324 0 0 1-.398.221l-3.46-.974a.322.322 0 0 1-.236-.308l-.02-2.697c-.002-.338-.456-.445-.61-.144l-1.387 2.733a.322.322 0 0 1-.329.173l-15.129-1.973a.321.321 0 0 1-.276-.267l-1.161-7.127a.322.322 0 0 1 .252-.367l6.97-1.453a.34.34 0 0 1 .083-.006l11.372.599Z" fill="#010103" fill-rule="evenodd" data-name="Path 1707"/><path d="m844.51 7520.19 7.439 2.267s4.957 4.12 4.416 6.602c-.396 1.821-2.197 3.79-3.786 4.675-.72.402-1.623.02-1.805-.787-.297-1.323-.907-3.374-1.994-4.618 0 0-6.375-.34-8.369-2.98-1.014-1.344-.925-7.723-.925-7.723l5.024 2.565Z" fill="#f8bd8c" fill-rule="evenodd" data-name="Path 1708"/><path d="m786.507 7638.113-.276-18.736-9.51-.505.262 20.123 9.172.06.352-.942Z" fill="#f8bd8c" fill-rule="evenodd" data-name="Path 1709"/><path d="m773.573 7642.474 1.933-5.011a1.497 1.497 0 0 1 1.866-.888c1.932.646 5.573 1.413 8.12-.764a1.483 1.483 0 0 1 1.722-.126l14.269 8.552a1.501 1.501 0 0 1-.877 2.785l-25.788-1.816a1.5 1.5 0 0 1-1.392-1.605l.05-.694c.01-.148.043-.294.097-.433Z" fill="#1d2433" fill-rule="evenodd" data-name="Path 1710"/><path d="m822.509 7639.737-2.504-18.57-9.503.63 2.656 19.95 9.114-1.033.237-.977Z" fill="#f8bd8c" fill-rule="evenodd" data-name="Path 1711"/><path d="m810.185 7645.607 1.324-5.206a1.497 1.497 0 0 1 1.747-1.103c1.995.41 5.702.739 7.971-1.725a1.482 1.482 0 0 1 1.695-.33l15.185 6.792a1.5 1.5 0 0 1-.54 2.87l-25.82 1.266a1.502 1.502 0 0 1-1.573-1.428l-.033-.694c-.007-.15.008-.298.044-.442Z" fill="#1d2433" fill-rule="evenodd" data-name="Path 1712"/><path d="M807.438 7430.706a5.362 5.362 0 1 1-10.652-1.232 5.362 5.362 0 0 1 10.652 1.232Z" fill="#010103" fill-rule="evenodd" data-name="Path 1713"/><path d="m803.55 7488.192 9.413-2.873 1.244 12.961c.23 2.383-1.51 4.43-3.881 4.759a4.924 4.924 0 0 1-5.671-3.937l-1.104-10.91Z" fill="#f8bd8c" fill-rule="evenodd" data-name="Path 1714"/><path d="m843.372 7519.943-32.763-28.96s-3.176 3.4-4.854 5.03a4.1 4.1 0 0 0 .105 5.98l34.23 22.668 1.766-4.718h1.516Z" fill="#f8bd8c" fill-rule="evenodd" data-name="Path 1715"/><path d="m796.62 7565.493 10.37 65.66h20.58c-1.186-9.692-7.332-58.636-9.957-74.304-6.98-41.637-11.428-51.644-11.428-51.644l-15.493-2.783-1.71 2.498 13.399.418-5.761 60.155Z" fill="#3aa5a9" fill-rule="evenodd" data-name="Path 1716"/><path d="m788.981 7504.92-5.982-.186s-10.208 10.89-10.742 31.038c-.353 13.44-1.09 75.79-.715 95.38h21.162l3.916-65.659 5.761-60.155-13.4-.418Z" fill="#3aa5a9" fill-rule="evenodd" data-name="Path 1717"/><path d="m794.673 7469.59-14.734 2.06a3.04 3.04 0 0 0-2.575 3.543l5.105 30.012h23.716l6.186-28.827a4.521 4.521 0 0 0-3.961-5.293l-13.737-1.496Z" fill="#fcfcfc" fill-rule="evenodd" data-name="Path 1718"/><path d="m772.041 7477.763 4.274 10.551s-14.186 4.164-17.093 6c-.932.589-1.76 1.317-2.588 2.04-.629.55-1.303 1.236-2.103 1.53-.697.256-1.297.035-1.737-.55-1.21-1.605-1.889-3.732-1.591-5.765.343-2.345 2.908-3.607 4.644-5.072l16.194-8.734Z" fill="#f8bd8c" fill-rule="evenodd" data-name="Path 1719"/><path d="M777.484 7472.527a7.646 7.646 0 0 1 10.078 2.509c2.362 3.604 3.402 8.802-.271 11.058-2.63 1.615-14.803 5.576-14.803 5.576l-5.348-14.807 10.344-4.336Z" fill="#fcfcfc" fill-rule="evenodd" data-name="Path 1720"/><path d="m776.497 7512.507-15.489-20.495c-1.797-2.116-5.194-2.443-7.457-.718-2.29 1.744-1.825 5.063.243 7.01l18.085 17.278 4.618-3.075Z" fill="#f8bd8c" fill-rule="evenodd" data-name="Path 1721"/><path d="M792.955 7466.98a2.2 2.2 0 1 1-4.401 0 2.2 2.2 0 0 1 4.4 0Z" fill="#25837e" fill-rule="evenodd" data-name="Path 1722"/><path d="M791.126 7468.231s.142 2.326-1.66 3.037c-1.804.712-2.848.712-2.848.712s-.095-2.326.95-3.412c1.043-1.085 3.558-.337 3.558-.337Z" fill="#25837e" fill-rule="evenodd" data-name="Path 1723"/><path d="M801.697 7477.491a5.629 5.629 0 0 1 4.058-6.48 5.627 5.627 0 0 1 6.946 4.117c.53 2.21.902 6.096 1.254 10.232l-11.586 3.536-.672-11.405Z" fill="#fcfcfc" fill-rule="evenodd" data-name="Path 1724"/><path d="m779.621 7523.747-4.248-4.249a1.487 1.487 0 0 1 0-2.103l10.684-10.685a1.487 1.487 0 0 1 2.104 0l4.248 4.248a1.487 1.487 0 0 1 0 2.104l-10.684 10.685c-.581.581-1.523.581-2.104 0Z" fill="#1d2433" fill-rule="evenodd" data-name="Path 1725"/><path d="m789.928 7514.656-6.004-3.525.82-1.135c.3-.413.237-.946-.15-1.3-.401-.367-1.044-.449-1.553-.199l-6.711 3.298-4.746 3.754c3.083 2.938 5.36 3.164 6.749 2.82.145.06.289.126.438.182l5.149 1.918c.465.238 1.07.125 1.377-.257.222-.278.359-.749-.603-1.313l.962.564c.493.252 1.131.126 1.444-.286.291-.363.09-.908-.463-1.312l.747.353c.538.275 1.248.112 1.543-.38.255-.427.054-.952-.41-1.223l-1.06-.62 1.308.432c.593.259 1.331.055 1.622-.48.25-.457.028-1.004-.459-1.29Z" fill="#f8bd8c" fill-rule="evenodd" data-name="Path 1726"/><path d="M792.412 7466.026s-2.994.563-3.859.785c0 0 2.67 6.518 11.345 5.896 9.833-.705 4.036-6.884 4.036-6.884l-3.75-.653-7.772.856Z" fill="#3aa5a9" fill-rule="evenodd" data-name="Path 1727"/></g><g data-name="Group 1389"><g data-name="Group 1388"><g data-name="Group 1384"><path d="m678.413 7642.756 3.545-19.613 10.822 1.425-2.519 21.18-10.352-1.836.515-.604-2.011-.552Z" fill="#f8bd8c" fill-rule="evenodd" data-name="Path 1728"/><path d="m733.859 7630.185-11.326-16.4 8.675-6.625 13.158 16.786-8.632 6.003-.06-.791-1.815 1.027Z" fill="#f8bd8c" fill-rule="evenodd" data-name="Path 1729"/><path d="m749.382 7623.38-5.973-3.14a1.88 1.88 0 0 0-2.497.705c-1.293 2.208-4.101 5.945-8.309 5.994-.795.01-1.487.547-1.731 1.305l-6.418 19.885a1.886 1.886 0 0 0 3.133 1.908l22.877-23.045a1.886 1.886 0 0 0-.011-2.668l-.62-.615a1.885 1.885 0 0 0-.45-.33Z" fill="#1d2433" fill-rule="evenodd" data-name="Path 1730"/><path d="M684.742 7520.88c-3.184 30.194 4.444 54.102 4.444 54.102l32.519 53.568 19.523-16.431-29.623-49.381-4.386-41.858h-22.477Z" fill="#1d2433" fill-rule="evenodd" data-name="Path 1731"/><path d="M724.272 7520.88s.33 11.411-5.181 29.208c-5.51 17.797-21.37 86.134-21.37 86.134l-23.024-1.364 21.277-113.978h28.298Z" fill="#1d2433" fill-rule="evenodd" data-name="Path 1732"/></g><g data-name="Group 1387"><path d="M687.911 7452.379s-8.1.51-13.504 25.897l17.748 6.009-4.244-31.906Z" fill="#3aa5a9" fill-rule="evenodd" data-name="Path 1733"/><path d="m702.294 7447.693-14.382 4.686-3.17 68.501 40.708.425 2.763-27.565-3.941-41.36-15.575-4.687h-6.403Z" fill="#3aa5a9" fill-rule="evenodd" data-name="Path 1734"/><path d="m712.697 7438.862-.173 11.603c-.052 3.919-2.417 5.53-6.152 5.436-3.189-.08-6.669-1.68-6.477-5.134l1.085-17.547 11.717 5.642Z" fill="#f8bd8c" fill-rule="evenodd" data-name="Path 1735"/><path d="m699.977 7450.411 12.757-10.325c.173-3.342-12.18-2.368-12.18-2.368l-.577 11.715v.978Z" fill="#eab186" fill-rule="evenodd" data-name="Path 1736"/><path d="M706.638 7445.723c-5.908 1.414-11.925-2.24-13.28-7.184l-2.776-10.358c-1.699-6.195 1.668-12.589 7.606-14.45 6.08-1.904 13.643 1.311 15.58 7.596l2.069 8.097c1.868 7.287-2.246 14.12-9.199 16.299Z" fill="#f8bd8c" fill-rule="evenodd" data-name="Path 1737"/><path d="M704.426 7425.74s-3.317.363-3.168 1.275c0 0 .12.613 2.103.355 1.982-.259 3.501-.61 3.571-1.221.068-.61-1.451-.607-2.506-.408Z" fill="#221344" fill-rule="evenodd" data-name="Path 1738"/><path d="M694.707 7426.62s-2.656.304-2.493 1.252c0 0-.075.655 1.671.421 1.983-.264 2.73-.52 2.787-1.156.06-.635-.912-.719-1.965-.517Z" fill="#221344" fill-rule="evenodd" data-name="Path 1739"/><path d="m712.901 7428.603-2.435-9.301s-4.282 3.9-7.34 2.083c-3.057-1.818-7.577 1.675-7.577 1.675s-7.762 5.11-10.048 1.114c-2.286-3.997-.72-12.246 8.172-14.678 7.325-2.004 16.447-.663 21.385 1.862 1.44.737 2.909 2.327 3.37 5.11.917 5.563-.507 11.025-2.419 13.575l-3.108-1.44Z" fill-rule="evenodd" data-name="Path 1740"/><path d="M718.135 7429.46c.505 1.637-.37 3.366-1.953 3.863-1.585.497-3.278-.429-3.784-2.065-.504-1.637.37-3.368 1.954-3.865 1.585-.495 3.278.43 3.783 2.067Z" fill="#f8bd8c" fill-rule="evenodd" data-name="Path 1741"/><path d="M696.532 7433.749c.505 1.637-.37 3.366-1.953 3.863-1.584.497-3.278-.429-3.784-2.066-.504-1.637.37-3.368 1.954-3.864 1.585-.496 3.278.429 3.783 2.067Z" fill="#f8bd8c" fill-rule="evenodd" data-name="Path 1742"/><path d="m737.954 7477.356 1.883 20.2c.288 3.133 1.376 9.957-.972 11.99l-2.08 1.72c-4.083-4.284-6.957-8.317-8.572-11.94l-4.52-20.984 13.691-5.116.57 4.13Z" fill="#f8bd8c" fill-rule="evenodd" data-name="Path 1743"/><path d="M736.428 7500.312c-10.28-4.509-29.361-11.196-29.361-11.196l-3.969 6.788 27.711 15.142c3.263 2.087 7.584.651 8.923-2.966 1.129-3.044-.324-6.46-3.304-7.768Z" fill="#f8bd8c" fill-rule="evenodd" data-name="Path 1744"/><path d="M724.272 7452.379s10.92 2.433 14.694 23.766l-16.138 5.898-.489-11.472 1.933-18.192Z" fill="#3aa5a9" fill-rule="evenodd" data-name="Path 1745"/><path d="m706.849 7488.932-6.833-3.711s-6.414-.642-7.803 1.485c-1.02 1.56-1.16 4.224-.676 5.977.219.796 1.125 1.17 1.827.734 1.151-.716 3.041-1.72 4.69-1.818 0 0 4.715 4.305 7.995 3.873 1.669-.22 6.153-4.758 6.153-4.758l-5.353-1.782Z" fill="#f8bd8c" fill-rule="evenodd" data-name="Path 1746"/><path d="M714.793 7496.288h-22.477v-2.537h22.477a1.27 1.27 0 0 1 0 2.537Z" fill="#1d2433" fill-rule="evenodd" data-name="Path 1747"/><path d="M696.18 7430.597a.984.984 0 1 1-1.928.393.984.984 0 0 1 1.929-.393Z" fill="#221344" fill-rule="evenodd" data-name="Path 1748"/><path d="M705.251 7429.042a.984.984 0 1 1-1.887.558.984.984 0 0 1 1.887-.558Z" fill="#221344" fill-rule="evenodd" data-name="Path 1749"/><g data-name="Group 1385"><path d="m699.18 7434.931-.925-.261a.122.122 0 0 1-.028-.011.542.542 0 0 1-.258-.656l.575-1.928a.143.143 0 0 1 .273.081l-.578 1.937a.259.259 0 0 0 .11.308l.908.256c.076.022.12.1.098.176a.142.142 0 0 1-.175.098Zm-.89-.397.003-.001h-.002Z" fill="#221344" fill-rule="evenodd" data-name="Path 1750"/></g><g data-name="Group 1386"><path d="M702.148 7441.113c.646-.143 1.4-.378 2.207-.761a.143.143 0 0 0 .068-.19c-.034-.07-.111-.063-.19-.067-3.89-.217-4.274.352-4.363.89-.006.035-.007.097-.014.175a.142.142 0 0 0 .129.155c.053.004.904.076 2.163-.202Z" fill="#221344" fill-rule="evenodd" data-name="Path 1751"/></g><path d="m681.31 7496.288 10.25-.001s-1.398 2.072-9.045 1.228l-1.204-1.227Z" fill="#f8bd8c" fill-rule="evenodd" data-name="Path 1752"/><path d="M707.056 7496.287H676.59a3.607 3.607 0 0 1-3.476-2.64l-1.822-6.545-.882-3.17-.89-3.193-.048-.177-.96-3.45-1.406-5.053a1.243 1.243 0 0 1 1.196-1.578h30.828c.674 0 1.263.455 1.432 1.108l6.494 24.698Z" fill="#1d2433" fill-rule="evenodd" data-name="Path 1753"/></g></g><path d="m694.467 7648.677-2.018-6.44a1.88 1.88 0 0 0-2.267-1.262c-2.474.652-7.1 1.319-10.117-1.615-.57-.554-1.44-.661-2.148-.297l-18.578 9.565a1.886 1.886 0 0 0 .874 3.562l32.472-.19a1.886 1.886 0 0 0 1.874-1.899l-.006-.874a1.884 1.884 0 0 0-.086-.55Z" fill="#1d2433" fill-rule="evenodd" data-name="Path 1754"/></g><g data-name="Group 1395"><g data-name="Group 1391"><path d="M1150.482 7426.675h-20.396v-10.317c0-.856.694-1.55 1.549-1.55h18.847a1.55 1.55 0 0 1 1.548 1.55v8.77a1.55 1.55 0 0 1-1.548 1.547Z" fill="#fff" fill-rule="evenodd" data-name="Path 1760"/><path d="m1130.087 7424.22-.015 5.243 4.476-5.228-4.46-.015Z" fill="#fff" fill-rule="evenodd" data-name="Path 1761"/><path d="M1144.67 7420.608a.987.987 0 1 0 1.973.006.987.987 0 0 0-1.973-.006Z" fill="#090329" fill-rule="evenodd" data-name="Path 1762"/><path d="M1140.432 7420.594a.986.986 0 0 0 .985.99.986.986 0 1 0 .005-1.974.987.987 0 0 0-.99.984Z" fill="#090329" fill-rule="evenodd" data-name="Path 1763"/><path d="M1136.195 7420.582a.988.988 0 1 0 1.975.005.988.988 0 0 0-1.975-.005Z" fill="#090329" fill-rule="evenodd" data-name="Path 1764"/></g><g data-name="Group 1394"><path d="M885.2 7450.028h-24.6c-.687 0-1.243-.964-1.243-2.153v-14.205c0-1.189.556-2.153 1.243-2.153h24.6c.686 0 1.242.964 1.242 2.153v14.205c0 1.19-.556 2.153-1.243 2.153Z" fill="#3aa5a9" fill-rule="evenodd" data-name="Path 1765"/><path d="M865.047 7447.565v8.372l9.207-8.372h-9.207Z" fill="#3aa5a9" fill-rule="evenodd" data-name="Path 1766"/><g data-name="Group 1392"><path d="M863.153 7438.936a.262.262 0 0 1-.145-.48c.085-.058.264-.177 19.153-.045a.263.263 0 0 1-.001.525h-.002c-7.285-.051-18.287-.096-18.93-.011a.27.27 0 0 1-.075.01Z" fill="#fff" fill-rule="evenodd" data-name="Path 1767"/></g><g data-name="Group 1393"><path d="M876.458 7443.589h-7.93a.262.262 0 0 1 0-.525h7.93a.262.262 0 0 1 0 .525Z" fill="#fff" fill-rule="evenodd" data-name="Path 1768"/></g></g></g><g data-name="Group 1398"><path d="m630.048 7490.313 15.284-.478c-.901 7.225-1.041 11.6-.941 15.755a8.033 8.033 0 1 1-16.058.014l1.715-15.29Z" fill="#fbe080" fill-rule="evenodd" data-name="Path 1769"/><path d="m671.519 7487.686-33.498 12.817a6.688 6.688 0 0 0-2.942 9.22c1.852 3.39 5.256 2.362 8.52.3l30.066-16.62-2.146-5.717Z" fill="#fbe080" fill-rule="evenodd" data-name="Path 1770"/><path d="m649.288 7638.642-10.925-.68-1.393-14.903 10.924.681 1.394 14.902Z" fill="#fba799" fill-rule="evenodd" data-name="Path 1771"/><path d="M640.227 7504.794s3.482 8.82 6.195 52.04c2.737 43.6 4.168 72.464 4.168 72.464l-16.695.27-15.53-121.572 5.168-4.357 16.694 1.155Z" fill="#3aa5a9" fill-rule="evenodd" data-name="Path 1772"/><path d="m612.15 7636.487-10.547.352.542-15.8 10.924.681-.92 14.767Z" fill="#fba799" fill-rule="evenodd" data-name="Path 1773"/><path d="M613.946 7502.976s-9.437 11.17-11.18 31.774c-2.01 23.766-1.95 91.837-1.95 91.837l15.025.477 20.281-122.553-22.176-1.535Z" fill="#3aa5a9" fill-rule="evenodd" data-name="Path 1774"/><path d="m602.093 7480.277 13.046 8.106c-3.504 6.382-6.24 9.724-7.684 13.623-1.627 4.397-5.291 7.751-9.544 5.779a8.033 8.033 0 0 1-4.019-10.413l8.201-17.095Z" fill="#fbe080" fill-rule="evenodd" data-name="Path 1775"/><path d="M606.392 7470.162c2.729-3.808 6.583-4.833 10.279-3.6 3.988 1.334 3.337 10.751 1.888 14.7-1.037 2.826-.73 2.33-3.377 7.152l-13.23-7.722 4.44-10.53Z" fill="#fbe080" fill-rule="evenodd" data-name="Path 1776"/><path d="M641.554 7433.923s8.688-.27 8.125 9.947c-.364 6.623-1.478 15.312-1.42 19.581.015 1.063.29 8.823-.772 8.79-6.669-.21-16.58-5.942-27.642-6.086-.39-.005-2.735.206-2.848-.166-.512-1.688-1.011-12.764-.272-18.825.906-7.43 4.547-12.832 8.628-15.128 4.082-2.296 12.928-1.657 16.201 1.887Z" fill-rule="evenodd" data-name="Path 1777"/><path d="M646.424 7435.92s-18.831-9.023-24.838-.554c-4.358 6.145-1.233 18.416 6.828 22.617 7.68 4.001 8.112-22.327 8.112-22.327l6.992 1.183 2.906-.919Z" fill-rule="evenodd" data-name="Path 1778"/><path d="m638.747 7460.421-1.55 8.436c-.536 2.964-2.65 4.218-5.562 3.666-2.487-.471-4.58-2.197-4.42-4.723l3.073-13.16 8.459 5.781Z" fill="#f8bd8c" fill-rule="evenodd" data-name="Path 1779"/><path d="M637.751 7465.92s-7.67-2.802-8.806-9.901l9.977 3.54-1.171 6.36Z" fill="#eab186" fill-rule="evenodd" data-name="Path 1780"/><path d="M634.874 7462.065c4.957.999 10.796-2.757 11.756-6.884l1.251-9.19c1.205-5.173-1.807-10.366-6.805-11.734-5.115-1.4-11.296 1.477-12.697 6.73l-1.695 7.862c-1.309 6.081 2.338 11.614 8.19 13.216Z" fill="#f8bd8c" fill-rule="evenodd" data-name="Path 1781"/><path d="M637.243 7446.686s2.153-.414 2.263.419c0 0 .058.567-1.823.894-1.882.327-2.388.25-2.618-.261-.229-.513 1.16-.93 2.178-1.052Z" fill="#0b0635" fill-rule="evenodd" data-name="Path 1782"/><path d="M646.25 7447.548s-1.728-.528-2.031.14c0 0-.193.456 1.327.89s2.06.374 2.294.021c.264-.397-.754-.862-1.59-1.05Z" fill="#0b0635" fill-rule="evenodd" data-name="Path 1783"/><path d="M643.593 7437.817a50.814 50.814 0 0 1-2.923 3.42c-1.209 1.302-2.59 2.438-4.138 3.317-.776.441-1.594.828-2.414 1.179-.38.161-4.262 1.865-4.688 1.616-.423-.246-1.132-10.256-.874-10.185.259.07 8.097-4.468 8.097-4.468l5.254.522 1.686 4.599Z" fill-rule="evenodd" data-name="Path 1784"/><path d="M642.937 7433.294c.836.24 8.69 2.71 8.75 10.65l-.002.06-.077 1.316a.734.734 0 0 1-.88.677l-5.02-1.03a7.257 7.257 0 0 1-4.309-2.69c-.507-.663-.891-1.247-.768-1.358.247-.221.326-5.073.348-7.007a.734.734 0 0 1 .791-.724l1.024.08a.75.75 0 0 1 .143.026Z" fill-rule="evenodd" data-name="Path 1785"/><path d="M631.098 7476.593a7.461 7.461 0 0 1 7.041-7.287c4.199-.233 10.295 3.547 8.876 8.83-1.145 4.264-1.683 11.7-1.683 11.7l-2.078.328-12.815-.285.659-13.286Z" fill="#fbe080" fill-rule="evenodd" data-name="Path 1786"/><path d="m614.48 7466.067 13.138.003 9.199 1.64 5.49 2.701a2.358 2.358 0 0 1 1.294 2.36l-.344 3.264s3.44 14.589-1.855 17.597l2.173 12.429-32.758-2.423v-28.023c.056-1.772 1.889-9.513 3.662-9.548Z" fill="#fbe080" fill-rule="evenodd" data-name="Path 1787"/><path d="M644.257 7451.407c.035.55.478.97.993.939.512-.03.9-.501.862-1.051-.035-.55-.478-.97-.991-.94-.514.032-.9.502-.864 1.052Z" fill="#0b0635" fill-rule="evenodd" data-name="Path 1788"/><path d="M636.818 7450.423c.036.55.48.969.993.938.513-.03.899-.502.863-1.05-.035-.55-.48-.97-.993-.94-.512.032-.899.502-.863 1.052Z" fill="#0b0635" fill-rule="evenodd" data-name="Path 1789"/><g data-name="Group 1396"><path d="M640.331 7455.165a.072.072 0 0 1-.003-.143l.767-.031a.463.463 0 0 0 .445-.514l-.198-1.954a.072.072 0 0 1 .064-.078.074.074 0 0 1 .079.064l.198 1.954a.605.605 0 0 1-.146.461.605.605 0 0 1-.436.21l-.767.031h-.003Z" fill="#090516" fill-rule="evenodd" data-name="Path 1790"/></g><path d="m637.746 7468.938.93-3.4-9.028-2.92-2.442 4.48 10.389 2.26.151-.42Z" fill="#0b0635" fill-rule="evenodd" data-name="Path 1791"/><path d="M631.717 7442.84s-2.47 9.2-1.561 20.644c.13 1.627-1.08 3.39-2.624 2.861-1.193-.409-2.964-1.498-4.383-2.217a2.263 2.263 0 0 1-1.208-2.354c.627-4.197 2.47-15.64 4.493-19.78 1.249-2.554 2.583-2.975 3.606-2.757 1.031.219 1.73 1.19 1.707 2.246l-.03 1.357Z" fill-rule="evenodd" data-name="Path 1792"/><g data-name="Group 1397"><path d="M639.162 7459.12a.071.071 0 0 1-.045-.016l-1.044-.842a.071.071 0 0 1-.01-.101.072.072 0 0 1 .09-.018.08.08 0 0 1 .031-.01c1.096-.073 1.98.031 2.76.124.251.03.493.059.729.08.034.003.062.03.065.065a.072.072 0 0 1-.054.076c-.57.15-1.142.294-1.713.439l-.791.2a.057.057 0 0 1-.018.003Zm-.85-.85.867.7.756-.193c.443-.112.885-.224 1.327-.338l-.335-.04c-.745-.088-1.586-.188-2.615-.129Z" fill="#090516" fill-rule="evenodd" data-name="Path 1793"/></g><path d="M611.032 7529.258s-1.381.137-2.204 8.42c-.053.535-.738 1.818-.2 1.817.461 0 .878-.272 1.067-.692l1.238-2.939 3.337 8.427c.122.392.476 1.221.875 1.127a.78.78 0 0 0 .569-.982c-.435-1.46-1.281-4.41-.947-4.205.325.2 2.1 2.894 2.832 4.412.236.493.49.87.96.59.396-.237.323-.532.148-.958l-2.395-5.231 4.146 3.358c.493.392.88.482 1.136-.094.167-.375.001-.513-.25-.812-.363-.435-1.003-1.006-1.364-1.443-.721-.874-2.342-2.783-1.933-2.713.216-.027.66.368.9.574.26.223.512.458.77.685.482.426 1.014.869 1.623 1.101.171.066.298.023.419-.113.055-.062.106-.131.093-.22-.01-.066-.047-.11-.082-.162-.039-.06-.065-.128-.103-.188a2.098 2.098 0 0 0-.282-.346c-.73-.743-1.307-1.601-1.895-2.452a242.9 242.9 0 0 0-4.562-6.385c-.098-.132-.851-1.299-.953-1.275l-2.943.699Z" fill="#f8bd8c" fill-rule="evenodd" data-name="Path 1794"/><path d="m615.577 7530.66-9.594-32.56a6.69 6.69 0 0 0-9.182-3.062 6.688 6.688 0 0 0-2.574 9.41l15.173 30.302 6.177-4.09Z" fill="#fbe080" fill-rule="evenodd" data-name="Path 1795"/><path d="m598.517 7641.934 1.984-5.009c.294-.744 1.14-1.137 1.922-.883 1.994.649 5.752 1.424 8.374-.748.496-.41 1.215-.45 1.776-.123l14.734 8.582c.502.292.792.832.752 1.397-.06.826-.798 1.447-1.65 1.387l-26.602-1.869c-.854-.06-1.498-.78-1.44-1.607l.05-.694a1.45 1.45 0 0 1 .1-.433Z" fill="#1d2433" fill-rule="evenodd" data-name="Path 1796"/><path d="m635.701 7643.986 1.422-5.211c.21-.775 1.028-1.268 1.857-1.11 2.115.404 6.047.72 8.464-1.751.456-.468 1.186-.593 1.798-.336l16.09 6.743c.547.23.909.73.936 1.296.04.828-.64 1.533-1.519 1.576l-27.4 1.352c-.879.044-1.624-.593-1.664-1.422l-.033-.695c-.007-.149.01-.298.049-.442Z" fill="#1d2433" fill-rule="evenodd" data-name="Path 1797"/></g><g data-name="Group 1408"><g data-name="Group 1407"><g data-name="Group 1399"><path d="m861.002 7648.223-2.235-.44 10.501-53.39c.347-1.722.99-3.344 1.912-4.827l1.934 1.202a12.278 12.278 0 0 0-1.612 4.07l-10.5 53.385Z" fill="#010206" fill-rule="evenodd" data-name="Path 1798"/></g><g data-name="Group 1400"><path d="m907.14 7648.243-11.573-53.635a12.166 12.166 0 0 0-.662-2.09l2.1-.88c.336.801.601 1.637.787 2.486l11.574 53.639-2.227.48Z" fill="#010206" fill-rule="evenodd" data-name="Path 1799"/></g><path d="m960.036 7640.306-5.978-18.988-9.51-.505 5.964 20.375 9.172.06.352-.942Z" fill="#f8bd8c" fill-rule="evenodd" data-name="Path 1800"/><path d="m926.536 7566.314 8.266.524a13.718 13.718 0 0 1 12.342 10.003l12.953 49.89-17.95-1.67-14.469-43.824-1.142-14.923Z" fill="#1d2433" fill-rule="evenodd" data-name="Path 1801"/><path d="m925.37 7640.305-.277-18.735-9.51-.506.263 20.124 9.172.059.351-.942Z" fill="#f8bd8c" fill-rule="evenodd" data-name="Path 1802"/><path d="m882.86 7555.366 18.693 11.09 19.308.396c5.636 0 10.229 3.399 10.313 9.033.258 17.326-1.082 53.334-1.897 53.17-1.1-.218-16.927 0-16.927 0l-1.609-39.34-12.401 1.35c-3.057.025-11.989.6-14.716-.78-5.643-2.86-9.975-5.926-5.059-21.229l4.295-13.69Z" fill="#1d2433" fill-rule="evenodd" data-name="Path 1803"/><path d="m947.695 7536.977 10.391-5.195s8.48-.625 13.631.494c.541.118.884.647.753 1.184a.972.972 0 0 1-1.051.74l-4.757-.522 2.562 1.742a1.088 1.088 0 0 1-.14 1.881 1.081 1.081 0 0 1-.99-.021c-1.421-.788-5.895-2.838-10.256-.385l4.068 1.827a1.29 1.29 0 0 1 .427 2.045 1.295 1.295 0 0 1-1.121.412l-3.786-.49s-4.453 1.813-8.577-.165l-1.154-3.547Z" fill="#f8bd8c" fill-rule="evenodd" data-name="Path 1804"/><path d="M940.15 7564.124h31.549v-3.56H940.15a1.78 1.78 0 0 0 0 3.56Z" fill="#1d2433" fill-rule="evenodd" data-name="Path 1805"/><path d="M967.546 7564.125h45.293a5.363 5.363 0 0 0 5.166-3.926l8.934-32.094a1.848 1.848 0 0 0-1.78-2.344H979.33a2.204 2.204 0 0 0-2.131 1.644l-9.653 36.72Z" fill="#1d2433" fill-rule="evenodd" data-name="Path 1806"/><g data-name="Group 1401"><path d="M980.105 7568.35h2.278v79.653h-2.278v-79.654z" fill="#010206" fill-rule="evenodd" data-name="Rectangle 159"/></g><g data-name="Group 1402"><path d="M1033.583 7568.35h2.278v79.653h-2.278v-79.654z" fill="#010206" fill-rule="evenodd" data-name="Rectangle 160"/></g><g data-name="Group 1403"><path d="M946.556 7568.35h2.278v79.653h-2.278v-79.654z" fill="#010206" fill-rule="evenodd" data-name="Rectangle 161"/></g><path d="M910.967 7572.574h139.244v-8.45H910.967v8.45Z" fill="#010206" fill-rule="evenodd" data-name="Path 1807"/><path d="m917.577 7489.084-11.704.696c.46-1.853.924-3.71 1.206-5.6.276-1.848.265-3.638 1.026-5.39.285-.654 1.121-1.753 1.076-2.481-.05-.806-.446-.727-1.28-.912-1.347-.3-2.73-.465-4.112-.4-1.876.09-3.796.608-5.555 1.244-6.808 2.458-9.188 11.014-12.896 16.454a67.7 67.7 0 0 0-3.242 5.205c-5.559 9.997.36 23.23.36 23.23l27.16 1.191c8.636-14.923 7.961-33.237 7.961-33.237Z" fill-rule="evenodd" data-name="Path 1808"/><path d="M917.195 7520.296c3.292 8.061 7.602 25.085 7.602 25.085l26.008-12.25 3.439 8.928-22.064 15.067-24.135-1.007-1.79-18.876 10.543-15.978.397-.969Z" fill="#138b97" fill-rule="evenodd" data-name="Path 1809"/><path d="M912.853 7515.039c1.744 1.315 3.394 3.045 4.342 5.257l1.563 45.05s-27.648 5.821-42.665-.888c0 0 .424-37.729 8.976-47.715 0 0 2.695-5.302 16.403-5.327 4.079-.007 8.125 1.169 11.381 3.623Z" fill="#3aa5a9" fill-rule="evenodd" data-name="Path 1810"/><path d="M911.655 7495.09a2.527 2.527 0 1 0 5.003.721 2.527 2.527 0 0 0-5.003-.722Z" fill="#f8bd8c" fill-rule="evenodd" data-name="Path 1811"/><path d="m906.975 7504.632-1.196 8.674c-.415 3.047-2.514 4.421-5.509 3.99-2.558-.367-4.771-2.034-4.722-4.618l2.538-13.561 8.889 5.515Z" fill="#f8bd8c" fill-rule="evenodd" data-name="Path 1812"/><path d="M905.98 7510.343c-5.197.77-8.582-7.551-8.582-7.551l9.668 1.394-1.085 6.548v-.391Z" fill="#eab186" fill-rule="evenodd" data-name="Path 1813"/><path d="M904.219 7505.843c4.196-.33 9.699-3.347 10.162-7.54l1.034-9.9a9.802 9.802 0 0 0-8.347-10.78c-5.357-.77-11.266 2.814-12.037 8.171l-.744 7.972c-.577 6.165 3.336 11.419 9.932 12.077Z" fill="#f8bd8c" fill-rule="evenodd" data-name="Path 1814"/><path d="M903.771 7489.315s2.19-.46 2.3.25c0 0 .06.484-1.854.857-1.914.371-2.43.33-2.662-.098-.232-.428 1.18-.855 2.216-1.009Z" fill="#31185e" fill-rule="evenodd" data-name="Path 1815"/><path d="M912.72 7489.81s-1.844.005-1.949.692c0 0-.056.463 1.556.43 1.613-.031 2.125-.238 2.252-.62.145-.43-.987-.564-1.86-.501Z" fill="#31185e" fill-rule="evenodd" data-name="Path 1816"/><path d="M905.2 7492.925a.889.889 0 1 1-1.712-.482.889.889 0 0 1 1.712.482Z" fill="#31185e" fill-rule="evenodd" data-name="Path 1817"/><path d="M913.417 7493.014a.89.89 0 1 1-1.712-.483.89.89 0 0 1 1.712.483Z" fill="#31185e" fill-rule="evenodd" data-name="Path 1818"/><g data-name="Group 1404"><path d="M908.308 7496.72a.54.54 0 0 1-.118-.014l-1.14-.25a.074.074 0 0 1-.057-.088.073.073 0 0 1 .089-.056l1.14.249a.453.453 0 0 0 .373-.096.807.807 0 0 0 .299-.588l.126-2.173c.002-.041.028-.071.078-.07a.075.075 0 0 1 .07.079l-.125 2.172a.948.948 0 0 1-.357.7.628.628 0 0 1-.378.134Z" fill="#31185e" fill-rule="evenodd" data-name="Path 1819"/></g><g data-name="Group 1405"><path d="M906.692 7500.692h-.008c-1.603-.171-2.604-1.19-2.933-1.526-.04-.04-.081-.083-.093-.091a.073.073 0 0 1-.034-.098.077.077 0 0 1 .102-.035c.026.013.05.037.131.12.32.325 1.294 1.316 2.843 1.481.041.005.07.042.067.083a.075.075 0 0 1-.075.066Z" fill="#31185e" fill-rule="evenodd" data-name="Path 1820"/></g><path d="M891.344 7493.678a2.528 2.528 0 1 0 5.005.72 2.528 2.528 0 0 0-5.005-.72Z" fill="#f8bd8c" fill-rule="evenodd" data-name="Path 1821"/><path d="M894.492 7491.574c-.798.332.371-10.46 2.877-12.51 1.13-.924 9.588-4.529 11.651-3.298 2.261 1.349-2.016 7.479-2.016 7.479s-3.227 4.458-12.512 8.33Z" fill-rule="evenodd" data-name="Path 1822"/><path d="m907.057 7483.058 8.227 6.596 2.229-.24s3.468-9.713-8.181-13.636c-11.65-3.924-2.275 7.28-2.275 7.28Z" fill-rule="evenodd" data-name="Path 1823"/><path d="m939.443 7556.178 6.833-3.712s6.414-.642 7.803 1.485c1.02 1.56 1.16 4.225.676 5.978-.219.795-1.125 1.17-1.827.733-1.152-.715-3.041-1.72-4.69-1.817 0 0-4.715 4.304-7.995 3.873-1.67-.22-6.152-4.759-6.152-4.759l5.352-1.781Z" fill="#f8bd8c" fill-rule="evenodd" data-name="Path 1824"/><path d="M894.303 7507.18c.373.136 13.291.681 13.333 1.09.044.408.39 6.742.39 6.742l-1.834 4.222s-5.474.75-5.922.613c-.448-.136-5.283-1.362-5.283-1.362l-.684-11.305Z" fill="#138b97" fill-rule="evenodd" data-name="Path 1825"/><path d="m900.31 7530.444 3.668 18.456a3.14 3.14 0 0 0 2.966 2.648l31.898 1.383a3.14 3.14 0 0 1 3.004 3.137v7.029a3.14 3.14 0 0 1-3.216 3.14l-36.986-.897c-.061-.002-.123 0-.185.003-1.363.06-2.43-.346-3.227-1.06a.474.474 0 0 0-.518-.072.473.473 0 0 1-.256.043c-1.272-.134-10.56-2.24-13.638-34.85-.568-6.015 7.992-8.781 12.38-6.061 1.54.954 3.011 2.521 3.303 4.373l.806 2.728Z" fill="#138b97" fill-rule="evenodd" data-name="Path 1826"/><g data-name="Group 1406"><path d="M908.545 7593.502h-25.792c-3.974 0-7.717-.676-11.125-2.01-9.168-3.592-15.48-11.91-17.319-22.82l-6.4-37.992a1.423 1.423 0 1 1 2.808-.473l6.4 37.993c1.692 10.045 7.215 17.376 15.549 20.641 3.076 1.203 6.47 1.814 10.087 1.814h25.792a1.424 1.424 0 0 1 0 2.847Z" fill="#10071a" fill-rule="evenodd" data-name="Path 1827"/></g><path d="m913.694 7645.806 1.065-5.265a1.497 1.497 0 0 1 1.69-1.187c2.014.311 5.732.457 7.878-2.116a1.483 1.483 0 0 1 1.676-.413l15.501 6.037a1.5 1.5 0 0 1-.398 2.893l-25.726 2.535a1.501 1.501 0 0 1-1.641-1.349l-.068-.691a1.495 1.495 0 0 1 .023-.444Z" fill="#1d2433" fill-rule="evenodd" data-name="Path 1828"/><path d="M1040.41 7549.396h-9.394a.443.443 0 0 0-.443.443v13.843c0 .244.199.442.443.442h9.394a.443.443 0 0 0 .443-.442v-2.177c0-.212.15-.392.357-.433a4.406 4.406 0 0 0 3.533-4.312 4.406 4.406 0 0 0-3.533-4.312.442.442 0 0 1-.357-.432v-2.177a.443.443 0 0 0-.443-.443Zm1.077 9.585c-.29.15-.634-.074-.634-.399v-3.644c0-.326.344-.549.634-.4a2.501 2.501 0 0 1 1.355 2.222c0 .966-.551 1.805-1.355 2.221Z" fill="#3aa5a9" fill-rule="evenodd" data-name="Path 1829"/></g><path d="m946.652 7645.29 1.607-5.126a1.497 1.497 0 0 1 1.804-1.005c1.97.52 5.653 1.05 8.054-1.285a1.482 1.482 0 0 1 1.71-.237l14.791 7.614a1.502 1.502 0 0 1-.696 2.836l-25.851-.151a1.502 1.502 0 0 1-1.492-1.512l.004-.695c.002-.149.025-.297.069-.438Z" fill="#1d2433" fill-rule="evenodd" data-name="Path 1830"/></g></g></svg>