<svg version= "1.1"
    xmlns="http://www.w3.org/2000/svg"
    xmlnsXlink="http://www.w3.org/1999/xlink">
    <defs>
        <symbol id='icon-crunchCraftLogo' width="49" height="49">
            <path d="M44.465 24.196c1.093 0 1.94.96 1.796 2.039-1.496 11.364-11.243 20.13-23.033 20.13C10.384 46.378-.026 35.975 0 23.144.026 10.364 10.528-.052 23.345 0c5.05.026 9.721 1.65 13.52 4.403.521.377.781.961.781 1.545a1.915 1.915 0 0 1-3.032 1.558 19.365 19.365 0 0 0-11.373-3.675c-10.762 0-19.467 8.741-19.39 19.495.079 10.571 8.759 19.195 19.351 19.208 9.044.026 16.657-6.156 18.817-14.507h-6.637c-1.926 4.805-6.636 8.208-12.14 8.208-7.288 0-13.183-5.948-13.079-13.234.091-7.052 5.895-12.806 12.961-12.87a13.037 13.037 0 0 1 6.116 1.454 1.937 1.937 0 0 1 .65 2.91c-.572.752-1.6.973-2.446.545a9.19 9.19 0 0 0-4.216-1.026c-5.153 0-9.304 4.22-9.187 9.39.117 4.779 3.956 8.714 8.745 8.935a9.202 9.202 0 0 0 9.226-6.507 2.299 2.299 0 0 1 2.2-1.636" fill-rule="evenodd" data-name="Path 1"/>
        </symbol>
        <symbol id='icon-contactUsLogo'>
            <svg xmlns="http://www.w3.org/2000/svg" width="49" height="49" viewBox="1178 51.95 49 49">
                <g data-name="Group 7">
                    <path d="M1178 76.4a24.5 24.5 0 1 1 0 .1z" fill="#3aa5a9" fill-rule="evenodd" data-name="Ellipse 3"/>
                    <path d="M1215.441 81.61V71.547c0-.77-.3-1.493-.847-2.04a2.867 2.867 0 0 0-2.04-.847h-17.2a2.89 2.89 0 0 0-2.886 2.887v.884h-4.221a.785.785 0 1 0 0 1.57h4.22v1.793h-7.584a.785.785 0 1 0 0 1.57h7.585v1.794h-4.222a.785.785 0 1 0 0 1.57h4.222v.884c0 .769.3 1.493.847 2.04.547.546 1.27.847 2.04.847h17.2a2.89 2.89 0 0 0 2.886-2.887Zm-3.378-11.381-8.109 5.406-8.109-5.406h16.218Zm.491 12.699h-17.2c-.349 0-.679-.138-.929-.388s-.387-.58-.387-.93V71.546c0-.197.044-.384.122-.553l9.359 6.24a.785.785 0 0 0 .87 0l9.36-6.24c.08.172.122.36.122.554V81.61c0 .726-.59 1.317-1.317 1.317Zm0 0" fill="#fff" fill-rule="evenodd" data-name="sent"/>
                </g>
            </svg>
        </symbol>
        <symbol id='icon-behanceLogo'>
            <svg xmlns="http://www.w3.org/2000/svg" width="" height="" fill="" class="bi bi-behance" viewBox="0 0 16 16">
                <path d="M4.654 3c.461 0 .887.035 1.278.14.39.07.711.216.996.391.286.176.497.426.641.747.14.32.216.711.216 1.137 0 .496-.106.922-.356 1.242-.215.32-.566.606-.997.817.606.176 1.067.496 1.348.922.281.426.461.957.461 1.563 0 .496-.105.922-.285 1.278a2.317 2.317 0 0 1-.782.887c-.32.215-.711.39-1.137.496a5.329 5.329 0 0 1-1.278.176L0 12.803V3h4.654zm-.285 3.978c.39 0 .71-.105.957-.285.246-.18.355-.497.355-.887 0-.216-.035-.426-.105-.567a.981.981 0 0 0-.32-.355 1.84 1.84 0 0 0-.461-.176c-.176-.035-.356-.035-.567-.035H2.17v2.31c0-.005 2.2-.005 2.2-.005zm.105 4.193c.215 0 .426-.035.606-.07.176-.035.356-.106.496-.216s.25-.215.356-.39c.07-.176.14-.391.14-.641 0-.496-.14-.852-.426-1.102-.285-.215-.676-.32-1.137-.32H2.17v2.734h2.305v.005zm6.858-.035c.286.285.711.426 1.278.426.39 0 .746-.106 1.032-.286.285-.215.46-.426.53-.64h1.74c-.286.851-.712 1.457-1.278 1.848-.566.355-1.243.566-2.06.566a4.135 4.135 0 0 1-1.527-.285 2.827 2.827 0 0 1-1.137-.782 2.851 2.851 0 0 1-.712-1.172c-.175-.461-.25-.957-.25-1.528 0-.531.07-1.032.25-1.493.18-.46.426-.852.747-1.207.32-.32.711-.606 1.137-.782a4.018 4.018 0 0 1 1.493-.285c.606 0 1.137.105 1.598.355.46.25.817.532 1.102.958.285.39.496.851.641 1.348.07.496.105.996.07 1.563h-5.15c0 .58.21 1.11.496 1.396zm2.24-3.732c-.25-.25-.642-.391-1.103-.391-.32 0-.566.07-.781.176-.215.105-.356.25-.496.39a.957.957 0 0 0-.25.497c-.036.175-.07.32-.07.46h3.196c-.07-.526-.25-.882-.497-1.132zm-3.127-3.728h3.978v.957h-3.978v-.957z"/>
            </svg>
        </symbol>
        <symbol id='icon-facebookLogo' >
            <svg xmlns="http://www.w3.org/2000/svg" viewBox="0 0 320 512">
                <path d="M279.14 288l14.22-92.66h-88.91v-60.13c0-25.35 12.42-50.06 52.24-50.06h40.42V6.26S260.43 0 225.36 0c-73.22 0-121.08 44.38-121.08 124.72v70.62H22.89V288h81.39v224h100.17V288z"/>
            </svg>
        </symbol>
        <symbol id='icon-youtubeLogo' >
            <svg xmlns="http://www.w3.org/2000/svg" viewBox="0 0 256 512">
                <path d="M246.6 278.6c12.5-12.5 12.5-32.8 0-45.3l-128-128c-9.2-9.2-22.9-11.9-34.9-6.9s-19.8 16.6-19.8 29.6l0 256c0 12.9 7.8 24.6 19.8 29.6s25.7 2.2 34.9-6.9l128-128z"/>
            </svg>
        </symbol>
        <symbol id='icon-instagramLogo' >
            <svg xmlns="http://www.w3.org/2000/svg" viewBox="0 0 448 512">
                <path d="M224.1 141c-63.6 0-114.9 51.3-114.9 114.9s51.3 114.9 114.9 114.9S339 319.5 339 255.9 287.7 141 224.1 141zm0 189.6c-41.1 0-74.7-33.5-74.7-74.7s33.5-74.7 74.7-74.7 74.7 33.5 74.7 74.7-33.6 74.7-74.7 74.7zm146.4-194.3c0 14.9-12 26.8-26.8 26.8-14.9 0-26.8-12-26.8-26.8s12-26.8 26.8-26.8 26.8 12 26.8 26.8zm76.1 27.2c-1.7-35.9-9.9-67.7-36.2-93.9-26.2-26.2-58-34.4-93.9-36.2-37-2.1-147.9-2.1-184.9 0-35.8 1.7-67.6 9.9-93.9 36.1s-34.4 58-36.2 93.9c-2.1 37-2.1 147.9 0 184.9 1.7 35.9 9.9 67.7 36.2 93.9s58 34.4 93.9 36.2c37 2.1 147.9 2.1 184.9 0 35.9-1.7 67.7-9.9 93.9-36.2 26.2-26.2 34.4-58 36.2-93.9 2.1-37 2.1-147.8 0-184.8zM398.8 388c-7.8 19.6-22.9 34.7-42.6 42.6-29.5 11.7-99.5 9-132.1 9s-102.7 2.6-132.1-9c-19.6-7.8-34.7-22.9-42.6-42.6-11.7-29.5-9-99.5-9-132.1s-2.6-102.7 9-132.1c7.8-19.6 22.9-34.7 42.6-42.6 29.5-11.7 99.5-9 132.1-9s102.7-2.6 132.1 9c19.6 7.8 34.7 22.9 42.6 42.6 11.7 29.5 9 99.5 9 132.1s2.7 102.7-9 132.1z"/>
            </svg>
        </symbol>
        <symbol id='icon-LinkedInLogo' >
            <svg xmlns="http://www.w3.org/2000/svg" viewBox="0 0 448 512">
                <path d="M100.28 448H7.4V148.9h92.88zM53.79 108.1C24.09 108.1 0 83.5 0 53.8a53.79 53.79 0 0 1 107.58 0c0 29.7-24.1 54.3-53.79 54.3zM447.9 448h-92.68V302.4c0-34.7-.7-79.2-48.29-79.2-48.29 0-55.69 37.7-55.69 76.7V448h-92.78V148.9h89.08v40.8h1.3c12.4-23.5 42.69-48.3 87.88-48.3 94 0 111.28 61.9 111.28 142.3V448z"/>
            </svg>
        </symbol>
    </defs>
</svg>