<svg xmlns="http://www.w3.org/2000/svg" width="79.117" height="79.094" viewBox="960.869 1875 79.117 79.094"><g data-name="CompositeLayer"><path d="M960.87 1875h79.117v79.094h-79.118V1875Z" fill="#fce181" fill-rule="evenodd" data-name="Path 1451"/><g data-name="smartphone"><path d="M995.729 1899.608a.822.822 0 0 1-.812-.666.828.828 0 0 1 .352-.85.852.852 0 0 1 .298-.123.835.835 0 0 1 .85.352.856.856 0 0 1 .14.46.827.827 0 0 1-.243.585.834.834 0 0 1-.585.242Zm0 0" fill-rule="evenodd" data-name="Path 1352"/><path d="M1008.44 1893.648H992.15a3.76 3.76 0 0 0-3.755 3.755v34.89a3.76 3.76 0 0 0 3.755 3.755h16.289a3.76 3.76 0 0 0 3.755-3.755v-34.89a3.76 3.76 0 0 0-3.755-3.755Zm-16.289 1.656h16.289c1.157 0 2.098.942 2.098 2.1v.548h-10.85a.828.828 0 1 0 0 1.657h10.85v29.65h-20.485v-29.65h2.183a.828.828 0 0 0 0-1.657h-2.183v-.549c0-1.157.941-2.099 2.098-2.099Zm18.388 36.989a2.101 2.101 0 0 1-2.1 2.098h-16.288a2.101 2.101 0 0 1-2.098-2.098v-1.379h20.486v1.379Zm0 0" fill-rule="evenodd" data-name="Path 1353"/><path d="M998.567 1912.332h-5.844a.828.828 0 0 1-.828-.828v-5.844c0-.457.37-.828.828-.828h5.844c.458 0 .828.37.828.828v5.844c0 .457-.37.828-.828.828Zm-5.016-1.656h4.188v-4.188h-4.188v4.188Zm0 0" fill-rule="evenodd" data-name="Path 1354"/><path d="M1007.868 1912.332h-5.844a.828.828 0 0 1-.828-.828v-5.844c0-.457.37-.828.828-.828h5.844c.457 0 .828.37.828.828v5.844c0 .457-.37.828-.828.828Zm-5.016-1.656h4.188v-4.188h-4.188v4.188Zm0 0" fill-rule="evenodd" data-name="Path 1355"/><path d="M998.567 1921.55h-5.844a.828.828 0 0 1-.828-.829v-5.844c0-.457.37-.828.828-.828h5.844c.458 0 .828.371.828.828v5.844c0 .458-.37.829-.828.829Zm-5.016-1.657h4.188v-4.188h-4.188v4.188Zm0 0" fill-rule="evenodd" data-name="Path 1356"/><path d="M1007.868 1921.55h-5.844a.828.828 0 0 1-.828-.829v-5.844c0-.457.37-.828.828-.828h5.844c.457 0 .828.371.828.828v5.844c0 .458-.37.829-.828.829Zm-5.016-1.657h4.188v-4.188h-4.188v4.188Zm0 0" fill-rule="evenodd" data-name="Path 1357"/><path d="M1001.317 1933.48h-2.043a.828.828 0 1 1 0-1.655h2.043a.828.828 0 1 1 0 1.656Zm0 0" fill-rule="evenodd" data-name="Path 1358"/><path d="M1003.028 1925.2h-5.465a.828.828 0 1 1 0-1.657h5.465a.828.828 0 0 1 0 1.656Zm0 0" fill-rule="evenodd" data-name="Path 1359"/></g></g></svg>