<svg xmlns="http://www.w3.org/2000/svg" width="78.5" height="79.093" viewBox="187.001 1875 78.5 79.093"><g data-name="CompositeLayer"><path d="M187.75 1954.093H265.5v-78.69c-48.51.255-84.174-11.77-77.752 78.69Z" fill="#3aa5a9" fill-rule="evenodd" data-name="Path 1448"/><g data-name="plan"><path d="M211.887 1933.892h30.911c2.448 0 4.468-1.996 4.468-4.444v-20.76a4.464 4.464 0 0 0-4.418-4.438l-6.547-.052a7.385 7.385 0 0 0-12.212-.095l-7.897-.062v-2.176c0-2.361-1.933-4.32-4.285-4.32h-.021c-3.346 0-6.079 2.683-6.203 6.012h-.035v23.769h.038c-.006.092-.038.218-.038.328v.01a6.252 6.252 0 0 0 6.239 6.228Zm12.981-28.223a5.91 5.91 0 1 1 7.927 7.926c-.007.004-.035.01-.042.013a.759.759 0 0 0-.47.68v1.2h-1.386v-3.545a2.039 2.039 0 1 0-1.48 0v3.545h-1.387v-1.2a.759.759 0 0 0-.47-.68c-.007-.004-.024-.009-.032-.013a5.92 5.92 0 0 1-2.66-7.926Zm4.73 4.374a.56.56 0 1 1 1.118 0 .56.56 0 0 1-1.119 0Zm2.686 6.925v.832h-4.254v-.832h4.254Zm.032 2.312a1.166 1.166 0 0 1-1.143 1.017h-2.033a1.166 1.166 0 0 1-1.142-1.017h4.318Zm-25.188-15.476c0-2.611 2.148-4.778 4.76-4.778h.01c1.545 0 2.814 1.294 2.814 2.84v16.777c0 1.544-1.27 2.764-2.813 2.764h-.006c-1.896 0-3.563.891-4.765 2.234v-19.837Zm0 23.85a4.796 4.796 0 0 1 4.765-4.767h.005c2.36 0 4.294-1.883 4.294-4.244v-13.122l7.127.055a7.378 7.378 0 0 0 3.23 9.158v4.398c0 1.45 1.14 2.645 2.591 2.645h2.033c1.45 0 2.59-1.195 2.59-2.645v-4.4a7.37 7.37 0 0 0 3.287-9.048l5.781.045a2.984 2.984 0 0 1 2.955 2.96v20.76a2.991 2.991 0 0 1-2.988 2.963h-30.91a4.77 4.77 0 0 1-4.76-4.746v-.011Zm0 0" fill="#fff" fill-rule="evenodd" data-name="Path 1432"/><path d="M230.157 1899.502a.74.74 0 0 0 .74-.74v-2.598a.74.74 0 0 0-1.48 0v2.598c0 .409.331.74.74.74Zm0 0" fill="#fff" fill-rule="evenodd" data-name="Path 1433"/><path d="M239.56 1908.829h2.567a.74.74 0 1 0 0-1.48h-2.568a.74.74 0 0 0 0 1.48Zm0 0" fill="#fff" fill-rule="evenodd" data-name="Path 1434"/><path d="M218.187 1908.829h2.567a.74.74 0 1 0 0-1.48h-2.567a.74.74 0 0 0 0 1.48Zm0 0" fill="#fff" fill-rule="evenodd" data-name="Path 1435"/><path d="M236.714 1902.193a.737.737 0 0 0 .523-.217l1.794-1.794a.74.74 0 0 0-1.046-1.047l-1.794 1.795a.74.74 0 0 0 .523 1.262Zm0 0" fill="#fff" fill-rule="evenodd" data-name="Path 1436"/><path d="M223.076 1901.976a.74.74 0 0 0 1.047-1.046l-1.794-1.795a.74.74 0 0 0-1.046 1.047l1.793 1.794Zm0 0" fill="#fff" fill-rule="evenodd" data-name="Path 1437"/></g></g></svg>