<svg xmlns="http://www.w3.org/2000/svg" width="78.298" height="78.757" viewBox="702.932 2130.746 78.298 78.757"><g data-name="CompositeLayer"><path d="M702.932 2209.054c91.203 4.617 77.214-26.755 77.893-77.549-85.833-5.975-76.597 23.632-77.893 77.549Z" fill="#9fedd7" fill-rule="evenodd" data-name="Path 1453"/><g data-name="shout (1)"><path d="M732.029 2175.794a.828.828 0 1 0-.829-1.433.828.828 0 0 0 .829 1.433Zm0 0" fill-rule="evenodd" data-name="Path 1365"/><path d="m728.637 2181.507 4.168 7.22a3.315 3.315 0 0 0 4.523 1.212 3.31 3.31 0 0 0 1.211-4.522l-2.483-4.302 2.15-1.241a.828.828 0 0 0 .304-1.13l-1.077-1.865 15.854-3.11c1.84-.1 2.942-2.112 2.013-3.72l-2.751-4.765 1.758-2.662a.828.828 0 0 0 .026-.87l-1.656-2.867a.83.83 0 0 0-.766-.413l-3.185.191-3.053-5.29a2.461 2.461 0 0 0-2.12-1.24h-.031c-.855 0-1.631.425-2.09 1.144l-10.813 13.774-7.03 4.059a5.797 5.797 0 0 0-2.12 7.914c1.463 2.535 4.548 3.532 7.168 2.483Zm8.47 4.738a1.654 1.654 0 1 1-2.868 1.655l-4.139-7.17 2.867-1.655c4.79 8.297 4.062 7.037 4.14 7.17Zm-1.878-6.564-.828-1.433 1.433-.828.828 1.434-1.433.827Zm16.27-19.526 1.144 1.981-1.02 1.545-1.971-3.415 1.848-.11Zm-8.683-5.97a.81.81 0 0 1 .717-.397.813.813 0 0 1 .706.413l9.627 16.675a.827.827 0 0 1-.696 1.241c-.113.003-.165.023-.454.077l-10.184-17.638c.214-.275.241-.302.284-.371Zm-1.386 1.774 9.568 16.572-14.44 2.832-4.39-7.604 9.262-11.8Zm-18.528 22.237a4.133 4.133 0 0 1 1.515-5.653l6.451-3.724 4.139 7.167-6.451 3.725a4.144 4.144 0 0 1-5.654-1.515Zm0 0" fill-rule="evenodd" data-name="Path 1366"/><path d="M729.464 2176.32a.828.828 0 0 0-1.13-.304l-1.434.828a.829.829 0 0 1-1.13-.303.828.828 0 0 0-1.434.828 2.486 2.486 0 0 0 3.392.908l1.433-.827a.828.828 0 0 0 .303-1.13Zm0 0" fill-rule="evenodd" data-name="Path 1367"/><path d="m761.84 2153.903-4.612 2.566a.828.828 0 0 0 .805 1.447l4.612-2.567a.828.828 0 1 0-.805-1.446Zm0 0" fill-rule="evenodd" data-name="Path 1368"/><path d="m761.356 2162.475-3.198-.857a.828.828 0 1 0-.428 1.6l3.198.856a.828.828 0 1 0 .428-1.599Zm0 0" fill-rule="evenodd" data-name="Path 1369"/><path d="m753.32 2150.896-.858 3.198a.828.828 0 0 0 1.6.429l.857-3.199a.828.828 0 0 0-1.6-.428Zm0 0" fill-rule="evenodd" data-name="Path 1370"/></g></g></svg>