<svg xmlns="http://www.w3.org/2000/svg" width="76.072" height="79.177" viewBox="187.297 2130.746 76.072 79.177"><g data-name="CompositeLayer"><path d="M187.297 2131.455c13.788.649 73.72-10.664 76.01 37.82 2.288 38.651-59.124 64.374-76.01 7.676v-45.496Z" fill="#3aa5a9" fill-rule="evenodd" data-name="Path 1452"/><g data-name="joystick"><g data-name="Group 1316"><g data-name="Group 1315"><path d="M244.853 2175.473c-.099-2.282-.496-4.811-1.09-7.192-.596-2.281-1.34-4.414-2.232-6.05-3.472-6.1-7.241-5.158-11.755-3.968-1.438.347-2.975.744-4.562.893h-.496c-1.587-.149-3.125-.546-4.563-.893-4.513-1.14-8.282-2.133-11.754 4.017-.893 1.637-1.686 3.77-2.232 6.05-.595 2.381-.992 4.91-1.091 7.192-.1 2.53.149 4.365.694 5.654.546 1.19 1.34 1.934 2.38 2.232.943.248 2.034.149 3.175-.347 1.934-.794 4.166-2.48 6.348-4.513 1.538-1.488 4.414-2.232 7.29-2.232 2.877 0 5.754.744 7.291 2.232 2.182 2.033 4.414 3.72 6.348 4.513 1.141.446 2.232.595 3.175.347.991-.298 1.835-.992 2.38-2.282.546-1.24.794-3.074.694-5.653Zm-2.38 4.96c-.298.693-.694 1.09-1.19 1.24-.546.148-1.24.049-2.034-.249-1.736-.694-3.77-2.232-5.753-4.116-1.885-1.885-5.207-2.827-8.53-2.827-3.323 0-6.646.942-8.58 2.727-2.034 1.885-4.067 3.472-5.753 4.117-.794.297-1.488.446-2.034.248-.496-.149-.893-.546-1.19-1.24-.397-.942-.595-2.48-.496-4.761a34.21 34.21 0 0 1 1.041-6.844c.546-2.133 1.24-4.117 2.083-5.605 2.728-4.91 5.902-4.116 9.672-3.124 1.537.397 3.124.793 4.86.942h.744c1.785-.149 3.372-.545 4.91-.942 3.77-.942 6.943-1.786 9.67 3.124.844 1.488 1.538 3.422 2.084 5.605.545 2.281.942 4.662 1.041 6.844.1 2.281-.099 3.819-.545 4.86Z" fill="#fff" fill-rule="evenodd" data-name="Path 1374"/></g></g><g data-name="Group 1318"><g data-name="Group 1317"><path d="M220.403 2165.802c-.496-.447-1.091-.794-1.786-.844a2.822 2.822 0 0 0-.793-1.735l-.05-.05a2.809 2.809 0 0 0-2.033-.843c-.794 0-1.538.347-2.033.843-.447.446-.794 1.091-.844 1.785-.694.05-1.29.348-1.785.794l-.05.05a2.809 2.809 0 0 0-.843 2.033c0 .793.347 1.537.843 2.033a2.765 2.765 0 0 0 1.835.843c.05.695.348 1.34.844 1.786.545.545 1.24.843 2.033.843.793 0 1.537-.347 2.033-.843.447-.496.794-1.091.843-1.786.695-.05 1.34-.347 1.786-.843.545-.545.843-1.24.843-2.033 0-.794-.347-1.538-.843-2.033Zm-1.24 2.777a1.01 1.01 0 0 1-.744.297h-.694a.942.942 0 0 0-.943.943v.644c0 .298-.099.546-.297.744a1.01 1.01 0 0 1-.744.298c-.298 0-.546-.1-.744-.298a1.01 1.01 0 0 1-.298-.744v-.694a.942.942 0 0 0-.942-.942h-.694c-.298 0-.546-.1-.744-.298a1.005 1.005 0 0 1-.298-.694c0-.298.1-.546.298-.744l.05-.05c.198-.148.446-.248.694-.248h.694a.942.942 0 0 0 .942-.942v-.694c0-.298.1-.546.298-.744a1.01 1.01 0 0 1 .744-.298c.298 0 .545.1.744.298l.05.05c.148.198.247.446.247.694v.694c0 .496.397.942.943.942h.694c.298 0 .546.1.744.298.198.198.298.446.298.744 0 .297-.1.545-.298.744Z" fill="#fff" fill-rule="evenodd" data-name="Path 1375"/></g></g><g data-name="Group 1320"><g data-name="Group 1319"><path d="M231.86 2164.214a1.736 1.736 0 1 1 0 .1z" fill="#fff" fill-rule="evenodd" data-name="Ellipse 107"/></g></g><g data-name="Group 1322"><g data-name="Group 1321"><path d="M231.86 2171.256a1.736 1.736 0 1 1 0 .1z" fill="#fff" fill-rule="evenodd" data-name="Ellipse 108"/></g></g><g data-name="Group 1324"><g data-name="Group 1323"><path d="M228.338 2167.735a1.736 1.736 0 1 1 0 .1z" fill="#fff" fill-rule="evenodd" data-name="Ellipse 109"/></g></g><g data-name="Group 1326"><g data-name="Group 1325"><path d="M235.38 2167.735a1.736 1.736 0 1 1 0 .1z" fill="#fff" fill-rule="evenodd" data-name="Ellipse 110"/></g></g></g></g></svg>