<svg xmlns="http://www.w3.org/2000/svg" width="526.346" height="304.745" viewBox="700.58 1435.035 526.346 304.745"><g data-name="Group 5650"><path d="M977.94 1708.524c1.204.022 2.41-.131 3.323-.263 4.727-.68 9.473.22 14.196.454 2.346.115 4.541-.234 6.858-.363 1.798-.097 3.503.047 5.022-1.203.853-.702 1.397-1.873 1.082-2.93-.45-1.516-2.268-2.07-3.817-2.39l-11.343-2.34c-1.526-.315-4.485-.962-4.83-2.853-.166-.915.363-2.453.45-3.415.111-1.197.193-2.398.246-3.598.094-2.181.793-4.31-1.958-4.46l-8.823-.474c-.279-.016-.572-.027-.823.093-.441.213-.604.745-.721 1.22l-1.207 4.864c-.625 2.517-1.25 5.04-1.646 7.605-.282 1.823-.248 3.661-.424 5.49-.108 1.123-.41 2.241.413 3.175.917 1.039 2.458 1.359 4.001 1.388Z" fill-rule="evenodd" data-name="Path 811"/><path d="M999.897 1718.412c.158.751.496 1.336 1.086 1.634 1.176.591 3.187.486 4.477.713 2.123.375 4.283.606 6.438.417 1.598-.141 3.173-.505 4.775-.572 4.562-.188 9.222 1.559 13.726.266 1.553-.446 4.18-1.449 4.647-3.221.615-2.332-1.46-3.8-3.387-4.336-2.484-.692-5.06-1.008-7.637-1.072-1.043-.026-2.098-.013-3.115-.247-2.59-.596-3.602-2.687-3.02-5.089.775-3.201 1.515-6.412 2.272-9.619-5.274-.727-10.62.156-15.872 1.037-.325.054-.678.122-.899.367-.166.183-.232.434-.29.674-.835 3.495-.407 6.788-1.581 10.137-.568 1.617-2.176 6.284-1.62 8.91Z" fill-rule="evenodd" data-name="Path 812"/><g data-name="Path 813"><path d="M853.405 1518.16c1.008-.355 2.096-.527 3.144-.769 1.994-.461 3.166-1.415 4.582-2.807.9-.883 1.82-1.798 2.98-2.296 3.694-1.587 5.556 1.626 4.199 4.8-1.063 2.487-2.761 5.05-5.233 6.296-2.73 1.376-5.527 1.465-7.982 3.418-.623.497-7.127 5.964-6.856 6.3-1.22-1.514-3.86-4.812-3.715-6.856 1.824-.529 3.06-1.812 4.104-3.354 1.022-1.51 1.958-3.173 3.506-4.134.4-.25.828-.442 1.27-.598Z" fill="#fff" fill-rule="evenodd"/><path d="M853.405 1518.16c1.008-.355 2.096-.527 3.144-.769 1.994-.461 3.166-1.415 4.582-2.807.9-.883 1.82-1.798 2.98-2.296 3.694-1.587 5.556 1.626 4.199 4.8-1.063 2.487-2.761 5.05-5.233 6.296-2.73 1.376-5.527 1.465-7.982 3.418-.623.497-7.127 5.964-6.856 6.3-1.22-1.514-3.86-4.812-3.715-6.856 1.824-.529 3.06-1.812 4.104-3.354 1.022-1.51 1.958-3.173 3.506-4.134.4-.25.828-.442 1.27-.598Z" stroke-linejoin="round" stroke-linecap="round" stroke="#000" fill="transparent"/></g><g data-name="Group 1196"><g data-name="Group 1193"><path d="M795.575 1601.388h2.806v61.88h-2.806v-61.88z" fill="#110809" fill-rule="evenodd" data-name="Rectangle 108"/><path d="M772.45 1676.252c0-9.137 16.168-12.968 24.247-12.984 9.618-.02 24.247 3.527 24.247 12.984" stroke-linejoin="round" stroke-linecap="round" stroke-width="2" stroke="#110809" fill="transparent" data-name="Path 814"/><path d="M796.97 1678.695v-15.177" stroke-linejoin="round" stroke-linecap="round" stroke-width="2" stroke="#110809" fill="transparent" data-name="Line 20"/><path d="M824.911 1678.456a3.966 3.966 0 0 1-3.967 3.968 3.967 3.967 0 1 1 3.967-3.967Z" fill="#110809" fill-rule="evenodd" data-name="Path 815"/><path d="M800.865 1678.456a3.967 3.967 0 1 1-7.935 0 3.967 3.967 0 0 1 7.935 0Z" fill="#110809" fill-rule="evenodd" data-name="Path 816"/><path d="M776.818 1678.456a3.967 3.967 0 1 1-7.935 0 3.967 3.967 0 0 1 7.935 0Z" fill="#110809" fill-rule="evenodd" data-name="Path 817"/><g data-name="Path 818"><path d="M794.254 1580.617v-45.528c0-7.88-6.389-14.267-14.268-14.267h-15.71c-7.88 0-14.268 6.387-14.268 14.267v50.897c0 11.242 9.197 20.44 20.44 20.44h51.219a2.404 2.404 0 0 0 0-4.809h-6.413c-11.6 0-21-9.402-21-21Z" fill="#fff" fill-rule="evenodd"/><path d="M794.254 1580.617v-45.528c0-7.88-6.389-14.267-14.268-14.267h-15.71c-7.88 0-14.268 6.387-14.268 14.267v50.897c0 11.242 9.197 20.44 20.44 20.44h51.219a2.405 2.405 0 0 0 2.403-2.405h0a2.404 2.404 0 0 0-2.403-2.404h-6.413c-11.6 0-21-9.402-21-21Z" stroke-linejoin="round" stroke-linecap="round" stroke="#000" fill="transparent"/></g></g><g data-name="Group 1195"><g data-name="Group 1194"><g data-name="Path 819"><path d="M893.576 1665.805c.38.679.775 1.35 1.224 1.986 1.423 2.022 4.533 3.808 7.085 3.471 2.748-.364 5.439-1.336 8.208-1.202 1.019.05 2.092.282 2.823.994 3.198 3.116-4.424 5.904-6.523 6.534l-14.316 4.29c-.895.267-1.831.54-2.75.371-1.957-.28-2.797-1.587-3.337-3.232-.686-2.09-1.508-4.098-2.336-6.162a65.114 65.114 0 0 1-3.166-10.278c-.215-.979-.407-2.008-.127-2.969.409-1.405 1.899-2.602 3.365-2.599.655.002 1.291.2 1.916.397 4.415 1.395 5.786 4.542 7.934 8.399Z" fill="#fff" fill-rule="evenodd"/><path d="M893.576 1665.805c.38.679.775 1.35 1.224 1.986 1.423 2.022 4.533 3.808 7.085 3.471 2.748-.364 5.439-1.336 8.208-1.202 1.019.05 2.092.282 2.823.994 3.198 3.116-4.424 5.904-6.523 6.534l-14.316 4.29c-.895.267-1.831.54-2.75.371-1.957-.28-2.797-1.587-3.337-3.232-.686-2.09-1.508-4.098-2.336-6.162a65.114 65.114 0 0 1-3.166-10.278c-.215-.979-.407-2.008-.127-2.969.409-1.405 1.899-2.602 3.365-2.599.655.002 1.291.2 1.916.397 4.415 1.395 5.786 4.542 7.934 8.399Z" stroke-linejoin="round" stroke-linecap="round" stroke="#000" fill="transparent"/></g><path d="M866.444 1592.57c.1-3.166-.306-6.33-1.41-9.29-1.733-4.645-5.337-8.717-10.026-10.329-2.65-.912-5.499-1.019-8.3-1.118l-36.32-1.284c-10.53-.371-22.7 8.163-22.379 19.725.199 7.148 5.076 14.574 12.785 14.81.17.004.337-.014.507-.009 11.501.063 23.003.127 34.505.188 8.082.045 18.626 3.395 25.927-1.064 1.016-.622 1.98-1.375 2.657-2.356.793-1.145 1.154-2.532 1.425-3.898.35-1.766.572-3.57.63-5.375Z" fill-rule="evenodd" data-name="Path 820"/><path d="M819.172 1588.63c11.104 6.036-9.376 16.418-20.046 16.451l-18.545.03c-10.74 0-19.065-5.383-19.403-15.976v-32.044l41.116.1s4.812 24.88 16.878 31.44Z" fill-rule="evenodd" data-name="Path 821"/><path d="M859.354 1593.612c-8.63-5.754-43.465-14.205-48.212-16.073-9.4-3.7-19.763-5.246-29.808-3.921-8.52 1.123-17.453 2.564-19.568 12.176-1.894 8.61 3.549 17.124 12.16 19.018.196.044.39.063.583.106l80.01 15.8c.177.047.348.105.53.145.427.093.854.164 1.288.213 6.283.713 11.341-2.943 12.729-9.253 1.519-6.906-2.428-13.356-9.712-18.211Z" fill-rule="evenodd" data-name="Path 822"/><g data-name="Path 823"><path d="M848.585 1669.597c.032 2.399.365 4.504 2.503 6.536 3.142 2.985 8.013 3.408 11.39 6.124.305.246.605.52.763.875.31.697-.01 1.545-.562 2.07-2.966 2.832-9.78.058-13.235-.557l-13.05-2.327a2.09 2.09 0 0 1-1.689-2.472l2.506-12.4.357-1.837a5.527 5.527 0 0 1 6.6-4.346c2.619.57 4.426 3.034 4.43 5.758 0 .899-.025 1.754-.013 2.576Z" fill="#fff" fill-rule="evenodd"/><path d="M848.585 1669.597c.032 2.399.365 4.504 2.503 6.536 3.142 2.985 8.013 3.408 11.39 6.124.305.246.605.52.763.875.31.697-.01 1.545-.562 2.07-2.966 2.832-9.78.058-13.235-.557l-13.05-2.327a2.09 2.09 0 0 1-1.689-2.472l2.506-12.4.357-1.837a5.527 5.527 0 0 1 6.6-4.346c2.619.57 4.426 3.034 4.43 5.758 0 .899-.025 1.754-.013 2.576Z" stroke-linejoin="round" stroke-linecap="round" stroke="#000" fill="transparent"/></g><g data-name="Path 824"><path d="m804.113 1511.32-1.027-5.387a1597.91 1597.91 0 0 1 3.748 23.381c1.123 7.363 1.855 14.846 4.222 21.946.779 2.405 1.953 6.666 4.674 7.64 3.451 1.237 5.73.721 9.2.758 1.492.016 3.005.029 4.446-.356 4.021-1.075 6.603-4.945 8.367-8.715 1.965-4.2 3.926-6.936 7.683-9.688a97.516 97.516 0 0 0 7.541-6.114c.888-.795 3.121-2.218 3.533-3.327.465-1.253-.298-1.697-1.201-2.618-2.909-2.961-6.123-5.667-8.86-8.792l-8.142 7.534-5.794 5.363c-.929.86-6.037 4.283-5.965 5.133-.516-6.096-1.051-12.271-3.134-18.022-.24-.66-.502-1.324-.576-2.022-.097-.928.143-1.853.327-2.766.552-2.754.555-5.601.012-8.666-.31-1.764-.951-3.784-1.843-5.681-2.213-4.707-4.995-7.304-9.848-8.898-2.926-.962-5.87-1.926-8.916-2.377-.511-.075-1.202-.02-1.317.483-.046.197.022.399.067.597m4.955 28.392c.146-.024.31-.05.511-.086l-.511.086Zm-.497.084.175-.029-.175.029Z" fill="#fff" fill-rule="evenodd"/><path d="m804.113 1511.32-1.027-5.387a1597.91 1597.91 0 0 1 3.748 23.381c1.123 7.363 1.855 14.846 4.222 21.946.779 2.405 1.953 6.666 4.674 7.64 3.451 1.237 5.73.721 9.2.758 1.492.016 3.005.029 4.446-.356 4.021-1.075 6.603-4.945 8.367-8.715 1.965-4.2 3.926-6.936 7.683-9.688a97.516 97.516 0 0 0 7.541-6.114c.888-.795 3.121-2.218 3.533-3.327.465-1.253-.298-1.697-1.201-2.618-2.909-2.961-6.123-5.667-8.86-8.792l-8.142 7.534-5.794 5.363c-.929.86-6.037 4.283-5.965 5.133-.516-6.096-1.051-12.271-3.134-18.022-.24-.66-.502-1.324-.576-2.022-.097-.928.143-1.853.327-2.766.552-2.754.555-5.601.012-8.666-.31-1.764-.951-3.784-1.843-5.681-2.213-4.707-4.995-7.304-9.848-8.898-2.926-.962-5.87-1.926-8.916-2.377-.511-.075-1.202-.02-1.317.483-.046.197.022.399.067.597m4.955 28.392c.146-.024.31-.05.511-.086l-.511.086Zm-.497.084.175-.029-.175.029Z" stroke-linejoin="round" stroke-linecap="round" stroke="#000" fill="transparent"/></g><path d="M894.803 1662.614c-7.04-14.59-12.091-29.871-17.532-45.11-2.603-7.296-5.294-14.796-10.085-20.989-2.22-2.871-4.248-5.087-7.923-5.879-3.296-.71-6.798-.322-10.055.415-1.822.412-3.448 1.375-5.25 1.779-2.432.546-6.192-.034-7.157 3.027-.434 1.376-.183 2.87.144 4.275a42.239 42.239 0 0 0 2.198 6.786c1.186 2.825 2.681 5.523 3.676 8.42.76 2.207 1.223 4.514 2.106 6.676 1.415 3.462 3.894 6.459 6.935 8.635 1.846 1.32 3.951 2.405 5.25 4.265.953 1.364 1.04 2.77 1.6 4.25 1.47 3.88 3.153 8.03 6.666 10.237.926.583 1.979 1.029 2.666 1.88.47.581.726 1.3.977 2.002.758 2.119 1.579 4.26 2.971 6.025 1.258 1.595 2.921 2.81 4.197 4.383 1.347 1.66 1.68 3.583 2.608 5.453.27.543 16.104-6.331 16.008-6.53Z" fill-rule="evenodd" data-name="Path 825"/><g data-name="Path 826"><path d="M789.001 1489.789c-2.081.213-4.163.428-6.244.643-6.628.682-13.664 1.527-18.846 5.714-6.162 4.978-9.913 13.845-8.579 21.684.734 4.309 2.095 8.512 2.563 12.867a762.105 762.105 0 0 1 3.42 43.618c7.043-.327 14.1-.383 21.149-.753 8.641-.454 18.374-.834 26.663-3.971.966-12.014 4.227-23.885 4.04-35.947l-.273-17.684 10.585-1.56v-7.68s-2.56-16-21.919-16.931" fill="#3aa5a9" fill-rule="evenodd"/><path d="M789.001 1489.789c-2.081.213-4.163.428-6.244.643-6.628.682-13.664 1.527-18.846 5.714-6.162 4.978-9.913 13.845-8.579 21.684.734 4.309 2.095 8.512 2.563 12.867a762.105 762.105 0 0 1 3.42 43.618c7.043-.327 14.1-.383 21.149-.753 8.641-.454 18.374-.834 26.663-3.971.966-12.014 4.227-23.885 4.04-35.947l-.273-17.684 10.585-1.56v-7.68s-2.56-16-21.919-16.931" stroke-linejoin="round" stroke-linecap="round" stroke="#000" fill="transparent"/></g><path d="M864.621 1630.775c.163-.346.324-.694.48-1.044.31-.7.544-1.425.74-2.167 2.273-8.624 5.282-17.972 4.348-27.28-.815-8.13-.748-18.473-8.648-23.422-6.561-4.11-15.698-6.797-21.386.018-1.197 1.431-2.008 3.157-2.503 4.956-3.473 12.619 2.331 23.496.665 35.311-.42 2.97-.837 6.008-.234 8.945.2.975.51 1.93.642 2.917.32 2.425-.461 4.84-1.102 7.198-.681 2.506-1.216 5.086-1.102 7.68.117 2.665.916 5.272.945 7.94.022 1.958-.372 3.892-.766 5.81-.506 2.473-2.923 7.478.293 8.497 1.974.625 4.269.5 6.312 1.032.671.175 5.62 1.449 8.16 2.313.744.254 1.507-.254 1.61-1.034.463-3.508 2.148-7.196 3.07-10.505a349.938 349.938 0 0 0 3.401-13.19c.504-2.122.987-4.253 1.662-6.327.88-2.701 2.224-5.13 3.413-7.648Z" fill-rule="evenodd" data-name="Path 827"/><g data-name="Path 828"><path d="m805.222 1473.032-2.484-15.058-9.707 2.258c-6.158 1.432-9.99 7.587-8.557 13.747l.856 3.68a10.157 10.157 0 0 0 1.888 3.945l-1.952 9.13c-.985 4.296 1.819 8.546 6.158 9.33 4.337.783 8.45-2.218 9.03-6.588l1.542-10.443a10.207 10.207 0 0 0 3.226-10.001Z" fill="#fff" fill-rule="evenodd"/><path d="m805.222 1473.032-2.484-15.058-9.707 2.258c-6.158 1.432-9.99 7.587-8.557 13.747l.856 3.68a10.157 10.157 0 0 0 1.888 3.945l-1.952 9.13c-.985 4.296 1.819 8.546 6.158 9.33 4.337.783 8.45-2.218 9.03-6.588l1.542-10.443a10.207 10.207 0 0 0 3.226-10.001Z" stroke-linejoin="round" stroke-linecap="round" stroke="#000" fill="transparent"/></g><g data-name="Path 829"><path d="M807.84 1552.737c4.578 1.008 7.893 2.864 11.936 5.034 3.482 1.868 4.16 5.31-.468 6.144-2.52.457-5.116.91-7.62.374-2.624-.563-3.377-2.077-5.067-3.772-1.436-1.439-3.888-.734-5.97-1.643-.81-.352-1.626-.882-1.917-1.716-.287-.818.001-1.717.317-2.525.282-.727.606-1.47 1.18-1.996 1.135-1.045 2.898-.96 4.4-.61 1.059.247 2.134.473 3.209.71Z" fill="#fff" fill-rule="evenodd"/><path d="M807.84 1552.737c4.578 1.008 7.893 2.864 11.936 5.034 3.482 1.868 4.16 5.31-.468 6.144-2.52.457-5.116.91-7.62.374-2.624-.563-3.377-2.077-5.067-3.772-1.436-1.439-3.888-.734-5.97-1.643-.81-.352-1.626-.882-1.917-1.716-.287-.818.001-1.717.317-2.525.282-.727.606-1.47 1.18-1.996 1.135-1.045 2.898-.96 4.4-.61 1.059.247 2.134.473 3.209.71Z" stroke-linejoin="round" stroke-linecap="round" stroke="#000" fill="transparent"/></g><path d="M803.272 1460.464c-1.604 1.25-3.562 2.06-5.569 2.405-1.852.32-3.77.308-5.561.875-4.825 1.527-4.171 6.85-3.756 10.922.147 1.434-1.144 6.259-3.138 5.493-1.306 0-1.522-1.947-1.826-2.785-.592-1.617-1.257-3.211-1.883-4.817-.436-1.117-.88-2.28-.787-3.477.135-1.745 1.38-3.214 1.752-4.924.283-1.317.035-2.698.251-4.027.292-1.797 1.45-3.397 2.973-4.398 2.26-1.489 4.932-.907 7.215-2.157 1.253-.684 2.171-1.844 3.322-2.692a7.94 7.94 0 0 1 6.085-1.389c1.797.336 3.553 1.434 4.195 3.144.593 1.575.148 3.373-.676 4.839a9.984 9.984 0 0 1-2.597 2.988Z" fill-rule="evenodd" data-name="Path 830"/><path d="M790.42 1472.857a3.224 3.224 0 0 1-6.282 1.461 3.225 3.225 0 1 1 6.283-1.461Z" fill="#fff" fill-rule="evenodd" data-name="Path 831"/><g data-name="Path 832"><path d="M755.328 1510.974c-.776 6.552-.914 13.18-1.3 19.778-.42 7.188-.083 14.491 1.937 21.44.633 2.177 1.457 4.359 2.934 6.082 5.368 6.254 18.602 3.68 25.894 3.677l18.03-.006c.09-.28.165-.566.256-.845.478-2.467 2.075-8.311 2.514-10.797l-11.437-.934-9.879-.807c-2.647-.217-6.682.397-7.129-3.109-.157-1.232.023-2.535-.466-3.676-.726-1.698-2.765-2.642-3.243-4.425-.359-1.34.244-2.99.336-4.35.137-2.023 1.084-3.883 1.888-5.742a44.844 44.844 0 0 0 2.993-9.938l-.573-.037" fill="#fff" fill-rule="evenodd"/><path d="M755.328 1510.974c-.776 6.552-.914 13.18-1.3 19.778-.42 7.188-.083 14.491 1.937 21.44.633 2.177 1.457 4.359 2.934 6.082 5.368 6.254 18.602 3.68 25.894 3.677l18.03-.006c.09-.28.165-.566.256-.845.478-2.467 2.075-8.311 2.514-10.797l-11.437-.934-9.879-.807c-2.647-.217-6.682.397-7.129-3.109-.157-1.232.023-2.535-.466-3.676-.726-1.698-2.765-2.642-3.243-4.425-.359-1.34.244-2.99.336-4.35.137-2.023 1.084-3.883 1.888-5.742a44.844 44.844 0 0 0 2.993-9.938l-.573-.037" stroke-linejoin="round" stroke-linecap="round" stroke="#000" fill="transparent"/></g></g></g></g><g data-name="Union 1"><path d="M828.02 1561.308v-.002H816.3a2.444 2.444 0 0 1 2.444-2.441h9.276l70.141-3.205v4.43c0 .671-.548 1.218-1.22 1.218H828.02Z" fill="#fce181" fill-rule="evenodd"/><path d="M828.02 1561.308v-.002H816.3a2.444 2.444 0 0 1 2.444-2.441h9.276l70.141-3.205v4.43c0 .671-.548 1.218-1.22 1.218H828.02Z" stroke-linejoin="round" stroke-linecap="round" stroke="#000" fill="transparent"/></g><path d="M898.16 1558.865h-69.806l12.449-36.868c.428-1.268 1.698-2.13 3.136-2.13h62.924c2.216 0 3.796 1.982 3.137 3.934l-11.84 35.064Z" fill-rule="evenodd" data-name="Path 834"/><path d="M870.114 1540.238c-1.362-.058-2.653-1.16-1.735-2.763.383-.666 1.155-1.019 1.97-1.059a.598.598 0 0 0 .111-.016.58.58 0 0 0 .132.053c2.262.566 2.067 3.892-.478 3.785Z" fill="#fff" fill-rule="evenodd" data-name="Path 836"/><g data-name="Path 837"><path d="M826.67 1537.759c-.167.52-.528.953-.855 1.394-.33.444-.633.908-.91 1.388-.21.365-.511.647-.678 1.035" fill="#fff" fill-rule="evenodd"/><path d="M826.67 1537.759c-.167.52-.528.953-.855 1.394-.33.444-.633.908-.91 1.388-.21.365-.511.647-.678 1.035" stroke-linejoin="round" stroke-linecap="round" stroke="#000" fill="transparent"/></g><path d="M794.228 1482.785c2.123 2.646 4.97 4.674 6.882 7.477l.678-5.371c.123-.974.453-1.853.668-2.777-2.857.662-5.24 1.404-8.228.671Z" fill-rule="evenodd" data-name="Path 838"/><path d="M797.56 1476.032c.095.908.858 1.684 1.752 1.875.894.189 1.864-.169 2.487-.838.623-.669.914-1.61.867-2.524-.054-.023-.122.046-.096.1" fill-rule="evenodd" data-name="Path 839"/><path d="M787.734 1472.418c-.53-.109-1.119.072-1.473.484-.352.41-.439 1.042-.181 1.518.26.476.859.748 1.38.6" fill-rule="evenodd" data-name="Path 840"/><path d="M837.343 1626.18c-.276-3.292.06-6.638.99-9.809.692-2.367 1.498-4.464.938-6.896-.548-2.377-.906-4.31.006-6.767" stroke-linejoin="round" stroke-linecap="round" stroke="#fff" fill="transparent" data-name="Path 841"/><path d="M868.19 1579.785c5.543 14.25.794 30.158-3.127 44.936a394.16 394.16 0 0 0-6.557 29.13" stroke-linejoin="round" stroke-linecap="round" stroke="#fff" fill="transparent" data-name="Path 842"/><path d="M761.842 1554.083a2.456 2.456 0 0 0 .3 1.72c.17.28.398.53.68.696.663.392 1.495.288 2.256.171" fill-rule="evenodd" data-name="Path 843"/><path d="m797.737 1523.857.188-.155" fill-rule="evenodd" data-name="Path 844"/><g data-name="Group 1205"><g data-name="Path 848"><path d="M1091.511 1539.298c-.014 1.632.13 2.34-1.3 2.957-1.422.616-3.673.456-5.223.74-3.403.624-6.79 1.61-9.718 3.507-5.023 3.253-11.028 3.894-16.269 7.231-.875.558-1.748 1.157-2.745 1.447-1.242.362-2.565.215-3.858.17-3.755-.127-7.752.782-10.39 3.458-.902.916-1.64 2.318-1.022 3.447.319.58.93.937 1.533 1.21 4.562 2.06 9.363.71 13.779-.981 3.71-1.42 8.299-1.718 12.251-2.005 6.583-.48 13.258-.117 19.754-1.47 3.489-.728 7.015-1.626 10.215-3.23 2.93-1.469 6.565-2.948 7.978-6.167.273-.62.44-1.279.606-1.934 1.221-4.812 2.44-9.624 3.662-14.436.929-3.663.82-7.507.718-11.293a33.003 33.003 0 0 0-1.63-9.363c-.734-2.245-1.455-5.11-2.732-7.088-1.288-1.999-3.514-3.362-5.88-3.601-4.753-.48-9.269 2.612-8.958 7.645.381 6.15-1.649 12.208-.292 18.323.164.73.363 1.461.366 2.21.001.732-.183 1.448-.332 2.164-.489 2.348-.492 4.686-.513 7.059Z" fill="#fff" fill-rule="evenodd"/><path d="M1091.511 1539.298c-.014 1.632.13 2.34-1.3 2.957-1.422.616-3.673.456-5.223.74-3.403.624-6.79 1.61-9.718 3.507-5.023 3.253-11.028 3.894-16.269 7.231-.875.558-1.748 1.157-2.745 1.447-1.242.362-2.565.215-3.858.17-3.755-.127-7.752.782-10.39 3.458-.902.916-1.64 2.318-1.022 3.447.319.58.93.937 1.533 1.21 4.562 2.06 9.363.71 13.779-.981 3.71-1.42 8.299-1.718 12.251-2.005 6.583-.48 13.258-.117 19.754-1.47 3.489-.728 7.015-1.626 10.215-3.23 2.93-1.469 6.565-2.948 7.978-6.167.273-.62.44-1.279.606-1.934 1.221-4.812 2.44-9.624 3.662-14.436.929-3.663.82-7.507.718-11.293a33.003 33.003 0 0 0-1.63-9.363c-.734-2.245-1.455-5.11-2.732-7.088-1.288-1.999-3.514-3.362-5.88-3.601-4.753-.48-9.269 2.612-8.958 7.645.381 6.15-1.649 12.208-.292 18.323.164.73.363 1.461.366 2.21.001.732-.183 1.448-.332 2.164-.489 2.348-.492 4.686-.513 7.059Z" stroke-linejoin="round" stroke-linecap="round" stroke="#000" fill="transparent"/></g><g data-name="Group 1203"><path d="M1075.96 1649.267c1.917 2.86 3.29 5.573 2.78 9.388-.748 5.609-5.324 9.324-6.532 14.77-.11.49-.188 1.01-.058 1.537.253 1.03 1.264 1.82 2.248 2.079 5.294 1.392 9.925-6.387 12.917-9.398l11.291-11.367c1.007-1.003.87-2.83-.3-4.04l-12.605-13.022-1.85-1.937c-3.07-3.211-7.673-3.567-10.198-.787-2.182 2.402-2.008 6.51.202 9.736.73 1.064 1.45 2.06 2.105 3.041Z" fill="#110809" fill-rule="evenodd" data-name="Path 849"/><g data-name="Group 1201"><path d="M1120.859 1658.64h-2.806v-61.879h2.806v61.88z" fill="#110809" fill-rule="evenodd" data-name="Rectangle 109"/><path d="M1143.983 1671.625c0-9.137-16.167-12.97-24.246-12.984-9.618-.02-24.247 3.527-24.247 12.984" stroke-linejoin="round" stroke-linecap="round" stroke-width="2" stroke="#110809" fill="transparent" data-name="Path 850"/><path d="M1119.464 1674.068v-15.177" stroke-linejoin="round" stroke-linecap="round" stroke-width="2" stroke="#110809" fill="transparent" data-name="Line 24"/><path d="M1091.522 1673.83a3.967 3.967 0 1 0 7.935 0 3.967 3.967 0 0 0-7.935 0Z" fill="#110809" fill-rule="evenodd" data-name="Path 851"/><path d="M1115.569 1673.83a3.967 3.967 0 1 0 7.935 0 3.967 3.967 0 0 0-7.935 0Z" fill="#110809" fill-rule="evenodd" data-name="Path 852"/><path d="M1139.614 1673.83a3.968 3.968 0 1 0 7.935 0 3.968 3.968 0 0 0-7.935 0Z" fill="#110809" fill-rule="evenodd" data-name="Path 853"/><g data-name="Path 854"><path d="M1122.18 1575.99v-45.528c0-7.88 6.389-14.267 14.268-14.267h15.71c7.88 0 14.268 6.387 14.268 14.267v50.897c0 11.243-9.197 20.44-20.44 20.44h-51.219a2.404 2.404 0 0 1-2.403-2.405 2.402 2.402 0 0 1 2.403-2.404h6.413c11.598 0 21-9.402 21-21Z" fill="#fff" fill-rule="evenodd"/><path d="M1122.18 1575.99v-45.528c0-7.88 6.389-14.267 14.268-14.267h15.71c7.88 0 14.268 6.387 14.268 14.267v50.897c0 11.243-9.197 20.44-20.44 20.44h-51.219a2.404 2.404 0 0 1-2.403-2.405h0a2.402 2.402 0 0 1 2.403-2.404h6.413c11.598 0 21-9.402 21-21Z" stroke-linejoin="round" stroke-linecap="round" stroke="#000" fill="transparent"/></g></g><path d="M1071.674 1663.744c-.612 3.388-1.51 6.293-4.531 8.68-4.437 3.51-10.311 2.998-14.965 6.07-.418.277-.838.596-1.112 1.066-.532.915-.355 2.187.172 3.057 2.836 4.682 11.574 2.312 15.817 2.229 5.34-.106 10.68-.212 16.018-.316 1.422-.022 2.595-1.43 2.593-3.115v-18.12l.016-2.682c.027-4.441-3.033-7.896-6.781-7.656-3.239.209-5.97 3.284-6.624 7.139-.217 1.272-.393 2.488-.603 3.648Z" fill="#110809" fill-rule="evenodd" data-name="Path 855"/><g data-name="Group 1202"><path d="m1101.364 1549.662-.005-.002c.02-.062.03-.127.045-.19l-.04.192Z" fill="#7a483a" fill-rule="evenodd" data-name="Path 856"/><path d="m1112.092 1498.663-.21.993.21-.993Z" fill="#7a483a" fill-rule="evenodd" data-name="Path 857"/><path d="M1101.536 1548.907c-.034.192-.084.377-.132.562l.152-.72c-.008.052-.01.105-.02.158Z" fill="#7a483a" fill-rule="evenodd" data-name="Path 858"/><path d="m1090.833 1509.985 1.696-13.976-1.66 13.982-.036-.006Z" fill="#7a483a" fill-rule="evenodd" data-name="Path 859"/><g data-name="Path 860"><path d="M1093.025 1496.153c1.244-3.708 3.378-7.17 6.966-8.977 1.075-.54 2.222-.918 3.365-1.293 2.926-.961 5.87-1.928 8.915-2.376.512-.075 1.202-.021 1.318.482.046.197-.025.4-.068.596-.178.803.257 1.498.148 2.284-.141 1.02-.524 2.055-.78 3.054-.528 2.063-1.055 4.219-.832 6.364.331 3.216-1.364 5.924-1.364 9.025-.107.51-1.581 7.758-1.631 7.75l-18.193-3.071c.557-4.695.674-9.426 2.156-13.838Z" fill="#25837e" fill-rule="evenodd"/><path d="M1093.025 1496.153c1.244-3.708 3.378-7.17 6.966-8.977 1.075-.54 2.222-.918 3.365-1.293 2.926-.961 5.87-1.928 8.915-2.376.512-.075 1.202-.021 1.318.482.046.197-.025.4-.068.596-.178.803.257 1.498.148 2.284-.141 1.02-.524 2.055-.78 3.054-.528 2.063-1.055 4.219-.832 6.364.331 3.216-1.364 5.924-1.364 9.025-.107.51-1.581 7.758-1.631 7.75l-18.193-3.071c.557-4.695.674-9.426 2.156-13.838Z" stroke-linejoin="round" stroke-linecap="round" stroke="#000" fill="transparent"/></g></g><path d="M1047.679 1586.213c-.204-1.774-.005-3.743.698-5.914 1.313-4.046 5.235-6.778 9.323-7.953 4.088-1.173 8.414-1.073 12.663-1.226 8.5-.309 17.04-2.991 25.497-2.635 2.192.092 4.354.698 6.547.613 5.778-.223 10.55-5.111 16.322-5.49 1.89-.124 3.78.25 5.592.8 2.963.897 5.861 2.325 7.88 4.673 3.965 4.606 3.606 11.637 1.337 17.276-.917 2.277-2.122 4.47-3.822 6.24-2.39 2.488-5.58 3.948-8.813 5.004-3.722 1.214-6.802 1.133-10.69 1.1-8.634-.07-17.27-.139-25.904-.21-6.349-.05-12.67.77-19.028.25-7.836-.642-16.697-4.645-17.602-12.528Z" fill-rule="evenodd" data-name="Path 861"/><path d="M1054.072 1574.346c3.131-2.397 6.892-3.545 11.268-1.971 2.192.788 4.11 2.238 5.651 3.985 7.756 8.799 9.281 23.348 11.568 34.375a388.59 388.59 0 0 1 3.509 19.365c.287 1.854 3.546 18.396 2.461 18.94-1.06.532-18.887 2.185-18.736 2.58-3.428-8.91-7.464-17.827-10.25-26.931-1.579-5.155-4.134-9.919-6.246-14.86-2.452-5.743-4.6-12.212-5.76-18.354-1.315-6.953.92-12.83 6.535-17.13Z" fill-rule="evenodd" data-name="Path 862"/><path d="M1101.86 1587.294c-.21.28-.41.568-.598.866-5.45 8.669 9.171 10.772 14.443 10.78l18.544.03c10.74 0 19.067-5.381 19.405-15.975l-.002-32.045c-7.646.02-15.293.038-22.94.056-4.58.011-9.658-.6-14.196.035-3.248.455-2.841-.28-4.182 2.925-1.684 4.02-.814 10.402-1.548 14.775-.934 5.563-2.732 11.135-6.318 15.49-.853 1.035-1.801 1.996-2.607 3.063Z" fill-rule="evenodd" data-name="Path 863"/><path d="M1085.22 1614.041c-1.185-.455-2.717-2.508-4.015-2.194-1.203.292-2.272 2.537-2.785 3.522-1.399 2.694-2.18 5.76-4.2 8.097-.189.218-.397.436-.668.538-.59.223-1.227-.165-1.698-.584-3.88-3.462-4.154-10.41-4.42-15.266-.437-8.037 3.74-16.168 10.531-20.491 2.255-1.436 4.738-2.461 7.182-3.544a156.53 156.53 0 0 0 22.806-12.457c3.142-2.072 6.111-3.476 9.584-4.826 5.917-2.301 12.327-3.014 18.603-2 7.626 1.234 15.283 2.788 17.704 13.626 1.88 8.422-1.374 16.187-7.048 18.248-.13.046-.26.074-.388.12l-52.653 17.592c-.11.047-.212.101-.329.143-.275.1-.562.184-.864.255-2.445.567-5.031.105-7.342-.779Z" fill-rule="evenodd" data-name="Path 864"/><g data-name="Path 865"><path d="M1102.728 1490.653c.505-1.246 1.18-2.39 2.137-3.283 4.865-4.53 12.561-4.344 18.762-4.544 4.033-.132 8.099-.076 12.089.583 4.249.7 7.474 2.347 11.246 4.227 2.13 1.062 4.296 2.15 6.012 3.798 3.961 3.802 4.785 9.777 4.904 15.267.117 5.478-4.654 61.46-4.36 61.474-7.044-.327-14.103-.384-21.151-.753-3.606-.189-7.216-.357-10.811-.697-1.963-.187-3.949.035-5.91-.187-2.189-.249-1.964-1.167-3.475-2.116-.755-.474-1.417-.088-1.919-.732-.413-.53-.205-2.586-.25-3.277-.15-2.344-.24-4.693-.48-7.032-.271-2.625-.957-5.138-1.159-7.833-.5-6.64-.753-13.333-2.166-19.862-1.266-5.847-3.443-11.473-4.608-17.341-.802-4.03-1.104-8.255-.284-12.308.35-1.727.723-3.655 1.423-5.384Z" fill="#3aa5a9" fill-rule="evenodd"/><path d="M1102.728 1490.653c.505-1.246 1.18-2.39 2.137-3.283 4.865-4.53 12.561-4.344 18.762-4.544 4.033-.132 8.099-.076 12.089.583 4.249.7 7.474 2.347 11.246 4.227 2.13 1.062 4.296 2.15 6.012 3.798 3.961 3.802 4.785 9.777 4.904 15.267.117 5.478-4.654 61.46-4.36 61.474-7.044-.327-14.103-.384-21.151-.753-3.606-.189-7.216-.357-10.811-.697-1.963-.187-3.949.035-5.91-.187-2.189-.249-1.964-1.167-3.475-2.116-.755-.474-1.417-.088-1.919-.732-.413-.53-.205-2.586-.25-3.277-.15-2.344-.24-4.693-.48-7.032-.271-2.625-.957-5.138-1.159-7.833-.5-6.64-.753-13.333-2.166-19.862-1.266-5.847-3.443-11.473-4.608-17.341-.802-4.03-1.104-8.255-.284-12.308.35-1.727.723-3.655 1.423-5.384Z" stroke-linejoin="round" stroke-linecap="round" stroke="#000" fill="transparent"/></g><g data-name="Path 866"><path d="M1128.497 1473.925c.88-1.131.658-.92 1.004-2.407l3.45-14.831-20.857-4.852-2.486 15.057c-.883 3.8.483 7.597 3.227 10l1.542 10.445a7.725 7.725 0 0 0 9.03 6.585c4.34-.782 7.144-5.031 6.159-9.329l-1.07-10.668Z" fill="#fff" fill-rule="evenodd"/><path d="M1128.497 1473.925c.88-1.131.658-.92 1.004-2.407l3.45-14.831-20.857-4.852-2.486 15.057c-.883 3.8.483 7.597 3.227 10l1.542 10.445a7.725 7.725 0 0 0 9.03 6.585c4.34-.782 7.144-5.031 6.159-9.329l-1.07-10.668Z" stroke-linejoin="round" stroke-linecap="round" stroke="#000" fill="transparent"/></g><path d="M1114.045 1479.495c2.477-.09 5.081-1.199 5.781-3.73-.04.142-.514.28-.642.33-1.216.458-2.615.424-3.887.309-.847-.079-1.73-.175-2.446-.633-.065-.044-.139-.092-.217-.082-.08.008-.14.07-.183.136-.228.351-.11 1 .162 1.3.256.283.496.47.6.863.098.382.111.805.16 1.196.017.123.33.229.672.31Z" fill-rule="evenodd" data-name="Path 867"/><path d="M1111.033 1455.041c1.448.48 3.015.832 4.494 1.216 2.146.556 4.322.998 6.451 1.623 5.67 1.662 4.392 7.286 4.407 12.03.003 1.307.114 2.826 1.189 3.568 2.985 2.054 3.704-4.335 4.445-5.8.402-.792 1-1.483 1.325-2.31.671-1.7.077-3.628.314-5.44.107-.822.388-1.618.455-2.445.284-3.455-2.886-6.64-5.724-8.026-2.275-1.11-4.698-2.66-6.1-4.831-.227-.353-.434-.731-.756-1.002-.245-.208-.545-.341-.85-.445-1.688-.579-3.66-.253-5.074.836-.442.342-.843.757-1.359.966-.796.322-1.692.098-2.547.04-1.26-.083-2.587.244-3.516 1.096-.931.855-1.37 2.28-.873 3.44.298.7.884 1.238 1.206 1.925.739 1.577.378 2.816 2.157 3.439.117.041.236.082.356.12Z" fill="#110809" fill-rule="evenodd" data-name="Path 868"/><path d="M1124.18 1467.706a2.209 2.209 0 1 0 4.303 1 2.209 2.209 0 0 0-4.303-1Z" fill="#fff" fill-rule="evenodd" data-name="Path 869"/><path d="M1074.75 1592.348c-1.937 3.064-3.143 6.596-4.03 10.106-1.4 5.546-2.778 11.275-1.93 16.932.247 1.659.686 3.292.78 4.966.168 2.98-.758 5.929-.727 8.914.022 2.136.533 4.23.953 6.325 1.054 5.238 1.383 10.31 1.194 15.62a368.347 368.347 0 0 1-.221 5.133c-.068 1.37.158 3.314-.492 4.506 2.019.31 4.052.553 6.078.827 3.772.51 7.545 1.02 11.343 1.304 1.176.088 3.72.721 4.725-.054.843-.652.96-2.654 1.194-3.591 1.737-6.972 3.236-14.284 1.834-21.454-.253-1.293-.599-2.572-.74-3.883-.176-1.636-.027-3.29.193-4.92.911-6.758 2.566-13.375 3.441-20.145.92-7.118 1.534-14.29 2.088-21.443.984-12.678-16.411-8.549-22.255-3.26-1.35 1.22-2.477 2.613-3.429 4.117Z" fill-rule="evenodd" data-name="Path 870"/><path d="M1022.267 1435.052h-.52c0 .059.52-.058.52 0Z" fill="#110809" fill-rule="evenodd" data-name="Path 871"/></g><g data-name="Path 872"><path d="M1133.672 1497.654c-2.256 2.145-5.755 3.788-8.372 5.5a20.692 20.692 0 0 0-7.917-4.425c-1.63-.48-3.319-.761-4.913-1.344-7.246-2.649-12.82-8.103-20.284-10.534-3.742-1.218-7.9-2.1-10.468-5.081-3.154-3.658-3.763-9.134-6.084-13.284-.917-1.636-2.35-3.031-4.247-1.254-1.46 1.368-.953 4.046-.649 5.768.465 2.623 1.016 5.229 1.566 7.834.803 3.804 1.23 5.136 4.67 7 3.425 1.856 6.82 4.173 9.49 7.029 1.722 1.842 3.137 3.95 4.796 5.851 5.84 6.694 14.342 10.464 20.818 16.545 3.124 2.935 6.444 6.941 11.174 5.634 1.53-.423 19.554-5.189 18.967-6.224-2.2-3.89-3.77-7.521-5.384-11.638-.975-2.488-2.294-4.86-3.163-7.377Z" fill="#fff" fill-rule="evenodd"/><path d="M1133.672 1497.654c-2.256 2.145-5.755 3.788-8.372 5.5a20.692 20.692 0 0 0-7.917-4.425c-1.63-.48-3.319-.761-4.913-1.344-7.246-2.649-12.82-8.103-20.284-10.534-3.742-1.218-7.9-2.1-10.468-5.081-3.154-3.658-3.763-9.134-6.084-13.284-.917-1.636-2.35-3.031-4.247-1.254-1.46 1.368-.953 4.046-.649 5.768.465 2.623 1.016 5.229 1.566 7.834.803 3.804 1.23 5.136 4.67 7 3.425 1.856 6.82 4.173 9.49 7.029 1.722 1.842 3.137 3.95 4.796 5.851 5.84 6.694 14.342 10.464 20.818 16.545 3.124 2.935 6.444 6.941 11.174 5.634 1.53-.423 19.554-5.189 18.967-6.224-2.2-3.89-3.77-7.521-5.384-11.638-.975-2.488-2.294-4.86-3.163-7.377Z" stroke-linejoin="round" stroke-linecap="round" stroke="#000" fill="transparent"/></g><g data-name="Path 873"><path d="M1153.393 1508.62c-2.513 4.08-6.544 7.2-11.124 8.61" fill-rule="evenodd"/><path d="M1153.393 1508.62c-2.513 4.08-6.544 7.2-11.124 8.61" stroke-linejoin="round" stroke-linecap="round" stroke="#25837e" fill="transparent"/></g><g data-name="Path 874"><path d="m1010.264 1445.648-.029.17" fill="#fff" fill-rule="evenodd"/><path d="m1010.264 1445.648-.029.17" stroke-linejoin="round" stroke-linecap="round" stroke="#000" fill="transparent"/></g><g data-name="Group 1204"><path d="M1085.124 1546.534h-78.526a2.879 2.879 0 0 1-2.816-2.272l-9.751-45.167a2.879 2.879 0 0 1 2.813-3.487h78.527c1.357 0 2.53.945 2.815 2.272l9.754 45.167a2.88 2.88 0 0 1-2.816 3.487Z" fill="#000106" fill-rule="evenodd" data-name="Path 875"/><g data-name="Path 876"><path d="m1042.22 1559.381 1.554-18.593a3.014 3.014 0 0 0-6.009-.503l-1.597 19.096h-11.323v1.926h29.053v-1.926h-11.678Z" fill="#fce181" fill-rule="evenodd"/><path d="m1042.22 1559.381 1.554-18.593a3.014 3.014 0 0 0-6.009-.503l-1.597 19.096h-11.323v1.926h29.053v-1.926h-11.678Z" stroke-linejoin="round" stroke-linecap="round" stroke="#000" fill="transparent"/></g><path d="M1028.816 1505.929c-.22-1.914-3.248-1.934-3.025 0l.714 6.226c.22 1.912 3.248 1.934 3.026 0l-.715-6.226Z" fill="#fff" fill-rule="evenodd" data-name="Path 877"/><path d="M1034.866 1505.929c-.22-1.914-3.248-1.934-3.025 0l.716 6.226c.22 1.912 3.248 1.934 3.026 0l-.717-6.226Z" fill="#fff" fill-rule="evenodd" data-name="Path 878"/><path d="M1040.917 1505.929c-.22-1.914-3.246-1.934-3.025 0l.716 6.226c.22 1.912 3.248 1.934 3.025 0l-.716-6.226Z" fill="#fff" fill-rule="evenodd" data-name="Path 879"/><path d="M1046.969 1505.929c-.22-1.914-3.248-1.934-3.025 0l.714 6.226c.22 1.912 3.248 1.934 3.027 0l-.716-6.226Z" fill="#fff" fill-rule="evenodd" data-name="Path 880"/><path d="M1053.02 1505.929c-.22-1.914-3.248-1.934-3.026 0l.716 6.226c.22 1.912 3.249 1.934 3.026 0l-.716-6.226Z" fill="#fff" fill-rule="evenodd" data-name="Path 881"/></g><path d="M1103.635 1546.949c.206 1.38.222 2.995-.82 3.922-.594.53-1.41.714-2.19.877" fill-rule="evenodd" data-name="Path 882"/><path d="M1118.924 1517.4c.196 1.013 1.037 1.87 2.047 2.084 1.007.217 2.126-.222 2.719-1.065" fill="#110809" fill-rule="evenodd" data-name="Path 883"/><path d="M931.056 1454.01c.436-.156.81-.483 1.024-.893.116 0-1.14.894-1.024.894Z" fill="#110809" fill-rule="evenodd" data-name="Path 884"/></g><g data-name="Group 1206"><path d="M709.547 1561.145h488.851v5.407H709.547v-5.407z" fill-rule="evenodd" data-name="Rectangle 110"/><path d="M1193.31 1689.479h-3.72l-30.418-127.294h3.72l30.418 127.294Z" fill-rule="evenodd" data-name="Path 885"/><path d="M1159.648 1689.479h-3.72l-30.418-127.294h3.72l30.418 127.294Z" fill-rule="evenodd" data-name="Path 886"/><path d="M715.955 1689.479h3.72l30.417-127.294h-3.72l-30.417 127.294Z" fill-rule="evenodd" data-name="Path 887"/><path d="M749.617 1689.479h3.72l30.417-127.294h-3.72l-30.417 127.294Z" fill-rule="evenodd" data-name="Path 888"/></g><path d="M1008.057 1615.059c-1.63-7.75-15.613-7.142-21.914-8.238-8.555-1.486-17.126-2.918-25.664-4.46-1.927-.333-4.078-.626-5.825.452-.965.595-1.657 1.53-2.296 2.453-2.535 3.665-4.71 7.674-5.38 11.917-.672 4.243.361 8.765 3.483 11.465 2.825 2.444 6.875 3.102 10.737 3.602 2.343.305 4.584.843 6.895 1.239 1.335.229 2.67.065 3.794.825 3.346 2.264 2.436 7.645 1.548 11.117-.843 3.3-1.923 6.754-1.08 9.91.23.856.595 1.667.73 2.548.167 1.096-.031 2.24-.228 3.362-1.047 5.926-3.128 12.277-.854 17.88.27.664.617 1.305.73 2.023.093.588.023 1.203-.046 1.81-.458 4.016-.918 8.033-1.378 12.052.001-.008 13.75.633 14.8.649 1.587.024 5.08.622 6.52-.257 2.226-1.36 2.686-8.016 3.068-10.466.541-3.476.775-7 1.442-10.452 1.203-6.227 3.793-12.127 4.925-18.366.566-3.115.353-6.394.981-9.469.527-2.586 1.186-5.172 1.628-7.818 1.06-6.348 2.123-12.695 3.184-19.044.24-1.44.482-2.908.274-4.315a6.974 6.974 0 0 0-.074-.42Z" fill-rule="evenodd" data-name="Path 889"/><path d="m1005.377 1650.833-1.21 3.14c-1.022 2.656-2.06 5.367-2.2 8.211-.141 2.852.628 5.677.687 8.534.103 4.859-2.371 9.049-2.413 13.776-.016 1.758.478 3.482.606 5.235.13 1.773-.112 3.552-.354 5.313l-1.173 8.554c-.324 2.347-1.05 3.906 1.636 4.166 7.089.684 13.875-.4 20.928-.862.292-.02.61-.05.819-.257.155-.154.216-.376.272-.59 2.551-9.89 4.963-19.434 6.195-29.565.11-.905.22-1.828.603-2.656.485-1.055 1.37-1.86 2.099-2.766 1.807-2.245 1.85-4.58 2.63-7.183.757-2.526 1.654-4.95 2.218-7.573a5674.56 5674.56 0 0 0 3.973-18.648c1.088-5.157 2.38-9.763-.354-14.678-.887-1.594-2.289-2.828-3.705-3.977-12.337-9.995-27.987-15.826-43.855-16.342-5.938-.194-13.394-.575-15.617-6.086-.837-2.075-.634-4.406-.97-6.62-.986-6.458-11.012-7.97-16.234-6.285-7.042 2.273-9.242 11.01-10.023 18.366-.639 6.022-1.06 12.23.672 18.031 2.581 8.646 9.796 15.392 18.061 19.015 6.5 2.85 13.592 3.896 20.626 4.31 5.379.318 10.688-.698 16.007-1.299 3.776-.426 3.194.638 1.986 3.774l-1.91 4.962Z" fill-rule="evenodd" data-name="Path 890"/><g data-name="Path 891"><path d="M958.072 1490.472c.197.937.378 1.878.541 2.82.32 1.857.5 3.995-.754 5.4-.728.814-1.822 1.226-2.558 2.032-1.083 1.187-1.173 2.977-.934 4.565.287 1.9.313 3.595.41 5.443.106 1.998.98 3.842.894 5.893-.158 3.86-2.982 6.427-6.717 6.17-2.213-.154-4.709-.454-6.042-2.228-.65-.867-.909-1.96-1.15-3.017-1.82-7.948-3.638-16.269-1.584-24.16.758-2.918 1.716-6.367 3.453-8.873 1.257-1.812 2.647-4.179 4.394-5.55 1.618-1.27 4.072-1.726 5.716-.49 1.099.825 1.616 2.195 2.046 3.499a79.339 79.339 0 0 1 2.285 8.496Z" fill="#fff" fill-rule="evenodd"/><path d="M958.072 1490.472c.197.937.378 1.878.541 2.82.32 1.857.5 3.995-.754 5.4-.728.814-1.822 1.226-2.558 2.032-1.083 1.187-1.173 2.977-.934 4.565.287 1.9.313 3.595.41 5.443.106 1.998.98 3.842.894 5.893-.158 3.86-2.982 6.427-6.717 6.17-2.213-.154-4.709-.454-6.042-2.228-.65-.867-.909-1.96-1.15-3.017-1.82-7.948-3.638-16.269-1.584-24.16.758-2.918 1.716-6.367 3.453-8.873 1.257-1.812 2.647-4.179 4.394-5.55 1.618-1.27 4.072-1.726 5.716-.49 1.099.825 1.616 2.195 2.046 3.499a79.339 79.339 0 0 1 2.285 8.496Z" stroke-linejoin="round" stroke-linecap="round" stroke="#000" fill="transparent"/></g><g data-name="Path 892"><path d="M978.273 1523.43c.484-2.91 2.133-5.683 4.722-7.213 2.782-1.642 5.666-3.24 8.725-4.374.404-.15.806-.295 1.211-.44 7.998-2.853 16.408-4.61 24.276-7.82 8.705-3.556 17.083-7.786 25.615-11.72 5.745-2.647 11.28-5.49 16.338-9.3 4.288-3.234 2.94-9.704 4.994-14.147.885-1.914 2.554-3.9 4.096-1.306 1.432 2.411 1.017 5.605 1.365 8.276.348 2.657.7 5.353-.474 7.885-.827 1.78-2.327 3.14-3.788 4.45l-4.229 3.79c-1.62 1.454-3.219 3.017-4.94 4.32a217.638 217.638 0 0 0-15.559 12.95c-4.917 4.496-9.4 9.112-15.054 12.777-5.451 3.533-11.715 6.55-17.964 8.218a17.53 17.53 0 0 0-.309.083c-6.244 1.7-11.954 4.244-18.65 3.553-5.212-.539-11.375-3.958-10.375-9.981Z" fill="#fff" fill-rule="evenodd"/><path d="M978.273 1523.43c.484-2.91 2.133-5.683 4.722-7.213 2.782-1.642 5.666-3.24 8.725-4.374.404-.15.806-.295 1.211-.44 7.998-2.853 16.408-4.61 24.276-7.82 8.705-3.556 17.083-7.786 25.615-11.72 5.745-2.647 11.28-5.49 16.338-9.3 4.288-3.234 2.94-9.704 4.994-14.147.885-1.914 2.554-3.9 4.096-1.306 1.432 2.411 1.017 5.605 1.365 8.276.348 2.657.7 5.353-.474 7.885-.827 1.78-2.327 3.14-3.788 4.45l-4.229 3.79c-1.62 1.454-3.219 3.017-4.94 4.32a217.638 217.638 0 0 0-15.559 12.95c-4.917 4.496-9.4 9.112-15.054 12.777-5.451 3.533-11.715 6.55-17.964 8.218a17.53 17.53 0 0 0-.309.083c-6.244 1.7-11.954 4.244-18.65 3.553-5.212-.539-11.375-3.958-10.375-9.981Z" stroke-linejoin="round" stroke-linecap="round" stroke="#000" fill="transparent"/></g><g data-name="Path 893"><path d="M974.475 1587.899c-.001.192-17.13 1.064-18.707 1.163-3.09.194-7.064 1.14-10.106.623-1.942-.33-2.772-2.38-5.07-1.95-1.38.261-3.013.758-4.027-.211-.654-.624-.743-1.617-.793-2.52l-1.067-19.341c-.294-5.325-6.852-6.785-10.682-9.21l-7.825-4.957c4.895-10.553 11.69-19.706 19.713-28.065 8.406-8.757 14.375-9.553 26.67-9.672a122.009 122.009 0 0 0 29.477-3.914c2.3 8.156 4.735 16.385 6.946 24.503-5.645 3.064-12.503 5.272-18.632 7.315-1.825.692-3.788 1.495-4.782 3.175-.777 1.313-.81 2.918-.822 4.444l-.293 38.617Z" fill="#fce181" fill-rule="evenodd"/><path d="M974.475 1587.899c-.001.192-17.13 1.064-18.707 1.163-3.09.194-7.064 1.14-10.106.623-1.942-.33-2.772-2.38-5.07-1.95-1.38.261-3.013.758-4.027-.211-.654-.624-.743-1.617-.793-2.52l-1.067-19.341c-.294-5.325-6.852-6.785-10.682-9.21l-7.825-4.957c4.895-10.553 11.69-19.706 19.713-28.065 8.406-8.757 14.375-9.553 26.67-9.672a122.009 122.009 0 0 0 29.477-3.914c2.3 8.156 4.735 16.385 6.946 24.503-5.645 3.064-12.503 5.272-18.632 7.315-1.825.692-3.788 1.495-4.782 3.175-.777 1.313-.81 2.918-.822 4.444l-.293 38.617Z" stroke-linejoin="round" stroke-linecap="round" stroke="#000" fill="transparent"/></g><g data-name="Group 1209"><path d="M1188.258 1732.814h-29.297" stroke-linejoin="round" stroke-linecap="round" stroke="#000" fill="transparent" data-name="Line 25"/><g data-name="Group 1208"><g data-name="Group 1207"><path d="M1166.043 1659.169c.016-.289.046-.579.094-.867.52-3.147 2.995-5.543 4.69-8.246a18.056 18.056 0 0 0 2.728-8.786c.243-5.808.075-13.264 2.576-18.641 2.255-4.85 7.618-7.48 10.37-12.037 1.517-2.516 1.988-5.501 2.666-8.361 1.076-4.551 2.802-9.058 5.853-12.603 2.376-2.76 5.445-4.815 8.473-6.837 2.945-1.965 5.93-3.95 9.27-5.128 4.384-1.548 9.25-2.06 11.284 2.458 1.64 3.647.813 8.82-.917 12.255-1.506 2.989-3.89 5.42-6.134 7.905a115.34 115.34 0 0 0-10.65 13.756c-.89 1.352-1.776 2.781-1.976 4.39-.193 1.56.278 3.114.475 4.671.997 7.91-2.265 14.301-8.372 19.118-4.823 3.804-7.832 5.956-9.047 12.54-.75 4.073-1.086 8.398-3.35 11.865-.926 1.418-2.136 2.622-3.232 3.912a30.761 30.761 0 0 0-7.158 17.084c-.277 3.126-.937 10.176-5.962 8.758-6.147-1.735-5.398-19.69-3.597-23.945.765-1.808 1.917-3.482 2.281-5.411.487-2.582-.508-5.243-.365-7.85Z" fill-rule="evenodd" data-name="Path 894"/><g data-name="Path 895"><path d="M1141 1669.613c-1.311-.952-2.474-2.016-3.167-3.472-1.874-3.94 1.023-6.636 1.24-10.342.198-3.354-2.698-5.47-4.536-7.804-2.307-2.932-2.837-7.16-1.323-10.572.666-1.5 1.72-2.987 1.492-4.613-.169-1.19-.997-2.163-1.616-3.194-1.764-2.935-1.852-6.802-.227-9.816.918-1.701 2.352-3.179 2.745-5.073.264-1.269.025-2.583-.21-3.857-.763-4.13-1.495-8.316-1.226-12.51.117-1.832.453-3.723 1.511-5.226.947-1.35 2.578-2.447 4.288-1.995 1.787.471 2.024 1.897 2.655 3.336 1.825 4.161 2.312 7.901 3.112 12.367.14.782.323 1.58.78 2.229.503.715 1.282 1.173 2.016 1.649 4.727 3.065 8.585 8.122 8.558 13.756-.016 3.302-1.341 6.49-1.386 9.79-.011.845.08 1.742.59 2.417.468.618 1.21.951 1.902 1.3 2.056 1.04 3.998 2.523 4.977 4.606 1.108 2.359.828 5.15.045 7.635-.784 2.485-2.034 4.8-2.864 7.272-.205.613-.388 1.254-.325 1.899.15 1.538 1.415 2.272 2.243 3.408.885 1.213.968 2.014 1.433 3.378 1.233 3.626 2.517 6.598 1.926 10.557-.234 1.572-.699 3.107-.869 4.689-.336 3.157.513 6.3 1 9.438.325 2.09 1.107 6.957-1.035 8.4-1.843 1.241-4.46-.8-6.006-1.7-4.861-2.826-8.284-5.096-9.06-10.911-.552-4.142-.003-8.904-2.736-12.409-1.532-1.963-3.905-3.164-5.927-4.632Z" fill="#3aa5a9" fill-rule="evenodd"/><path d="M1141 1669.613c-1.311-.952-2.474-2.016-3.167-3.472-1.874-3.94 1.023-6.636 1.24-10.342.198-3.354-2.698-5.47-4.536-7.804-2.307-2.932-2.837-7.16-1.323-10.572.666-1.5 1.72-2.987 1.492-4.613-.169-1.19-.997-2.163-1.616-3.194-1.764-2.935-1.852-6.802-.227-9.816.918-1.701 2.352-3.179 2.745-5.073.264-1.269.025-2.583-.21-3.857-.763-4.13-1.495-8.316-1.226-12.51.117-1.832.453-3.723 1.511-5.226.947-1.35 2.578-2.447 4.288-1.995 1.787.471 2.024 1.897 2.655 3.336 1.825 4.161 2.312 7.901 3.112 12.367.14.782.323 1.58.78 2.229.503.715 1.282 1.173 2.016 1.649 4.727 3.065 8.585 8.122 8.558 13.756-.016 3.302-1.341 6.49-1.386 9.79-.011.845.08 1.742.59 2.417.468.618 1.21.951 1.902 1.3 2.056 1.04 3.998 2.523 4.977 4.606 1.108 2.359.828 5.15.045 7.635-.784 2.485-2.034 4.8-2.864 7.272-.205.613-.388 1.254-.325 1.899.15 1.538 1.415 2.272 2.243 3.408.885 1.213.968 2.014 1.433 3.378 1.233 3.626 2.517 6.598 1.926 10.557-.234 1.572-.699 3.107-.869 4.689-.336 3.157.513 6.3 1 9.438.325 2.09 1.107 6.957-1.035 8.4-1.843 1.241-4.46-.8-6.006-1.7-4.861-2.826-8.284-5.096-9.06-10.911-.552-4.142-.003-8.904-2.736-12.409-1.532-1.963-3.905-3.164-5.927-4.632Z" stroke-linejoin="round" stroke-linecap="round" stroke="#000" fill="transparent"/></g><g data-name="Path 896"><path d="M1173.01 1672.162a35.93 35.93 0 0 1 4.777-8.707c1.445-1.934 3.086-3.727 4.372-5.772 2.06-3.275 3.14-7.084 5.136-10.399 3.062-5.08 9.175-7.981 14.78-5.084 1.97 1.017 3.645 2.512 5.28 4.012 1.825 1.673 3.636 3.38 5.153 5.337 3.048 3.93 4.79 8.688 6.485 13.36l6.008 16.56c.954 2.624 3.183 8.607.994 11.203-2.125 2.519-6.799-1.109-7.765-3.197a9.482 9.482 0 0 0-2.796-3.507c-1.514-1.171-3.453-1.955-4.387-3.628-.971-1.74-.802-4.32-2.577-5.225-.513-.263-1.104-.317-1.647-.506-1.529-.526-2.498-1.994-3.325-3.381-1.886-3.157-3.327-6.711-5.349-9.752-1.282.386-2.42 4.259-3.296 5.491a19.263 19.263 0 0 1-4.651 4.624c-2.75 1.915-6.114 3.218-7.927 6.033-1.01 1.566-1.415 3.428-1.952 5.211-.77 2.553-3.186 9.912-7.129 8.666-2.706-.856-2.573-5.415-2.612-7.573a36.937 36.937 0 0 1 2.428-13.766Z" fill="#3aa5a9" fill-rule="evenodd"/><path d="M1173.01 1672.162a35.93 35.93 0 0 1 4.777-8.707c1.445-1.934 3.086-3.727 4.372-5.772 2.06-3.275 3.14-7.084 5.136-10.399 3.062-5.08 9.175-7.981 14.78-5.084 1.97 1.017 3.645 2.512 5.28 4.012 1.825 1.673 3.636 3.38 5.153 5.337 3.048 3.93 4.79 8.688 6.485 13.36l6.008 16.56c.954 2.624 3.183 8.607.994 11.203-2.125 2.519-6.799-1.109-7.765-3.197a9.482 9.482 0 0 0-2.796-3.507c-1.514-1.171-3.453-1.955-4.387-3.628-.971-1.74-.802-4.32-2.577-5.225-.513-.263-1.104-.317-1.647-.506-1.529-.526-2.498-1.994-3.325-3.381-1.886-3.157-3.327-6.711-5.349-9.752-1.282.386-2.42 4.259-3.296 5.491a19.263 19.263 0 0 1-4.651 4.624c-2.75 1.915-6.114 3.218-7.927 6.033-1.01 1.566-1.415 3.428-1.952 5.211-.77 2.553-3.186 9.912-7.129 8.666-2.706-.856-2.573-5.415-2.612-7.573a36.937 36.937 0 0 1 2.428-13.766Z" stroke-linejoin="round" stroke-linecap="round" stroke="#000" fill="transparent"/></g><path d="M1193.754 1687.694h-57.169v7.146h4.59l3.723 21.106c1.736 9.836 10.282 17.006 20.271 17.006 9.988 0 18.535-7.17 20.272-17.006l3.724-21.106h4.589v-7.146Z" fill-rule="evenodd" data-name="Path 897"/><path d="M1139.563 1695.436h51.213" stroke-linejoin="round" stroke-linecap="round" stroke="#fff" fill="transparent" data-name="Line 26"/></g></g></g><g data-name="Group 1210"><path d="m956.903 1603.717 13.826 1.666c8.278.997 17.272 2.34 22.992 8.406 3.574 3.79 5.348 8.99 5.894 14.171.546 5.18-.035 10.404-.617 15.58" stroke-linejoin="round" stroke-linecap="round" stroke-width="2" stroke="#fff" fill="transparent" data-name="Path 898"/><path d="M944.595 1641.448h2.805v61.879h-2.805v-61.88z" fill="#110809" fill-rule="evenodd" data-name="Rectangle 111"/><path d="M921.47 1716.311c0-9.137 16.168-12.968 24.247-12.984 9.617-.019 24.246 3.527 24.246 12.984" stroke-linejoin="round" stroke-linecap="round" stroke-width="2" stroke="#110809" fill="transparent" data-name="Path 899"/><path d="M945.989 1718.755v-15.178" stroke-linejoin="round" stroke-linecap="round" stroke-width="2" stroke="#110809" fill="transparent" data-name="Line 27"/><path d="M973.93 1718.516a3.966 3.966 0 0 1-3.967 3.967 3.967 3.967 0 1 1 3.967-3.967Z" fill="#110809" fill-rule="evenodd" data-name="Path 900"/><path d="M949.884 1718.516a3.967 3.967 0 1 1-7.935 0 3.967 3.967 0 0 1 7.935 0Z" fill="#110809" fill-rule="evenodd" data-name="Path 901"/><path d="M925.838 1718.516a3.967 3.967 0 1 1-7.935 0 3.967 3.967 0 0 1 7.935 0Z" fill="#110809" fill-rule="evenodd" data-name="Path 902"/><g data-name="Path 903"><path d="M965.028 1618.144v-53.137c0-9.196-8.43-16.652-18.83-16.652h-20.732c-10.4 0-18.83 7.456-18.83 16.652v59.404c0 13.12 12.139 23.856 26.975 23.856h67.595c1.753 0 3.174-1.256 3.174-2.807 0-1.55-1.42-2.806-3.174-2.806h-8.462c-15.307 0-27.716-10.973-27.716-24.51Z" fill="#fff" fill-rule="evenodd"/><path d="M965.028 1618.144v-53.137c0-9.196-8.43-16.652-18.83-16.652h-20.732c-10.4 0-18.83 7.456-18.83 16.652v59.404c0 13.12 12.139 23.856 26.975 23.856h67.595c1.753 0 3.174-1.256 3.174-2.807h0c0-1.55-1.42-2.806-3.174-2.806h-8.462c-15.307 0-27.716-10.973-27.716-24.51Z" stroke-linejoin="round" stroke-linecap="round" stroke="#000" fill="transparent"/></g></g><g data-name="Path 904"><path d="M929.13 1475.582c-2.815.148-5.652.292-8.25 1.217-5.145 1.831-7.492 5.677-10.107 9.965-2.63 4.312-7.05 6.93-10.355 10.646-6.127 6.888-6.936 17.95-1.875 25.657 1.667 2.54 3.872 4.696 6.294 6.53 13.478 10.193 35.459 2.91 43.296-11.402 4.14-7.561 2.564-16.837.875-25.291-.928-4.65-.391-8.312 4.437-10.721 1.242-.619 2.605-1.003 3.764-1.77 2.818-1.865 3.81-5.882 2.536-9.013-1.275-3.13-4.494-5.255-7.856-5.622-1.457-.159-2.963-.018-4.312.55-3.198 1.347-4.996 4.763-7.847 6.739-3.055 2.118-6.807 2.318-10.6 2.515Z" fill="#fff" fill-rule="evenodd"/><path d="M929.13 1475.582c-2.815.148-5.652.292-8.25 1.217-5.145 1.831-7.492 5.677-10.107 9.965-2.63 4.312-7.05 6.93-10.355 10.646-6.127 6.888-6.936 17.95-1.875 25.657 1.667 2.54 3.872 4.696 6.294 6.53 13.478 10.193 35.459 2.91 43.296-11.402 4.14-7.561 2.564-16.837.875-25.291-.928-4.65-.391-8.312 4.437-10.721 1.242-.619 2.605-1.003 3.764-1.77 2.818-1.865 3.81-5.882 2.536-9.013-1.275-3.13-4.494-5.255-7.856-5.622-1.457-.159-2.963-.018-4.312.55-3.198 1.347-4.996 4.763-7.847 6.739-3.055 2.118-6.807 2.318-10.6 2.515Z" stroke-linejoin="round" stroke-linecap="round" stroke="#000" fill="transparent"/></g><path d="M1017.915 1519.295c-.157.073-.106.311-.015.46.575.931 1.748 1.383 2.84 1.29 1.09-.091 2.096-.654 2.922-1.37" fill-rule="evenodd" data-name="Path 905"/><g data-name="Group 1214"><g data-name="Group 1213"><g data-name="Path 925"><path d="M750.75 1674.651c.17-2.469.367-4.54.38-5.74.022-2.247.046-4.51-.324-6.728-.516-3.089-1.774-5.994-2.864-8.931-2.417-6.51-4.049-13.603-2.557-20.387 1.003-4.563 3.371-8.746 4.323-13.322.69-3.31.62-6.74 1.234-10.066.503-2.716 3.956-11.675 8.169-8.36.711.56 1.094 1.433 1.413 2.283 1.183 3.145 1.886 6.49 3.495 9.442 1.718 3.154 4.416 5.748 5.756 9.08 1.293 3.215 1.193 6.812.81 10.256-1.334 11.987-5.358 23.465-3.687 35.753.282 2.08.88 19.116-2.172 19.116-1.039 2.77-2.718 7.063-5.993 7.78-8.876 1.943-8.58-11.545-7.983-20.176Z" fill="#3aa5a9" fill-rule="evenodd"/><path d="M750.75 1674.651c.17-2.469.367-4.54.38-5.74.022-2.247.046-4.51-.324-6.728-.516-3.089-1.774-5.994-2.864-8.931-2.417-6.51-4.049-13.603-2.557-20.387 1.003-4.563 3.371-8.746 4.323-13.322.69-3.31.62-6.74 1.234-10.066.503-2.716 3.956-11.675 8.169-8.36.711.56 1.094 1.433 1.413 2.283 1.183 3.145 1.886 6.49 3.495 9.442 1.718 3.154 4.416 5.748 5.756 9.08 1.293 3.215 1.193 6.812.81 10.256-1.334 11.987-5.358 23.465-3.687 35.753.282 2.08.88 19.116-2.172 19.116-1.039 2.77-2.718 7.063-5.993 7.78-8.876 1.943-8.58-11.545-7.983-20.176Z" stroke-linejoin="round" stroke-linecap="round" stroke="#000" fill="transparent"/></g><path d="M720.057 1695.533c-3.48 3.279-6.068 7.39-11.255 8.23-6.495 1.053-9.803-5.097-7.48-10.813 1.53-3.76 4.714-6.54 7.477-9.516a53.33 53.33 0 0 0 7.883-11.036c1.598-2.975 3.02-6.234 5.745-8.228 1.785-1.305 3.962-1.935 6.09-2.54 4.202-1.195 8.717-2.387 12.86-.998 2.588.87 4.753 2.675 6.702 4.59 11.317 11.319 10.473 25.967 7.858 40.555-.237 1.325-.596 2.828-1.785 3.464-1.915 1.026-4.074-1.088-4.75-3.152-1.633-4.994-.647-9.415-3.922-13.849-2.654-3.589-7.464-6.433-8.919-10.695-.445-1.3-.638-2.74-1.503-3.804-.867-1.066-2.79-1.425-3.51-.255-.377.614-.28 1.392-.227 2.112.337 4.58-1.842 9.263-5.56 11.957-1.527 1.105-3.28 1.887-4.722 3.1-.337.284-.663.579-.982.878Z" fill-rule="evenodd" data-name="Path 926"/><g data-name="Path 927"><path d="M757.39 1680.537a13.77 13.77 0 0 1 .06-1.974c.772-6.9 10.366-7.88 15.127-10.964 4.54-2.943 7.337-9.107 13.195-3.062 2.808 2.9 4.703 8.16 5.274 12.088a1978.834 1978.834 0 0 1 3.176 22.768c.226 1.692.43 3.508-.348 5.027-1.444 2.82-5.719 3.057-8.271 1.178-3.566-2.194-4.87-8.148-6.248-11.73-.65-1.692-1.312-3.45-1.187-5.257.155-2.224 1.493-4.342 1.139-6.542-.112-.693-.591-1.483-1.287-1.391-.22.028-.416.146-.602.266-3.147 2.035-4.202 5.22-6.14 8.193-2.039 3.124-3.636 2.76-5.99 4.916-4.889 4.472-3.407 14.557-5.176 20.567-.453 1.54-1.955 3.369-3.284 2.47-.532-.36-.736-1.037-.888-1.662a43.036 43.036 0 0 1 .054-20.456c.704-2.826 1.7-5.62 1.78-8.532.053-1.97-.317-3.94-.384-5.903Z" fill="#3aa5a9" fill-rule="evenodd"/><path d="M757.39 1680.537a13.77 13.77 0 0 1 .06-1.974c.772-6.9 10.366-7.88 15.127-10.964 4.54-2.943 7.337-9.107 13.195-3.062 2.808 2.9 4.703 8.16 5.274 12.088a1978.834 1978.834 0 0 1 3.176 22.768c.226 1.692.43 3.508-.348 5.027-1.444 2.82-5.719 3.057-8.271 1.178-3.566-2.194-4.87-8.148-6.248-11.73-.65-1.692-1.312-3.45-1.187-5.257.155-2.224 1.493-4.342 1.139-6.542-.112-.693-.591-1.483-1.287-1.391-.22.028-.416.146-.602.266-3.147 2.035-4.202 5.22-6.14 8.193-2.039 3.124-3.636 2.76-5.99 4.916-4.889 4.472-3.407 14.557-5.176 20.567-.453 1.54-1.955 3.369-3.284 2.47-.532-.36-.736-1.037-.888-1.662a43.036 43.036 0 0 1 .054-20.456c.704-2.826 1.7-5.62 1.78-8.532.053-1.97-.317-3.94-.384-5.903Z" stroke-linejoin="round" stroke-linecap="round" stroke="#000" fill="transparent"/></g><g data-name="Group 1212"><path d="M778.793 1702.4H731.92v5.857h3.762l3.052 17.306a16.879 16.879 0 0 0 16.622 13.944c8.19 0 15.196-5.88 16.62-13.944l3.053-17.306h3.763v-5.858Z" fill-rule="evenodd" data-name="Path 928"/><path d="M734.361 1708.747h41.99" stroke-linejoin="round" stroke-linecap="round" stroke="#fff" fill="transparent" data-name="Line 28"/></g></g><g data-name="Line 29"><path d="M745.52 1739.78h44.153" fill="#5757ff" fill-rule="evenodd"/><path d="M745.52 1739.78h44.153" stroke-linejoin="round" stroke-linecap="round" stroke="#000" fill="transparent"/></g></g><path d="M1126.518 1467.26c.359-.051.74.13.928.44a.954.954 0 0 1-.045 1.026c-.175.242-.455.385-.736.484-.027.01-.072.007-.067-.022" fill-rule="evenodd" data-name="Path 929"/><path d="M1111.318 1469.59c-.079.283.06.58.226.823.279.408.65.763 1.102.961a2.23 2.23 0 0 0 1.734-.008c.545-.232.992-.68 1.248-1.216h-.1" fill-rule="evenodd" data-name="Path 930"/><path d="m755.25 1509.845 23.6 6.955" stroke-linejoin="round" stroke-linecap="round" stroke="#000" fill="transparent" data-name="Path 1471"/></g></svg>