<svg xmlns="http://www.w3.org/2000/svg" width="78.438" height="78.438" viewBox="447.781 2130.696 78.438 78.438"><g data-name="CompositeLayer"><path d="M447.781 2169.865a39.219 39.219 0 1 1 0 .1z" fill="#fce181" fill-rule="evenodd" data-name="Ellipse 111"/><g data-name="surface1"><path d="M502.4 2161.229v-.03a38.593 38.593 0 0 1-.034-1.151 3.929 3.929 0 0 0-3.7-3.85c-4.262-.237-7.559-1.627-10.376-4.373l-.024-.023a2.372 2.372 0 0 0-3.224 0l-.024.023c-2.818 2.746-6.115 4.136-10.377 4.374a3.929 3.929 0 0 0-3.7 3.849c-.006.416-.017.793-.033 1.152l-.002.067c-.083 4.346-.186 9.755 1.624 14.665.995 2.7 2.502 5.047 4.479 6.976 2.25 2.197 5.2 3.941 8.764 5.184a2.715 2.715 0 0 0 .88.15 2.66 2.66 0 0 0 .883-.15c3.56-1.246 6.506-2.99 8.755-5.187 1.976-1.93 3.483-4.278 4.479-6.978 1.816-4.925 1.713-10.344 1.63-14.698Zm-3.671 13.945c-1.909 5.175-5.805 8.729-11.911 10.864a.488.488 0 0 1-.329 0c-6.112-2.131-10.01-5.683-11.918-10.858-1.668-4.526-1.573-9.491-1.49-13.872v-.024c.018-.376.029-.77.035-1.204a1.746 1.746 0 0 1 1.646-1.71c2.412-.134 4.531-.6 6.478-1.424 1.945-.823 3.671-1.983 5.28-3.547a.2.2 0 0 1 .268 0c1.608 1.564 3.335 2.724 5.28 3.547 1.946.824 4.065 1.29 6.478 1.425.909.05 1.632.801 1.645 1.71.007.435.018.83.035 1.203.083 4.386.175 9.355-1.497 13.89Zm0 0" fill-rule="evenodd" data-name="Path 1371"/><path d="M486.653 2160.468c-5.094 0-9.239 4.144-9.239 9.239 0 5.094 4.145 9.238 9.24 9.238 5.093 0 9.238-4.144 9.238-9.238 0-5.095-4.145-9.24-9.239-9.24Zm0 16.302a7.071 7.071 0 0 1-7.063-7.063 7.071 7.071 0 0 1 7.063-7.064 7.071 7.071 0 0 1 7.063 7.064 7.071 7.071 0 0 1-7.063 7.063Zm0 0" fill-rule="evenodd" data-name="Path 1372"/><path d="m489.308 2166.838-4.29 4.291-1.165-1.164a1.088 1.088 0 0 0-1.539 1.538l1.934 1.934a1.084 1.084 0 0 0 1.538 0l5.06-5.06a1.088 1.088 0 0 0-1.538-1.539Zm0 0" fill-rule="evenodd" data-name="Path 1373"/></g></g></svg>