<svg xmlns="http://www.w3.org/2000/svg" width="76.072" height="79.177" viewBox="444.723 1875 76.072 79.177"><g data-name="CompositeLayer"><path d="M444.723 1875.709c13.788.648 73.72-10.664 76.009 37.82 2.289 38.65-59.123 64.374-76.01 7.676v-45.496Z" fill="#9fedd7" fill-rule="evenodd" data-name="Path 1449"/><g data-name="content (1)"><g data-name="Group 1352"><path d="M490.168 1900.181h-.004a.818.818 0 0 0-.818.82.822.822 0 0 0 1.642 0 .82.82 0 0 0-.82-.82Z" fill-rule="evenodd" data-name="Path 1438"/><path d="M494.133 1900.181h-.002a.819.819 0 1 0 .002 1.64.82.82 0 1 0 0-1.64Z" fill-rule="evenodd" data-name="Path 1439"/><path d="M486.204 1900.181h-.005a.818.818 0 0 0-.817.82.822.822 0 0 0 1.642 0 .82.82 0 0 0-.82-.82Z" fill-rule="evenodd" data-name="Path 1440"/><path d="M477.883 1900.181h-11.038a.82.82 0 0 0 0 1.64h11.038a.82.82 0 0 0 0-1.64Z" fill-rule="evenodd" data-name="Path 1441"/><path d="M503.56 1930.389a3.116 3.116 0 0 0-1.073-2.15l-3.105-2.688v-26.797a2.445 2.445 0 0 0-2.442-2.442h-32.902a2.445 2.445 0 0 0-2.442 2.442v27.205a2.445 2.445 0 0 0 2.442 2.442h29.045l5.294 4.585a3.115 3.115 0 0 0 2.28.755 3.113 3.113 0 0 0 2.147-1.073 3.115 3.115 0 0 0 .757-2.28Zm-40.325-31.635c0-.443.36-.802.803-.802h32.902c.442 0 .802.36.802.802v5.294h-34.507v-5.294Zm.803 28.007a.803.803 0 0 1-.803-.802v-20.271h34.507v18.443l-5.961-5.162a4.828 4.828 0 0 0-.103-.96h2.95a.82.82 0 0 0 .82-.82v-8.57a.82.82 0 0 0-.82-.82h-10.462a.82.82 0 0 0 0 1.64h9.642v6.93h-2.817a4.782 4.782 0 0 0-.878-.99c-1.195-.963-2.115-.963-2.926-.964-.957 0-1.947-.001-4.048-1.743a.82.82 0 0 0-1.143.095c-.848.98-1.147 2.264-1.072 3.602H467.17v-6.93h9.635a.82.82 0 0 0 0-1.64H466.35a.82.82 0 0 0-.82.82v8.57c0 .453.367.82.82.82h14.841c.481 1.829 1.53 3.57 2.71 4.591a4.725 4.725 0 0 0 3.772 1.115l3.517 3.046h-27.152Zm25.34-5.718a3.1 3.1 0 0 1-2.136 1.071 3.102 3.102 0 0 1-2.267-.753c-1.625-1.406-3.023-4.813-2.151-6.854 2.102 1.546 3.344 1.547 4.362 1.548.716 0 1.149 0 1.888.592a3.098 3.098 0 0 1 1.06 2.127 3.1 3.1 0 0 1-.755 2.269Zm.078 2.048a4.765 4.765 0 0 0 1.162-.975 4.77 4.77 0 0 0 .8-1.292l6.459 5.593-1.964 2.267-6.457-5.593Zm12.109 8.504c-.26.3-.624.482-1.026.51a1.492 1.492 0 0 1-1.09-.359l-2.296-1.99 1.963-2.266 2.298 1.99c.3.26.482.624.511 1.026.029.401-.099.788-.36 1.089Z" fill-rule="evenodd" data-name="Path 1442"/><path d="M473.072 1923.01h-6.722a.82.82 0 0 0 0 1.64h6.722a.82.82 0 0 0 0-1.64Z" fill-rule="evenodd" data-name="Path 1445"/><path d="M480.887 1923.01h-3.662a.82.82 0 0 0 0 1.64h3.662a.82.82 0 0 0 0-1.64Z" fill-rule="evenodd" data-name="Path 1446"/><path d="M480.485 1909.438h.005a.818.818 0 0 0 .817-.82.822.822 0 0 0-1.641 0c0 .453.366.82.82.82Z" fill-rule="evenodd" data-name="Path 1447"/></g></g></g></svg>