<svg xmlns="http://www.w3.org/2000/svg" width="78.298" height="78.757" viewBox="702.816 1875 78.298 78.757"><g data-name="CompositeLayer"><path d="M702.816 1953.308c91.203 4.617 77.214-26.755 77.893-77.549-85.833-5.975-76.597 23.632-77.893 77.549Z" fill="#3aa5a9" fill-rule="evenodd" data-name="Path 1450"/><g data-name="web-development"><path d="M755.88 1898.976h-27.089c-1.593 0-2.889 1.23-2.889 2.743v25.595c0 1.512 1.296 2.742 2.89 2.742h27.089c1.593 0 2.889-1.23 2.889-2.742v-25.595c0-1.513-1.296-2.743-2.89-2.743Zm-27.089 1.828h27.09c.53 0 .963.41.963.915v4.57h-29.016v-4.57c0-.504.432-.915.963-.915Zm27.09 27.424h-27.09c-.53 0-.963-.41-.963-.914v-19.197h29.016v19.197c0 .504-.432.914-.963.914Z" fill="#fff" fill-rule="evenodd" data-name="Path 1360"/><path d="M745.604 1909.517a.963.963 0 0 0-1.264.506l-5.778 13.48a.963.963 0 1 0 1.77.76l5.778-13.481a.963.963 0 0 0-.506-1.265Z" fill="#fff" fill-rule="evenodd" data-name="Path 1361"/><path d="M737.31 1913.638a.963.963 0 0 0-1.353-.15l-4.815 3.852a.963.963 0 0 0 0 1.503l4.815 3.852a.963.963 0 1 0 1.203-1.504l-3.875-3.1 3.875-3.1a.963.963 0 0 0 .15-1.353Z" fill="#fff" fill-rule="evenodd" data-name="Path 1362"/><path d="m753.53 1917.34-4.815-3.852a.963.963 0 1 0-1.203 1.504l3.874 3.1-3.874 3.1a.963.963 0 1 0 1.203 1.503l4.814-3.852a.963.963 0 0 0 0-1.503Z" fill="#fff" fill-rule="evenodd" data-name="Path 1363"/><path d="M730 1903.4a.5.5 0 1 1 0 .1z" fill="#fff" fill-rule="evenodd" data-name="Ellipse 104"/><path d="M734 1903.4a1 .5 0 1 1 0 .1z" fill="#fff" fill-rule="evenodd" data-name="Ellipse 105"/><path d="M738 1903.4a.5.5 0 1 1 0 .1z" fill="#fff" fill-rule="evenodd" data-name="Ellipse 106"/><path d="M748.113 1904.754h5.778a.963.963 0 0 0 0-1.926h-5.778a.963.963 0 0 0 0 1.926Z" fill="#fff" fill-rule="evenodd" data-name="Path 1364"/></g></g></svg>